<svg xmlns="http://www.w3.org/2000/svg" width="18" height="10" viewBox="0 0 18 10"><path d="M4,13a1,1,0,1,0-1-1A1,1,0,0,0,4,13Zm0,4a1,1,0,1,0-1-1A1,1,0,0,0,4,17ZM4,9A1,1,0,1,0,3,8,1,1,0,0,0,4,9Zm4,4H20a1,1,0,0,0,0-2H8a1,1,0,0,0,0,2Zm0,4H20a1,1,0,0,0,0-2H8a1,1,0,0,0,0,2ZM7,8A1,1,0,0,0,8,9H20a1,1,0,0,0,0-2H8A1,1,0,0,0,7,8ZM4,13a1,1,0,1,0-1-1A1,1,0,0,0,4,13Zm0,4a1,1,0,1,0-1-1A1,1,0,0,0,4,17ZM4,9A1,1,0,1,0,3,8,1,1,0,0,0,4,9Zm4,4H20a1,1,0,0,0,0-2H8a1,1,0,0,0,0,2Zm0,4H20a1,1,0,0,0,0-2H8a1,1,0,0,0,0,2ZM7,8A1,1,0,0,0,8,9H20a1,1,0,0,0,0-2H8A1,1,0,0,0,7,8Z" transform="translate(-3 -7)" fill="#1c1f36"/></svg>