<?xml version="1.0" encoding="utf-8"?>
<!-- Generator: Adobe Illustrator 25.3.1, SVG Export Plug-In . SVG Version: 6.00 Build 0)  -->
<svg version="1.1" id="Capa_1" xmlns="http://www.w3.org/2000/svg" xmlns:xlink="http://www.w3.org/1999/xlink" x="0px" y="0px"
	 viewBox="0 0 730 112" style="enable-background:new 0 0 730 112;" xml:space="preserve">
<style type="text/css">
	.st0{fill:#020203;}
	.st1{font-family:'Montserrat-Regular';}
	.st2{font-size:14px;}
	.st3{fill:#E9486E;}
	.st4{fill:none;}
	.st5{font-family:'Montserrat-SemiBold';}
	.st6{font-size:28px;}
	.st7{fill:#FFFFFF;}
	.st8{font-size:13.115px;}
	.st9{clip-path:url(#SVGID_2_);}
	.st10{fill:#F29DAC;}
	.st11{fill:#F7BD9C;}
	.st12{fill:#FDEAD8;}
	.st13{fill:none;stroke:#F6AC62;stroke-width:0.4815;stroke-miterlimit:10;}
	.st14{fill:#DAE6F6;}
	.st15{fill:#BDD3EF;}
	.st16{fill:#AAC4E7;}
	.st17{fill:#333A44;}
	.st18{fill:#3E4652;}
	.st19{fill:#EE7C78;}
	.st20{fill:#F7D3C4;}
	.st21{fill:#F2B097;}
	.st22{fill:#F7CAB4;}
	.st23{fill:#401F20;}
	.st24{fill:#39414C;}
	.st25{fill:#4C5766;}
	.st26{fill:#E3736C;}
	.st27{fill:#F08B86;}
	.st28{fill:#EA574F;}
	.st29{fill:none;stroke:#EA574F;stroke-width:0.4815;stroke-linecap:round;stroke-miterlimit:10;}
	.st30{fill:#ACBED2;}
	.st31{fill:#EEF6FC;}
	.st32{fill:#7EA6D8;}
	.st33{fill:#D8EDFB;}
	.st34{fill:none;stroke:#AAC4E7;stroke-width:0.321;stroke-linecap:round;stroke-linejoin:round;stroke-miterlimit:10;}
	.st35{fill:#A86751;}
	.st36{fill:#6C4233;}
</style>
<text transform="matrix(1 0 0 1 204.472 77.3943)" class="st0 st1 st2">Participa y cambia la vida de muchas personas.</text>
<g transform="translate(-11465 4159)">
	<g>
		<path class="st3" d="M12057.1-4125h89.2c12.5,0,22.6,10.1,22.6,22.6l0,0c0,12.5-10.1,22.6-22.6,22.6h-89.2
			c-12.5,0-22.6-10.1-22.6-22.6l0,0C12034.5-4114.9,12044.6-4125,12057.1-4125z"/>
	</g>
</g>
<rect x="206.2" y="32.4" class="st4" width="350.5" height="32.8"/>
<text transform="matrix(1 0 0 1 206.1819 53.1887)" class="st0 st5 st6">Dona sangre </text>
<text transform="matrix(1 0 0 1 398.1819 53.1887)" class="st3 st5 st6">salva vidas</text>
<text transform="matrix(1 0 0 1 607.488 52.623)" class="st7 st1 st8">Consulta</text>
<text transform="matrix(1 0 0 1 600.188 68.323)" class="st7 st1 st8">los detalles</text>
<g>
	<defs>
		<rect id="SVGID_1_" y="0.8" width="246" height="111.2"/>
	</defs>
	<clipPath id="SVGID_2_">
		<use xlink:href="#SVGID_1_"  style="overflow:visible;"/>
	</clipPath>
	<g class="st9">
		<g>
			<path class="st10" d="M132.9,160.8c0,0,98.3-46.1,82.2-59s-75.3,31.4-75.3,31.4s51.9-46.2,38.8-60.4
				c-13.1-14.3-83.5,81.7-83.5,81.7s21.9,11.5,23.1,11.2C119.5,165.4,132.9,160.8,132.9,160.8z"/>
			<g>
				<path class="st11" d="M91,154.1c0.1-27.7-8.1-56.5-22.7-80c-4.3-7-9.6-13.9-17-17.5c-3.1-1.5-6.9-2.3-9.8-0.4
					c-2.3,1.5-3.4,4.3-3.8,7c-1.4,9.3,3.4,18.2,8,26.4c-8-10.6-20.7-17.5-34-18.2c-5.4-0.3-11.9,1-14.2,6C-4.9,82.7-0.9,88.9,3,93.5
					c8.6,10,17.6,19.5,27.1,28.6c-7.6-5.3-17.8-6.4-26.4-3c-5,2-9.7,6.2-9.8,11.6c-0.1,4,1.5,8.8,4.2,11.8
					c7.1,8,17.2,13.3,27.6,15.5c7.5,1.6,15.2,0.9,22.9,0.1C62.8,156.8,76.9,155.4,91,154.1z"/>
			</g>
			<g>
				<g>
					<path class="st12" d="M113.6,162.5c7.3-13.4,22-20.6,35.7-27.5c13.7-6.8,28.1-15.2,33.7-29.5c1.4-3.6,2.1-7.9,0.3-11.4
						c-2.5-4.8-8.8-6.2-14.2-6.1c-8.5,0.1-17,2.5-24.4,6.8c-1.5-2.7-0.4-6.3,1.7-8.6c2.1-2.3,4.9-3.7,7.6-5.4
						c8.9-5.4,16.2-13.4,20.8-22.8c3.2-6.8,5.1-14.5,3.1-21.8c-1.9-7.2-8.3-13.6-15.7-13.8c-5.9-0.2-11.3,3.2-15.6,7.2
						c-4.3,3.9-8.1,8.6-13,11.8c-1.4,0.9-3.4,1.6-4.5,0.4c-0.5-0.5-0.7-1.3-0.7-2.1c-0.5-6.4,3.8-12,7.1-17.6
						c3.5-5.8,5.9-12.2,7.3-18.8c1.8-8.5,0.9-18.9-6.5-23.5c-7.1-4.3-16.9-0.6-21.9,6.1c-5,6.6-6.4,15.2-7.4,23.5
						c-1.1,8.2-2,16.8-6.5,23.8c-0.3,0.5-0.7,1.1-1.3,1.2c-0.7,0.1-1.4-0.4-1.9-1c-2.9-3.3-4-7.6-5.9-11.6s-5.1-7.8-9.5-8
						c-3.7-0.2-7.2,2.5-8.8,5.9c-1.6,3.4-1.8,7.3-1.6,11c0.5,10.8,3.6,21.6,9,31c1.6,2.7,3.4,5.5,3.8,8.6c0.5,3.1-0.8,6.8-3.8,7.9
						c-3.4,1.2-6.9-1.4-9.8-3.6c-6.4-4.9-15.5-8.6-22.4-4.3c-4.5,2.8-6.7,8.4-6.5,13.7c0.2,5.3,2.4,10.3,5.1,14.9
						c12.9,22.3,36.8,37.5,46.3,61.4L113.6,162.5z"/>
				</g>
				<g>
					<path class="st13" d="M102.8,159.9c0,0-6-107.1,22.7-166.2"/>
					<path class="st13" d="M161.1,41.7c0,0-27,33.7-56.3,39.3c0,0-22.8-35-23.8-55.4"/>
					<path class="st13" d="M173.1,99.8c0,0-50.4,18.5-70.8,31.9c0,0-30.7-33.7-45.2-47.6"/>
				</g>
			</g>
			<ellipse class="st14" cx="102.8" cy="162.6" rx="92.7" ry="8.1"/>
		</g>
		<g>
			<g>
				<g>
					<polygon class="st15" points="96.3,132 95.1,156.2 62.1,156.2 60,128.7 					"/>
					<path class="st14" d="M62.8,62.5c0,0-2.7-9.1-9.9-9.4c-7.3-0.3-13.5,4.6-12.6,14.2s10.9,53,11.8,56c0.9,2.9,6.2,8.3,11.8,8.7
						s38.9,1.7,40.5-1.1s1.1-6.7-2.6-7.6c-3.6-0.9-30.4-9.9-30.4-9.9L62.8,62.5z"/>
					<path class="st16" d="M60.5,154.8h37.2c2.8,0,5.1,2.3,5.1,5.1l0,0H55.4l0,0C55.4,157.1,57.6,154.8,60.5,154.8z"/>
				</g>
				<g>
					<path class="st17" d="M86.7,106.7l29.9,4.9l5.2,38.7c0,0,7,1.5,7.3,5.1l-16.5,1.8l-4.1-35.8l-34.2-2.8l0.9-10.7L86.7,106.7z"/>
					<path class="st18" d="M62.1,114.4c0,0,0.2,9,14.6,9.9s28.6,0.8,28.6,0.8l16.6,32.7l16.6,0.5c0,0-0.9-4.2-9-5.7l-17.1-38.1
						L82.9,108L62.1,114.4z"/>
					<path class="st19" d="M86.7,106.7c0,0,0.4-22.1-1.6-30.9c-1.9-8.8-5.9-15.3-9.4-16.2s-13.6,0.3-16.3,2.9
						c-2.7,2.7-4.6,8.3-2.4,23.3c2.1,14.9,5.1,28.6,5.1,28.6L86.7,106.7z"/>
					<g>
						<g>
							<g>
								<path class="st20" d="M76.7,55.2L76.7,55.2c-0.2,0.3-0.4,0.9-0.3,2.2c0,0.4,0.1,0.8,0.2,1.3c0.6,2.8,0.6,2.8,0.6,2.8
									s0.2,1.8-2.1,2.3c-2.3,0.5-5.7-1-6.2-4.8l-0.6-12.8L76.7,55.2z"/>
								<path class="st21" d="M76.7,55.3c-0.1,0.2-0.3,0.8-0.2,2.1c-0.9-0.3-4.1-1.4-5.3-4.4L76.7,55.3z"/>
							</g>
							<g>
								<path class="st20" d="M84.6,44.5c0.1,1,0.1,2,0,3c-0.1,0.8-0.2,1.6-0.4,2.3c-0.4,1.4-1,2.7-1.8,3.8c-1.5,2-3.8,2.6-5.9,2.3
									c-2-0.2-3.9-1.2-5.1-2.2c-0.1-0.1-0.1-0.1-0.2-0.2c-0.9-0.8-1.9-2.6-2.7-4.7c-1.4-3.9-1.8-9,1.8-12
									c5.6-4.7,11.2-0.4,11.4-0.1c0.5,0.7,0.9,1.5,1.2,2.2C83.8,40.8,84.4,42.7,84.6,44.5z"/>
								<g>
									<g>
										<path class="st22" d="M76.5,48c0.2,0.8-0.3,1.6-1.2,1.8c-0.8,0.2-1.6-0.3-1.8-1.2c-0.2-0.8,0.3-1.6,1.2-1.8
											C75.5,46.7,76.3,47.2,76.5,48z"/>
										<path class="st23" d="M77.3,46.9c-0.1,0.5-0.5,0.9-0.9,0.8c-0.4,0-0.8-0.5-0.7-1c0.1-0.5,0.5-0.9,0.9-0.8
											C77.1,46,77.4,46.4,77.3,46.9z"/>
										<path class="st24" d="M74.5,43.5c0.3-0.2,0.5-0.3,0.8-0.4c0.3-0.1,0.5-0.2,0.8-0.2c0.6-0.1,1.2-0.1,1.8,0
											c0.3,0.1,0.6,0.4,0.5,0.7s-0.4,0.6-0.7,0.5c0,0,0,0-0.1,0l0,0c-0.4-0.1-0.8-0.2-1.3-0.1c-0.2,0-0.5,0.1-0.7,0.1
											c-0.2,0.1-0.5,0.1-0.6,0.2l0,0c-0.2,0.1-0.5,0-0.6-0.3C74.2,43.8,74.3,43.6,74.5,43.5z"/>
									</g>
									<g>
										<path class="st22" d="M84.6,47.5c-0.1,0.8-0.2,1.6-0.4,2.3c-0.1,0.1-0.3,0.1-0.5,0.2c-0.8,0.2-1.6-0.3-1.8-1.2
											c-0.2-0.8,0.3-1.6,1.2-1.8C83.7,46.9,84.2,47.1,84.6,47.5z"/>
										<path class="st23" d="M83.3,46.9c-0.1,0.5-0.5,0.9-0.9,0.8c-0.4,0-0.8-0.5-0.7-1c0.1-0.5,0.5-0.9,0.9-0.8
											C83.1,46,83.4,46.4,83.3,46.9z"/>
										<path class="st24" d="M81.8,42.9c0.2,0,0.4,0,0.6,0.1c0.2,0,0.4,0.1,0.6,0.1c0.4,0.1,0.8,0.2,1.2,0.5
											c0.2,0.1,0.3,0.4,0.1,0.6c-0.1,0.2-0.4,0.2-0.6,0.1l0,0c-0.2-0.1-0.6-0.2-0.9-0.3c-0.2,0-0.3,0-0.5,0s-0.4,0-0.5,0
											c-0.3,0-0.6-0.2-0.6-0.5C81.2,43.2,81.4,43,81.8,42.9L81.8,42.9z"/>
									</g>
									<path class="st7" d="M80.2,51.3c-0.3,0-0.7,0-1,0c-0.4,0-0.8-0.1-1-0.1c-0.3,0-0.6,0-0.6,0.4s1.3,1.5,1.8,1.5
										c0.6,0,1.8-1,1.8-1.5C81.2,51.2,80.6,51.2,80.2,51.3z"/>
								</g>
							</g>
						</g>
						<path class="st25" d="M68.7,52.6c0,0,2.1-1.9,2.1-4.2c0,0-1.7-0.3-2.1-2s2.3-3.9,3-1c0,0,2-1.5,2-6.6c0,0,2.5,2,5.7,2
							c0,0-1.3-1.8-2-2.4c0,0,3.8,2.2,8.5,1.6c0,0-0.6-1.2-2.5-1.9c0,0,3.1-0.1,3.8-2.7c0,0-1.7,0.6-3.9,0
							c-2.3-0.6-10.8-4.2-13.5,1.4c0,0-2.4-0.3-3,3.6C66.1,44.2,68.7,52.6,68.7,52.6z"/>
					</g>
				</g>
				<g>
					<path class="st16" d="M94.8,105.1H54.2c-1.5,0-2.7-1.2-2.7-2.7l0,0c0-1.5,1.2-2.7,2.7-2.7h40.6c1.5,0,2.7,1.2,2.7,2.7l0,0
						C97.5,103.9,96.3,105.1,94.8,105.1z"/>
					<g>
						<path class="st26" d="M65.5,68.9c0,0,2.3,18.1,2.4,22.3l-5.1,1.9L65.5,68.9z"/>
						<path class="st20" d="M58.3,96.7l0.6,3.1l32.8,0.1c0,0,2.3,2.6,3.4,3.3c1.1,0.7,1.4,3.7,2.1,3.5c0.8-0.2-0.1-4.3-0.4-4.6
							c-0.3-0.4,1.5,4.8,2.2,4.6c0.7-0.2-0.3-4.8-1-6c0,0,3.1,5.1,3.5,4.4c0.5-0.7-1.5-4.6-1.9-5.1c0,0,3.4,2.2,3.9,1.7
							c0.6-0.5-4.8-4.7-7.6-5.6C93.1,95.2,66.7,91,66.7,91s-1.9-0.1-3.5,0.5C61.6,92.2,58.3,96.7,58.3,96.7z"/>
						<path class="st19" d="M58.3,64c0,0,5.8-1.8,6.9,3.3c1.2,5.1,1.5,23.8,1.5,23.8s-6.5,3-8.5,5.6C58.3,96.7,52.1,66.8,58.3,64z"
							/>
						<path class="st27" d="M67.2,91.1c0,0-6.9,3.1-8.9,5.6c0,0-0.8-0.9-0.6-1.5s-0.8-0.8-0.6-1.1c0.2-0.3,2.8-3.5,6.2-4.5
							c3.4-0.9,4.2-0.7,4-0.2c-0.2,0.6-0.5,0.9-0.2,1.1C67.4,90.7,67.2,91.1,67.2,91.1z"/>
					</g>
				</g>
				<g>
					<g>
						<path class="st14" d="M47.1,31H36.2c-0.3,0-0.6,0.3-0.6,0.6v13.7c0,1.7,1.4,3.1,3.1,3.1h5.8c1.7,0,3.1-1.4,3.1-3.1V31.6
							C47.7,31.3,47.4,31,47.1,31z M41.6,31.4c0.4,0,0.7,0.3,0.7,0.7c0,0.4-0.3,0.7-0.7,0.7s-0.7-0.3-0.7-0.7
							C41,31.7,41.3,31.4,41.6,31.4z"/>
						<path class="st16" d="M41.6,51.9L41.6,51.9c-0.4,0-0.8-0.4-0.8-0.8v-4.5h1.6v4.5C42.4,51.6,42.1,51.9,41.6,51.9z"/>
						<path class="st28" d="M42.7,46.9h-2.1c-2,0-3.6-1.6-3.6-3.6v-6c0-0.5,0.4-0.8,0.8-0.8h7.7c0.5,0,0.8,0.4,0.8,0.8v6
							C46.3,45.3,44.7,46.9,42.7,46.9z"/>
						<rect x="38.1" y="37.9" class="st7" width="7.1" height="1.6"/>
						<path class="st28" d="M41.6,48.5L41.6,48.5c-0.3,0-0.6-0.3-0.6-0.6v-1h1.1v1C42.2,48.2,42,48.5,41.6,48.5z"/>
					</g>
					<g>
						<path class="st29" d="M78,93.9c0,0,7.7,1.4,6.8,13.4c-0.9,12-14.9,16.8-22.6,14.4s-21.3-12.2-20.8-25.8s1.7-28.6,0.9-34.5
							s-0.5-11.3-0.6-13.2"/>
						
							<rect x="78" y="93.9" transform="matrix(0.7071 -0.7071 0.7071 0.7071 -43.4745 83.6295)" class="st7" width="2.4" height="0.8"/>
					</g>
				</g>
				<g>
					<path class="st16" d="M20.1,161.7H38c1.2,0,2.2,1,2.2,2.2l0,0H17.9l0,0C17.9,162.7,18.9,161.7,20.1,161.7z"/>
					<path class="st16" d="M29.1,162.8h-1.5V16c0-0.4,0.3-0.8,0.8-0.8l0,0c0.4,0,0.8,0.3,0.8,0.8L29.1,162.8L29.1,162.8z"/>
					<path class="st16" d="M43.9,25.7H19.4c-0.3,0-0.5-0.2-0.5-0.5l0,0c0-0.3,0.2-0.5,0.5-0.5h24.5c0.3,0,0.5,0.2,0.5,0.5l0,0
						C44.4,25.5,44.1,25.7,43.9,25.7z"/>
					<path class="st15" d="M41.6,32.5L41.6,32.5c-0.2,0-0.4-0.2-0.4-0.4v-7.4H42v7.4C42.1,32.3,41.9,32.5,41.6,32.5z"/>
				</g>
			</g>
			<g>
				<g>
					<g>
						<g>
							<polygon class="st22" points="160.9,161.8 160.9,112 146.8,112 154.7,161.8 							"/>
							<path class="st17" d="M146.7,161.8h14.2v-5l-7-0.2C154,156.7,146.6,158.1,146.7,161.8z"/>
						</g>
						<g>
							<polygon class="st20" points="172.1,161.8 172.1,112 158,112 165.9,161.8 							"/>
							<path class="st18" d="M157.9,161.8h14.2v-5l-7-0.2C165.2,156.7,157.8,158.1,157.9,161.8z"/>
						</g>
						<path class="st30" d="M175.2,112.5c0,0-19.2,8.2-32.2-0.7c0,0,2.2-21.8,3.8-26.5l24.1-3.2C170.9,82.1,175.5,94.4,175.2,112.5z
							"/>
					</g>
					<g>
						<g>
							<polygon class="st22" points="147.8,46.9 145.5,60.7 135.8,69.5 141.8,71.6 151.4,63.7 152.2,47.4 							"/>
							<path class="st31" d="M152.6,37c0,0-4.1-0.1-5.6,11.3c0,0,3.7,1,4.5,0.5L152.6,37z"/>
						</g>
						<polygon class="st32" points="156.3,60.4 168.2,36.2 157.1,36.2 153.8,42 						"/>
						<path class="st33" d="M164.5,37.3c0,0-6.6,12.4-8.2,19c0,0-1.3-16.7,0.7-20c0,0-3.5-0.5-4.5,0.8s-1.7,5.8-1.9,10.8
							c-0.3,5,0.6,18.8,0.6,18.8s-7.1,18.3-7.8,22.1c0,0,1.8,2.9,6,3.6l3.3-7.6l2.6,8.1c0,0,14.5,0.4,19.3-3.7
							c0,0-3.3-16.3-4.7-20.5c0,0,4.6-17.6,5-22.6c0.4-4.9,0.5-8.1-4.8-9.9C170.2,36.1,165.1,35.3,164.5,37.3z"/>
						<path class="st34" d="M157.1,57c0,0,5.2-7,6.2-10l-0.5-2.1l3.3-4.2"/>
						<polyline class="st34" points="155,56.5 152.5,49.1 154.4,45.9 152.8,43.5 154.3,38.4 						"/>
						<g>
							<circle class="st19" cx="137" cy="68" r="6"/>
							<path class="st20" d="M165.4,48.8l-3.1,9.8c0,0-9.1,5.3-18,11.3c0,0-4.2-2.8-5-2.2c-0.8,0.6,2,2.9,2,2.9s-3,1.1-5.1,0.6
								c-2.1-0.6-4.2-1.8-4.7-1.1c-0.5,0.6,2.2,2.5,3.2,2.8c0,0-3.5-2.1-4-1.5s1.2,2.4,3.7,3.5c0,0-1.6-0.6-1.6-0.4s2.1,2.5,5.2,2.4
								c3-0.1,30.1-12,30.1-12l4.9-13.7L165.4,48.8z"/>
							<path class="st31" d="M173.3,52.1l-8.6-2.5c0,0,0,0,0-0.1c2.2-9.6,4.5-11.5,6.7-11.7c0.6,0,1.1,0,1.5,0.1l0,0
								c1.3,0.4,2.2,1.4,2.5,2.8C176.3,43.9,173.3,52.1,173.3,52.1z"/>
						</g>
					</g>
				</g>
				<g>
					<path class="st35" d="M158.4,36l2.3-0.7l-0.2-7.3c0,0-4,0.9-4.1,1C156.2,29.2,158.4,36,158.4,36z"/>
					<path class="st35" d="M153.4,45.4c0,0,0.5-1.2,2.3-2.7c1.7-1.5,2.7-4.8,2.7-6.7c0-2,0-5.6,0-5.6l-5.1-2.4c0,0-1.3,1.8-1.6,3.8
						c-0.3,2.1-0.2,4,1.6,5.4c1.8,1.5,1.5,3.4,1.2,4C154.1,41.9,152.7,43.8,153.4,45.4z"/>
					<g>
						<g>
							<path class="st20" d="M158.9,29.6C158.9,29.6,159,29.6,158.9,29.6c0.2,0.3,0.4,0.9,0.3,2.2c0,0.4-0.1,0.8-0.2,1.3
								c-0.6,2.8-0.6,2.8-0.6,2.8s-0.2,1.8,2.1,2.3s5.7-1,6.2-4.8l0.6-12.8L158.9,29.6z"/>
							<path class="st21" d="M159,29.7c0.1,0.2,0.3,0.8,0.2,2.1c0.9-0.3,4.1-1.4,5.3-4.4L159,29.7z"/>
						</g>
						<g>
							<path class="st20" d="M151.1,19c-0.1,1-0.1,2,0,3c0.1,0.8,0.2,1.6,0.4,2.3c0.4,1.4,1,2.7,1.8,3.8c1.5,2,3.8,2.6,5.9,2.3
								c2-0.2,3.9-1.2,5.1-2.2c0.1-0.1,0.1-0.1,0.2-0.2c0.9-0.8,1.9-2.6,2.7-4.7c1.4-3.9,1.8-9-1.8-12c-5.6-4.7-11.2-0.4-11.4-0.1
								c-0.5,0.7-0.9,1.5-1.2,2.2C151.8,15.2,151.3,17.1,151.1,19z"/>
							<g>
								<g>
									<path class="st22" d="M159.2,22.5c-0.2,0.8,0.3,1.6,1.2,1.8c0.8,0.2,1.6-0.3,1.8-1.2c0.2-0.8-0.3-1.6-1.2-1.8
										C160.2,21.1,159.4,21.6,159.2,22.5z"/>
									<path class="st23" d="M158.3,21.4c0.1,0.5,0.5,0.9,0.9,0.8c0.4,0,0.8-0.5,0.7-1s-0.5-0.9-0.9-0.8
										C158.6,20.4,158.3,20.9,158.3,21.4z"/>
									<path class="st36" d="M161.1,17.9c-0.3-0.2-0.5-0.3-0.8-0.4s-0.5-0.2-0.8-0.2c-0.6-0.1-1.2-0.1-1.8,0
										c-0.3,0.1-0.6,0.4-0.5,0.7c0.1,0.3,0.4,0.6,0.7,0.5c0,0,0,0,0.1,0l0,0c0.4-0.1,0.8-0.2,1.3-0.1c0.2,0,0.5,0.1,0.7,0.1
										c0.2,0.1,0.5,0.1,0.6,0.2l0,0c0.2,0.1,0.5,0,0.6-0.3C161.5,18.3,161.4,18,161.1,17.9z"/>
								</g>
								<g>
									<path class="st22" d="M151.1,22c0.1,0.8,0.2,1.6,0.4,2.3c0.1,0.1,0.3,0.1,0.5,0.2c0.8,0.2,1.6-0.3,1.8-1.2
										c0.2-0.8-0.3-1.6-1.2-1.8C152,21.3,151.4,21.5,151.1,22z"/>
									<path class="st23" d="M152.3,21.4c0.1,0.5,0.5,0.9,0.9,0.8c0.4,0,0.8-0.5,0.7-1s-0.5-0.9-0.9-0.8
										C152.6,20.4,152.3,20.9,152.3,21.4z"/>
									<path class="st36" d="M153.9,17.4c-0.2,0-0.4,0-0.6,0.1c-0.2,0-0.4,0.1-0.6,0.1c-0.4,0.1-0.8,0.2-1.2,0.5
										c-0.2,0.1-0.3,0.4-0.1,0.6c0.1,0.2,0.4,0.2,0.6,0.1l0,0c0.2-0.1,0.6-0.2,0.9-0.3c0.2,0,0.3,0,0.5,0s0.4,0,0.5,0
										c0.3,0,0.6-0.2,0.6-0.5S154.3,17.4,153.9,17.4L153.9,17.4z"/>
								</g>
								<path class="st7" d="M155.5,25.7c0.3,0,0.7,0,1,0c0.4,0,0.8-0.1,1-0.1c0.3,0,0.6,0,0.6,0.4s-1.3,1.5-1.8,1.5
									c-0.6,0-1.8-1-1.8-1.5C154.5,25.7,155.1,25.7,155.5,25.7z"/>
							</g>
						</g>
					</g>
					<path class="st22" d="M158.3,11.2c0,0-0.4,3.2-3.8,4.6c-3.4,1.4-3.4,3.2-3.4,3.2v-4.1L158.3,11.2z"/>
					<path class="st22" d="M163.9,28.3c0,0-2-1.2-1.9-2.4c0.1-1.3,0.4-2.8,0.7-3.6c0.3-0.8,0.2-3.7-1.4-5l4.2,2.3L163.9,28.3z"/>
					<path class="st35" d="M158.4,11c0,0-0.6,4.3,1.8,5.6c2.4,1.4,3.6,3.4,3.3,4.7c-0.3,1.3-1.7,3.5-0.7,5.3
						c1.1,1.8,1.9,2.3,1.7,4.1c-0.2,1.8-2.2,1.4-2.3,4.3c-0.2,2.9,3.4,3.8,0.6,7.7c0,0,6.2-2.1,7.4-6.6c0,0,3.7,2.8,7,0.6
						c0,0-2.9-0.5-2.8-3.7c0.1-3.1,1.4-5.7,0.8-7.3s-2.3-3.1-2.4-5.6c-0.2-2.5-0.6-11.4-8.7-11.2c0,0-7.4-3.6-11.6,1.7
						c-4.2,5.2-1.4,11.5-1.4,11.5s-0.4-4.1,1-5.4C153.5,15.3,157.9,14.3,158.4,11z"/>
				</g>
			</g>
		</g>
	</g>
</g>
</svg>
