<?xml version="1.0" encoding="utf-8"?>
<!-- Generator: Adobe Illustrator 25.3.1, SVG Export Plug-In . SVG Version: 6.00 Build 0)  -->
<svg version="1.1" id="Capa_1" xmlns="http://www.w3.org/2000/svg" xmlns:xlink="http://www.w3.org/1999/xlink" x="0px" y="0px"
	 viewBox="0 0 730 112" style="enable-background:new 0 0 730 112;" xml:space="preserve">
<style type="text/css">
	.st0{fill:#D1D700;}
	.st1{fill:#FFFFFF;}
	.st2{font-family:'Montserrat-Regular';}
	.st3{font-size:13.115px;}
	.st4{fill:none;}
	.st5{fill:#020203;}
	.st6{font-size:14px;}
	.st7{font-family:'Montserrat-SemiBold';}
	.st8{font-size:28px;}
	.st9{fill:#FCD57E;}
	.st10{fill:#41BDDD;}
	.st11{fill:#282F46;}
	.st12{fill:#FAE9E0;}
	.st13{fill:#ED6B62;}
	.st14{fill:#151127;}
	.st15{fill:#E52B1F;}
	.st16{fill:#7FACBA;}
	.st17{fill:#313337;}
	.st18{fill:#E41D26;}
	.st19{fill:#F08680;}
	.st20{fill:#F6E700;}
	.st21{fill:#B5B510;}
</style>
<path class="st0" d="M117.5,100.4H-0.9V13.7H122c18.7,0,33.9,15.2,33.9,33.9v14.5C155.9,83.3,138.7,100.4,117.5,100.4z"/>
<g>
	<path class="st0" d="M683.6,66.5h-81.1c-7.5,0-13.5-6-13.5-13.5v0c0-7.5,6-13.5,13.5-13.5h81.1c7.5,0,13.5,6,13.5,13.5v0
		C697.1,60.5,691,66.5,683.6,66.5z"/>
	<text transform="matrix(1 0 0 1 602.2375 57.596)" class="st1 st2 st3">Conoce más</text>
</g>
<g>
	<rect x="177.7" y="51.1" class="st4" width="391.9" height="49.1"/>
	<text transform="matrix(1 0 0 1 177.7375 61.4661)"><tspan x="0" y="0" class="st5 st2 st6">Resuelve dudas de presupuesto familiar, información </tspan><tspan x="0" y="18" class="st5 st2 st6">para obtención de créditos y préstamos y mucho más.</tspan></text>
</g>
<g>
	<rect x="177.7" y="17.5" class="st4" width="448.6" height="26.4"/>
	<text transform="matrix(1 0 0 1 177.7375 38.2568)" class="st7 st8">Asesoría financiera </text>
</g>
<g>
	<g>
		<g>
			<g>
				<g>
					<path class="st9" d="M98.1,61.6c-0.4,0-0.8-0.1-1.2-0.3c-1-0.4-1.6-1.4-1.7-2.7c-0.1-1.7,1-2.8,1.9-3.9
						c0.6-0.7,1.2-1.3,1.2-1.8c0.1-0.7-0.9-1.3-3-1.9c-1-0.3-2.2-1.1-2.7-2.3c-0.3-0.7-0.2-1.5,0.2-2.1c0.5-0.8,1.1-1.2,1.9-1.2
						c1.7-0.1,3.4,1.4,4.3,2.4c0.5,0.5,0.9,0.7,1.4,0.7c1-0.2,1.9-1.9,2.7-3.4l0.1-0.2c0.7-1.4,1.9-2.5,3.2-2.9
						c1.1-0.3,2.2-0.1,3.2,0.5c0.8,0.5,1.2,1.1,1.2,2c0.1,0.9-0.3,1.8-0.7,2.4c-0.4,0.7-0.9,1.3-1.4,1.7c-0.2,0.2-0.6,0.4-0.9,0.6
						c-1,0.6-2.3,1.5-2.4,2.4c0,0.3,0.1,0.6,0.3,0.9c0.6,0.7,1.5,0.9,2.4,1c1.1,0.2,2.3,0.3,2.7,1.7c0.4,1.2,0,2-0.4,2.4
						c-0.7,0.7-2,1-3.1,0.6c-0.8-0.3-1.6-0.9-2.3-1.6c-0.8-0.7-1.6-1.4-2.2-1.4c-0.4,0-0.6,0.8-0.9,1.7c-0.4,1.2-0.9,3-2.3,4
						C99.3,61.4,98.7,61.6,98.1,61.6z M93,46.7l0.2,0.1c-0.4,0.6-0.4,1.2-0.2,1.8c0.4,1,1.5,1.8,2.4,2.1c1.7,0.5,3.5,1.1,3.3,2.3
						c-0.1,0.7-0.7,1.3-1.3,2.1c-0.9,1-1.9,2.1-1.8,3.6c0.1,1.5,1,2.1,1.5,2.3c0.8,0.4,1.8,0.3,2.4-0.2c1.3-1,1.8-2.6,2.2-3.8
						c0.3-1.1,0.6-1.9,1.2-1.9c0.7-0.1,1.6,0.7,2.5,1.4c0.7,0.6,1.5,1.3,2.2,1.5c0.9,0.3,2.1,0.1,2.6-0.5c0.5-0.5,0.6-1.2,0.3-2
						c-0.4-1.2-1.3-1.3-2.4-1.5c-0.9-0.1-1.9-0.3-2.7-1.1c-0.3-0.4-0.5-0.8-0.4-1.2c0.1-1.1,1.5-2,2.6-2.7c0.3-0.2,0.6-0.4,0.9-0.6
						c0.7-0.6,2-2.3,1.9-3.8c0-0.7-0.4-1.3-1-1.7c-0.9-0.6-1.9-0.7-2.8-0.5c-1.2,0.3-2.3,1.3-3,2.7l-0.1,0.2c-0.8,1.6-1.7,3.4-3,3.6
						c-0.6,0.1-1.1-0.2-1.7-0.8c-1.4-1.5-2.9-2.4-4-2.3c-0.6,0.1-1.2,0.4-1.6,1.1L93,46.7z"/>
				</g>
			</g>
		</g>
		<g>
			<g>
				<path class="st10" d="M104.6,24.7c1.5-2.2,3.3-1.9,4.5-2.1c1.2-0.1,1.5-1.1,1.5-1.7c0-0.6,0.3-2.8,2.3-3.4
					c1.9-0.6,3,0.1,3.4,0.6c0.3,0.5,0.8,1.3,1.3,1.2c0.4-0.1,2-1.5,3.7-2s3.8-0.1,4.7,1.2s1.2,2.4,1.4,3.1c0.3,0.7,1.4,1.2,2.3,0.9
					c0.9-0.2,3.1-0.5,4.1,0.3c1,0.9,1.1,2.2,1.1,3.1c0,0.9,0.8,2.1,1.7,2c0.9-0.1,3.1-0.8,4.2-0.1c1.1,0.7,1.9,1.9,1.4,3.4
					c-0.4,1.5-1.4,2.1-1.1,2.8c0.3,0.6,2.4,1.1,2.7,2.4c0.3,1.3,0.7,3.5-1.8,4.5c-2.5,1.1-3.9,0.2-4.7-0.2c-0.8-0.4-2.1-1-2.6-0.6
					c-0.5,0.4-0.2,1.5-0.6,2.6c-0.4,1.1-2.1,2.6-3.5,2.9c-1.4,0.3-17.2,1.4-17.2,1.4s-1.5,1.2-3.2,0.9s-1.6-1.9-2.4-1.9
					c-0.8,0-2.1,1.4-4.1,1c-2-0.5-3-1.8-3.3-3.2c-0.2-1.4,0-2.1-0.8-2.8c-0.8-0.7-2.5-1.8-2.4-4.6c0.1-2.8,1.9-4,3.4-4.3
					c1.5-0.3,3-0.7,3-2.1C103.8,28.7,103.3,26.7,104.6,24.7z"/>
			</g>
			<g>
				<path class="st11" d="M157.3,66.9c0,1.4-0.1,2.9-1.4,3.3c-1.2,0.4-5.3,0.7-7.2,0.3c-1.9-0.4-4.3-0.9-4.3-0.9l-11-10.5l-0.8,20.1
					c0,0-11.5,4.7-14.1,4.7c-2.6,0-4.4-1.4-4.4-1.4s-0.4,1.2-1.3,2c-0.9,0.8-1.5,0.7-1.5,0.7l-9.1-6.7c0.3-3.3,0.1-16,2.5-22
					c2-5.1,6.9-8.9,9.4-10.3c0.3,2,1,4.6,1.6,6.2c0.7,1.7,1.6,3.9,2.2,3.9c0.6,0,2.3-3,3.5-5.6c0.9-2,2.3-5.9,2.9-7.7
					c0.9,0.2,2.7,0.1,4,0.4c1.7,0.3,9.9,1.6,17,7.1c7.1,5.5,10.3,12.3,10.9,14.6C156.1,65.1,157.3,65.5,157.3,66.9z"/>
			</g>
			<g>
				<path class="st12" d="M123.1,31.3c-1,0.9-2.5,1-2.5,1s1.1,4.3,1.6,5.9c0.5,1.6,0.9,4.1,1.6,4.5c0.1,0.1,0.3,0.1,0.5,0.2
					c-0.6,1.8-2,5.7-2.9,7.7c-1.2,2.6-2.9,5.6-3.5,5.6c-0.6,0-1.5-2.2-2.2-3.9c-0.6-1.6-1.3-4.2-1.6-6.2c0.5-0.2,0.8-0.4,1.1-0.5
					c0,0,0.5-0.4-0.1-2.8c-0.6-2.4-1.5-7.2-1.5-7.2s-2.5-0.3-3-2.3c-0.5-2-0.3-4.9,0.7-7c0.9-2.1,2.1-3.2,2.1-3.2s1.3-0.4,1.9-0.8
					c0.7-0.4,1.3-0.9,1.3-0.9s1.1,1.7,2.2,2.7c1.1,0.9,1.6,1.4,1.9,2.2c0.3,0.8,0.3,2.2,0.3,2.2s0.7-1.4,1.6-1.8
					c0.9-0.4,2.1,0.3,2.1,1.2C124.5,28.9,124.1,30.4,123.1,31.3z"/>
			</g>
			<g>
				<path class="st12" d="M144.4,69.6c0,0-20.3,10.1-20.9,10.4s-2.9,0.9-4.4,1.6c-1.5,0.7-3.7,0.4-4.3,1.4c-0.3,0.4-0.2,1.7,1,2
					c0.8,0.2,3.7-0.3,3.7-0.3s-2.8,1.3-3.5,1.4c-0.2,0-2.1-1.1-3-1s-1.2,1.1-1,1.7c0.2,0.7,1,1.4,1,1.4s-0.4,0.4,0,1.4
					c0.3,1,0.9,1.3,0.9,1.3s0,1.2,0.8,1.6c0.7,0.4,2.2,1,4.6,0.5c2.5-0.4,6.5-2.6,8.4-3.4c1.9-0.8,6.8-2.9,8.5-3.5
					c1.7-0.5,11.2-3.8,15-6.6c3.8-2.8,4.8-7.6,4.9-9.5c0,0-2.1,0.4-6.2,0.2C145.7,70.1,144.4,69.6,144.4,69.6z"/>
			</g>
			<g>
				<path class="st13" d="M116.9,89.4c-0.1,0-0.2,0-0.3,0c-1.2,0-2.3-0.1-3.7-0.9c0,0-0.1-0.1,0-0.1c0,0,0.1-0.1,0.1,0
					c1.4,0.8,2.5,0.9,3.6,0.9c1.4,0.1,2.3-0.3,2.3-0.3c0.1,0,0.1,0,0.1,0.1c0,0.1,0,0.1-0.1,0.1C119,89,118.1,89.4,116.9,89.4z"/>
			</g>
			<g>
				<path class="st13" d="M117.5,91.7c-1,0-2.4-0.1-3.7-0.6c-0.1,0-0.1-0.1-0.1-0.1c0-0.1,0.1-0.1,0.1-0.1c1.8,0.6,3.7,0.6,4.5,0.6
					c0.9-0.1,1.8-0.5,1.9-0.5c0.1,0,0.1,0,0.1,0.1c0,0.1,0,0.1-0.1,0.1c0,0-1,0.4-1.9,0.5C118.2,91.7,117.8,91.7,117.5,91.7z"/>
			</g>
			<g>
				<path class="st13" d="M119.4,84.9C119.3,84.9,119.3,84.8,119.4,84.9c-0.1-0.1-0.1-0.2,0-0.2c1.1-0.5,3.4-1.5,3.8-1.7
					c0,0,0.1,0,0.1,0c0,0,0,0.1,0,0.1C122.8,83.4,120.6,84.4,119.4,84.9C119.4,84.8,119.4,84.9,119.4,84.9z"/>
			</g>
			<g>
				<path class="st13" d="M114.8,83.3c-0.1,0-0.1,0-0.2,0c-0.1,0-0.1,0-0.1-0.1c0-0.1,0-0.1,0.1-0.1c0,0,0,0,0,0
					c2,0,3.4-0.4,3.4-1.1c0-0.1,0-0.1,0.1-0.1c0.1,0,0.1,0,0.1,0.1C118.2,82.8,116.9,83.3,114.8,83.3z"/>
			</g>
			<g>
				<path class="st13" d="M114.9,89C114.9,89,114.9,89,114.9,89c-0.1,0-0.1-0.1-0.1-0.1c0.1-1.2-1.3-2.5-2.7-2.9
					c-0.1,0-0.1-0.1-0.1-0.1c0-0.1,0.1-0.1,0.1-0.1c0.7,0.2,1.4,0.7,2,1.2c0.6,0.6,0.9,1.3,0.8,1.9C115,88.9,114.9,89,114.9,89z"/>
			</g>
			<g>
				<path class="st13" d="M116.1,91.5c-0.1,0-0.1,0-0.1-0.1c-0.1-1-1.6-1.9-3.1-2.3c-0.1,0-0.1-0.1-0.1-0.1c0-0.1,0.1-0.1,0.1-0.1
					c1.9,0.5,3.2,1.5,3.3,2.5C116.3,91.5,116.2,91.5,116.1,91.5C116.2,91.5,116.2,91.5,116.1,91.5z"/>
			</g>
			<g>
				<path class="st13" d="M117,93.3c-0.1,0-0.1,0-0.1-0.1c0-0.5-2.2-1.4-3-1.5c-0.1,0-0.1-0.1-0.1-0.1c0-0.1,0.1-0.1,0.1-0.1
					c0.4,0.1,1.2,0.3,1.9,0.6c0.6,0.3,1.3,0.7,1.3,1.1C117.1,93.2,117,93.3,117,93.3z"/>
			</g>
			<g>
				<path class="st14" d="M114.1,82.5C114.1,82.5,114.1,82.4,114.1,82.5l-2.5-14.6c-0.2-0.1-1-0.2-1.9-0.5c-1.3-0.5-2.1-1-2.2-1.5
					c-0.1-0.5,0.3-1.4,1.3-2.6c0.6-0.8,1.3-1.4,1.4-1.6l-1.4-4.5c0-0.1,0-0.1,0.1-0.1c0.1,0,0.1,0,0.1,0.1l1.4,4.6c0,0,0,0.1,0,0.1
					c-0.8,0.8-3,3.1-2.7,4c0.1,0.4,0.8,0.9,2.1,1.4c1,0.3,1.9,0.6,1.9,0.6c0,0,0.1,0,0.1,0.1l2.4,14.5
					C114.3,82.4,114.2,82.5,114.1,82.5C114.2,82.5,114.1,82.5,114.1,82.5z"/>
			</g>
			<g>
				<path class="st14" d="M133.4,59.1C133.4,59.1,133.4,59.1,133.4,59.1c-3.6-3.2-5.7-5.2-6.4-6c0,0,0-0.1,0-0.1c0,0,0.1,0,0.1,0
					c0.7,0.7,2.8,2.7,6.3,5.9C133.5,59,133.5,59.1,133.4,59.1C133.5,59.1,133.5,59.1,133.4,59.1z"/>
			</g>
			<g>
				<path class="st14" d="M124.5,64.7C124.5,64.7,124.5,64.7,124.5,64.7c-0.5,0-4.5-0.2-4.8-1c-0.3-0.9,1.5-3.3,2.3-4
					c0,0,0.1,0,0.1,0c0,0,0,0.1,0,0.1c-0.9,0.8-2.5,3-2.2,3.8c0.2,0.6,2.9,0.8,4.6,0.9c0.1,0,0.1,0,0.1,0.1
					C124.6,64.7,124.6,64.7,124.5,64.7z"/>
			</g>
			<g>
				<path class="st14" d="M113.5,83.1c-0.1,0-0.1,0-0.1-0.1c0-1.2-0.7-3.8-2.6-5.7c-2-2-5.5-2.7-7.9-2.2c-0.1,0-0.1,0-0.1-0.1
					c0-0.1,0-0.1,0.1-0.1c2.4-0.4,6.1,0.3,8.1,2.3c2,2,2.7,4.6,2.7,5.8C113.6,83,113.6,83.1,113.5,83.1z"/>
			</g>
			<g>
				<path class="st14" d="M144.2,68.9c-0.1,0-0.1,0-0.1-0.1s0-0.1,0.1-0.1c2.9,0,5.7-0.4,7.8-1.2c2.4-0.8,4-2.5,4-2.5
					c0,0,0.1,0,0.1,0c0,0,0,0.1,0,0.1c0,0-1.7,1.7-4.1,2.6C149.9,68.4,147.1,68.9,144.2,68.9z"/>
			</g>
			<g>
				<path class="st14" d="M117,56.2C117,56.2,117,56.2,117,56.2c-0.8-0.7-3.5-4.3-3.6-4.5c0,0,0-0.1,0-0.1l0.7-1.3l-2.2,0.2
					c-0.1,0-0.1,0-0.1-0.1c0,0-0.2-1.1,0.2-2.8c0-0.1,0.1-0.1,0.1-0.1c0.1,0,0.1,0.1,0.1,0.1c-0.4,1.4-0.3,2.3-0.2,2.6l2.3-0.2
					c0,0,0.1,0,0.1,0c0,0,0,0.1,0,0.1l-0.8,1.4c0.3,0.5,2.7,3.8,3.4,4.4C117.1,56.1,117.1,56.1,117,56.2
					C117.1,56.2,117,56.2,117,56.2z"/>
			</g>
			<g>
				<path class="st14" d="M119,56C119,56,118.9,55.9,119,56c-0.1-0.1-0.1-0.1-0.1-0.2c0,0,2.4-2.4,3.5-4c1-1.5,1.9-3.1,2-3.5
					l-1.1-1.2c0,0,0-0.1,0-0.1c0,0,0-0.1,0.1-0.1l2.8-0.3c0.1-0.3,0.4-1.9,0.1-3.3c0-0.1,0-0.1,0.1-0.1c0.1,0,0.1,0,0.1,0.1
					c0.3,1.6-0.1,3.5-0.1,3.5c0,0,0,0.1-0.1,0.1l-2.7,0.3l1,1.1c0,0,0,0.1,0,0.1c0,0-1,1.9-2.1,3.5C121.5,53.5,119.1,55.9,119,56
					C119.1,55.9,119,56,119,56z M126.3,46.7L126.3,46.7L126.3,46.7z"/>
			</g>
			<g>
				<g>
					<path class="st15" d="M127.4,24.3c-0.2,0-2.3-0.1-2.9-2.2c-0.3-0.9-0.9-1.6-1.6-1.9c-0.7-0.3-1.5-0.3-2.2,0.1c0,0-0.1,0-0.1,0
						c0,0,0-0.1,0-0.1c0.8-0.4,1.7-0.4,2.4-0.1c0.6,0.2,1.3,0.8,1.7,2c0.7,2.1,2.7,2,2.8,2c0.1,0,0.1,0,0.1,0.1
						C127.5,24.3,127.5,24.3,127.4,24.3C127.4,24.3,127.4,24.3,127.4,24.3z"/>
				</g>
				<g>
					<path class="st15" d="M135.3,30.6c-0.5,0-1.1-0.1-1.6-0.4c-0.6-0.3-0.9-0.7-0.9-1.2c-0.1-1.3-0.8-3.1-1.9-3.1
						c-0.1,0-0.1,0-0.1-0.1s0-0.1,0.1-0.1c1.3,0,2,2,2.1,3.3c0,0.6,0.5,0.9,0.8,1.1c0.8,0.4,1.9,0.5,2.5,0.1c0,0,0.1,0,0.1,0
						c0,0,0,0.1,0,0.1C136.1,30.5,135.7,30.6,135.3,30.6z"/>
				</g>
				<g>
					<path class="st15" d="M131.5,34.9c-0.2,0-0.5,0-0.7-0.1c-0.8-0.2-1.4-0.6-1.6-1.2c-0.3-0.8-1-1.4-1.9-1.8
						c-0.7-0.3-1.4-0.3-1.9-0.1c-0.1,0-0.1,0-0.1-0.1c0-0.1,0-0.1,0.1-0.1c0.6-0.3,1.3-0.2,2.1,0.1c0.9,0.4,1.7,1.1,2,1.9
						c0.5,1.3,2.5,1.1,2.5,1.1c0.1,0,0.1,0,0.1,0.1c0,0.1,0,0.1-0.1,0.1C131.9,34.9,131.8,34.9,131.5,34.9z"/>
				</g>
				<g>
					<path class="st15" d="M138.9,38.1C138.9,38.1,138.9,38.1,138.9,38.1c-0.1,0-1.2-0.3-2-1.1c-0.8-0.8-0.8-3,0.1-4.1
						c0,0,0.1,0,0.1,0c0,0,0,0.1,0,0.1c-0.8,1-0.9,3.1-0.1,3.8c0.8,0.7,1.9,1.1,1.9,1.1C139,37.9,139,38,138.9,38.1
						C139,38.1,139,38.1,138.9,38.1z"/>
				</g>
				<g>
					<path class="st15" d="M130.2,41.9c-0.3,0-0.6-0.1-0.9-0.2c-0.7-0.3-1.2-0.8-1.3-1.5c-0.1-0.8-0.7-1.3-1.2-1.6
						c-0.7-0.5-1.7-0.7-2.3-0.6c-0.1,0-0.1,0-0.1-0.1s0-0.1,0.1-0.1c0.7-0.2,1.7,0.1,2.4,0.6c0.5,0.3,1.1,0.9,1.3,1.8
						c0.2,0.9,0.8,1.2,1.2,1.4c0.7,0.3,1.4,0.2,1.6-0.1c0,0,0.1,0,0.1,0c0,0,0,0.1,0,0.1C130.9,41.8,130.5,41.9,130.2,41.9z"/>
				</g>
				<g>
					<path class="st15" d="M105.7,31.9C105.6,31.9,105.6,31.9,105.7,31.9c-0.1,0-0.1-0.1-0.1-0.1c0.4-0.7,0.3-1.3,0.2-2.1
						c-0.1-0.6-0.2-1.2-0.1-1.9c0.1-1,0.8-1.7,1.4-2.1c0.6-0.4,1.4-0.8,2.1-0.9c0.1,0,0.1,0,0.1,0.1c0,0.1,0,0.1-0.1,0.1
						c-1.2,0.2-3.1,1.2-3.3,2.7c-0.1,0.7,0,1.3,0.1,1.9C106.1,30.4,106.2,31.1,105.7,31.9C105.7,31.9,105.7,31.9,105.7,31.9z"/>
				</g>
				<g>
					<path class="st15" d="M112,21.7C112,21.7,112,21.7,112,21.7c-0.1,0-0.1-0.1-0.1-0.1c0.3-1,0.9-1.6,1.7-1.9c0.7-0.2,1.4,0,2,0.5
						c0,0,0,0.1,0,0.1c0,0-0.1,0-0.1,0c-0.5-0.5-1.1-0.7-1.8-0.5C113,20.1,112.4,20.8,112,21.7C112.1,21.7,112.1,21.7,112,21.7z"/>
				</g>
				<g>
					<path class="st15" d="M104,41.2C103.9,41.2,103.9,41.1,104,41.2c-0.2-0.4-0.2-0.8-0.2-1.1c0-0.6,0-1.2-0.5-1.8
						c-0.2-0.3-0.6-0.5-1-0.8c-0.8-0.5-1.6-1-0.9-2.2c0,0,0.1-0.1,0.1,0c0,0,0.1,0.1,0,0.1c-0.6,1.1,0.1,1.5,0.8,1.9
						c0.4,0.2,0.8,0.5,1,0.8c0.5,0.7,0.5,1.3,0.5,1.9c0,0.3,0,0.7,0.1,1C104.1,41.1,104.1,41.1,104,41.2C104,41.2,104,41.2,104,41.2
						z"/>
				</g>
				<g>
					<path class="st15" d="M111.2,45.5C111.1,45.5,111.1,45.5,111.2,45.5c-0.1-0.1-0.1-0.1-0.1-0.2c0.3-0.3,0.6-1.1,0.5-1.8
						c-0.1-0.3-0.3-0.8-0.9-1c-0.7-0.3-1.2-0.8-1.4-1.5c-0.2-0.6-0.2-1.2,0.1-1.7c0,0,0.1-0.1,0.1,0c0,0,0.1,0.1,0,0.1
						c-0.2,0.4-0.3,1-0.1,1.5c0.2,0.6,0.7,1.1,1.3,1.4c0.7,0.3,0.9,0.8,1,1.2C111.9,44.2,111.7,45,111.2,45.5
						C111.2,45.5,111.2,45.5,111.2,45.5z"/>
				</g>
			</g>
			<g>
				<path class="st13" d="M114.4,35.7c-0.2,0-0.5,0-0.7,0c-0.1,0-0.1-0.1-0.1-0.1c0-0.1,0.1-0.1,0.1-0.1c1.5,0.2,3.2-0.4,4.1-1
					c0,0,0.1,0,0.1,0c0,0,0,0.1,0,0.1C117.1,35.2,115.7,35.7,114.4,35.7z"/>
			</g>
			<g>
				<path class="st13" d="M121.4,30.7C121.3,30.7,121.3,30.7,121.4,30.7c-0.1,0-0.1-0.1-0.1-0.1c0.4-0.7,1.5-2.4,1.9-2.7
					c0,0,0.1,0,0.1,0c0,0,0,0.1,0,0.1C123,28.3,121.8,29.9,121.4,30.7C121.4,30.7,121.4,30.7,121.4,30.7z"/>
			</g>
			<g>
				<path class="st13" d="M114.4,30C114.4,30,114.4,30,114.4,30c-0.3,0-1.2-0.2-1.1-0.6c0-0.4,1-2,1.5-2.6c0,0,0.1-0.1,0.1,0
					c0,0,0.1,0.1,0,0.1c-0.5,0.6-1.4,2.2-1.5,2.5c0,0.1,0.5,0.3,0.9,0.4C114.4,29.8,114.5,29.9,114.4,30C114.5,30,114.4,30,114.4,30
					z"/>
			</g>
			<g>
				<path class="st13" d="M114.3,31.6c-1.5,0-2.5-0.5-2.7-0.7c-0.1-0.1-0.1-0.2,0-0.3c0.1-0.1,0.2-0.1,0.3,0
					c0.3,0.3,1.8,0.9,3.9,0.5c0.1,0,0.2,0,0.2,0.2c0,0.1,0,0.2-0.2,0.2C115.3,31.6,114.8,31.6,114.3,31.6z"/>
			</g>
			<g>
				<path class="st16" d="M114.2,25.6c-0.1,0-0.1,0-0.2-0.1c-0.3-0.4-1.3-0.6-2.1-0.3c-0.1,0-0.2,0-0.3-0.1c0-0.1,0-0.2,0.1-0.3
					c0.7-0.3,2-0.2,2.5,0.4c0.1,0.1,0.1,0.2,0,0.3C114.3,25.6,114.2,25.6,114.2,25.6z"/>
			</g>
			<g>
				<path class="st16" d="M119.1,26.1c-0.1,0-0.1,0-0.2-0.1c-0.4-0.5-1.8-0.7-2.8-0.2c-0.1,0-0.2,0-0.3-0.1c0-0.1,0-0.2,0.1-0.3
					c0.4-0.2,1.1-0.3,1.7-0.3c0.7,0,1.3,0.2,1.6,0.6c0.1,0.1,0.1,0.2,0,0.3C119.2,26.1,119.1,26.1,119.1,26.1z"/>
			</g>
			<g>
				<g>
					<g>
						<g>
							<path class="st17" d="M112.5,27.8c-0.2,0-0.3-0.2-0.2-0.5c0.1-0.3,0.2-0.4,0.4-0.3c0.2,0,0.3,0.2,0.2,0.5
								C112.8,27.7,112.7,27.8,112.5,27.8z"/>
						</g>
					</g>
				</g>
			</g>
			<g>
				<g>
					<g>
						<g>
							<path class="st17" d="M117.6,28.2c-0.2,0-0.3-0.2-0.2-0.5c0.1-0.3,0.2-0.4,0.4-0.3c0.2,0,0.3,0.2,0.2,0.5
								C117.9,28.2,117.8,28.3,117.6,28.2z"/>
						</g>
					</g>
				</g>
			</g>
		</g>
		<g>
			<g>
				<path class="st12" d="M76.7,85.5l2.3,1.1c0,0,1.5-1.6,3.1-1.4c1.6,0.1,3.7,0.9,3.7,0.9l16.8-8.6c0,0,4.4,0,6.1,2.5
					c1.7,2.4,2.3,4,2.6,5c0,0-4,3.5-7,5.5c-2.9,2-6.8,4.2-6.8,4.2s0.1,1.4-0.3,2.4S95.7,99,95.7,99s-0.1,1.3-1.3,2.1
					s-2.4,1.1-2.4,1.1s-0.1,1.1-0.9,1.5c-0.8,0.5-2,0.4-2,0.4s-0.9,1.5-2.2,2c-1.3,0.5-2.8,0.2-3.4-0.3c0,0-1.2,0.7-2.5,0.1
					c-1.3-0.6-1.4-1.3-1.4-1.3S77.9,105,77,104c-0.9-1-0.9-2.6-0.9-2.6L69.4,98L76.7,85.5z"/>
			</g>
			<g>
				<path class="st13" d="M79.3,99.5c-0.7,0-1.4-0.5-1.7-1.4c-0.4-1-0.4-3-0.1-4.1c0.5-2.2,2.1-4.4,3.2-5.3c0.9-0.7,2.1-1.6,5.1-2.7
					c0.1,0,0.1,0,0.1,0.1s0,0.1-0.1,0.1c-2.9,1.1-4.1,2-5,2.6c-1.1,0.9-2.6,3-3.2,5.2c-0.3,1.1-0.3,3,0.1,4c0.4,1,1.2,1.5,2,1.2
					c0.8-0.3,1.5-1.1,1.8-2.3c0.3-1.3,0.5-2.2,0.5-2.2c0,0,0,0,0-0.1l4.1-2.4c0,0,0.1,0,0.1,0c0,0,3.2,2,5.3,2.5
					c2.2,0.5,3,0.5,3.9,0.4c0.8-0.1,1.9-0.6,1.9-0.6c0.1,0,0.1,0,0.1,0.1c0,0.1,0,0.1-0.1,0.1c0,0-1.1,0.4-2,0.6
					c-0.9,0.2-1.8,0.1-4-0.4c-2.1-0.5-4.9-2.2-5.3-2.5l-4,2.3c0,0.2-0.3,1-0.5,2.2c-0.3,1.2-1,2.2-1.9,2.5
					C79.7,99.4,79.5,99.5,79.3,99.5z"/>
			</g>
			<g>
				<path class="st13" d="M79.1,99.4C79.1,99.4,79.1,99.4,79.1,99.4c-0.1-0.1-0.1-0.1-0.1-0.2c0.3-0.3,0.7-1.3,0.5-2.5
					c-0.2-1.1-0.9-1.7-1.9-1.8c-0.1,0-0.1-0.1-0.1-0.1c0-0.1,0.1-0.1,0.1-0.1c1.1,0.1,1.8,0.7,2.1,1.9c0.1,0.7,0.1,1.2,0,1.6
					C79.6,98.7,79.4,99.1,79.1,99.4C79.2,99.4,79.2,99.4,79.1,99.4z"/>
			</g>
			<g>
				<path class="st13" d="M89.1,104.2C89.1,104.2,89,104.2,89.1,104.2c-0.1,0-0.1-0.1-0.1-0.2c0.4-0.6,0.7-1.6,0.6-2.3
					c-0.1-0.8-0.9-1.4-1.7-1.3c-0.9,0-1.4,1.2-1.4,1.2c0,0-0.1,0.1-0.1,0.1c0,0-0.1-0.1-0.1-0.1c0.1-0.7-0.1-1.9-1-2.2
					c-0.8-0.3-1.6,0.5-1.6,0.5c0,0-0.1,0-0.1,0c0,0-0.1,0-0.1-0.1c0,0,0-0.5-0.3-1c-0.3-0.5-1-0.7-1.6-0.6c-0.5,0.1-0.9,0.9-1.2,1.6
					c-0.1,0.2-0.2,0.5-0.4,0.7c-0.5,0.9-1.7,2-1.7,2c0,0-0.1,0-0.1,0c0,0-1.3-0.7-2.2-1.1c0,0-0.1-0.1,0-0.1c0,0,0.1-0.1,0.1,0
					c0.8,0.4,1.9,0.9,2.1,1.1c0.2-0.2,1.2-1.1,1.6-1.9c0.1-0.2,0.2-0.5,0.4-0.7c0.4-0.8,0.7-1.6,1.3-1.7c0.7-0.1,1.5,0.1,1.8,0.7
					c0.2,0.3,0.3,0.7,0.3,0.9c0.3-0.2,0.9-0.7,1.7-0.4c0.6,0.2,0.8,0.7,1,1c0.1,0.3,0.2,0.6,0.2,0.9c0.3-0.4,0.7-0.9,1.3-0.9
					c1,0,1.8,0.6,1.9,1.5C89.9,102.5,89.5,103.5,89.1,104.2C89.2,104.2,89.1,104.2,89.1,104.2z"/>
			</g>
			<g>
				<path class="st13" d="M94.3,99.3c-1.3,0-2.9-0.4-3.2-0.5c-0.1,0-0.1-0.1-0.1-0.1c0-0.1,0.1-0.1,0.1-0.1c1.3,0.3,3.6,0.7,4.4,0.2
					c0,0,0.1,0,0.1,0c0,0,0,0.1,0,0.1C95.4,99.2,94.9,99.3,94.3,99.3z"/>
			</g>
			<g>
				<path class="st13" d="M91.7,102.3c-1.1,0-2-0.5-2.1-0.5c0,0-0.1-0.1,0-0.1c0,0,0.1-0.1,0.1,0c0,0,1.1,0.6,2.3,0.5
					c0.1,0,0.1,0,0.1,0.1c0,0.1,0,0.1-0.1,0.1C91.9,102.3,91.8,102.3,91.7,102.3z"/>
			</g>
			<g>
				<path class="st13" d="M83.5,105.9C83.4,105.9,83.4,105.9,83.5,105.9c-0.1-0.1-0.1-0.2-0.1-0.2c1.4-0.8,2.4-2.2,2.9-4.2
					c0-0.1,0.1-0.1,0.1-0.1c0.1,0,0.1,0.1,0.1,0.1C86,103.6,85,105.1,83.5,105.9C83.5,105.9,83.5,105.9,83.5,105.9z"/>
			</g>
			<g>
				<path class="st13" d="M79.6,104.7C79.6,104.7,79.5,104.7,79.6,104.7c-0.1-0.1-0.1-0.2,0-0.2c1.4-0.3,2.5-1,3.1-2.2
					c0.4-0.7,0.7-1.6,0.8-2.6c0-0.1,0.1-0.1,0.1-0.1c0.1,0,0.1,0.1,0.1,0.1C83.4,102.5,82,104.2,79.6,104.7
					C79.6,104.7,79.6,104.7,79.6,104.7z"/>
			</g>
			<g>
				<path class="st13" d="M77,103.1C76.9,103.1,76.9,103,77,103.1c-0.1-0.1-0.1-0.2,0-0.2c0,0,0.6-0.1,1.3-0.4c0.1,0,0.1,0,0.1,0.1
					c0,0.1,0,0.1-0.1,0.1C77.6,102.9,77,103.1,77,103.1C77,103.1,77,103.1,77,103.1z"/>
			</g>
			<g>
				<path class="st13" d="M83,101.3c-0.4,0-1.2-0.1-1.7-0.7c-0.6-0.7-0.2-1.9,0.4-2.5c0,0,0.1,0,0.1,0c0,0,0,0.1,0,0.1
					c-0.6,0.6-0.9,1.6-0.4,2.3c0.5,0.7,1.5,0.7,1.7,0.7c0.1,0,0.1,0,0.1,0.1c0,0.1,0,0.1-0.1,0.1C83.2,101.3,83.1,101.3,83,101.3z"
					/>
			</g>
			<g>
				<path class="st13" d="M85.9,102.7C85.9,102.7,85.9,102.7,85.9,102.7c0,0-1,0-1.6-0.8c-0.3-0.3-0.4-0.9-0.2-1.4
					c0.1-0.5,0.4-1,0.8-1.3c0,0,0.1,0,0.1,0c0,0,0,0.1,0,0.1c-0.3,0.2-0.6,0.7-0.7,1.2c-0.1,0.5,0,1,0.2,1.3
					c0.5,0.6,1.4,0.7,1.4,0.7c0.1,0,0.1,0,0.1,0.1C86,102.6,86,102.7,85.9,102.7z"/>
			</g>
			<g>
				<path class="st13" d="M88.7,103.3c-0.4,0-0.8-0.1-1.2-0.3c-0.7-0.6-0.7-1.6-0.1-2.6c0,0,0.1-0.1,0.1,0c0,0,0.1,0.1,0,0.1
					c-0.6,1-0.6,1.9,0,2.4c0.6,0.5,1.6,0.2,1.7,0.2c0.1,0,0.1,0,0.1,0.1c0,0.1,0,0.1-0.1,0.1C89.4,103.2,89.1,103.3,88.7,103.3z"/>
			</g>
		</g>
		<g>
			<g>
				<path class="st18" d="M50.9,36c-0.6-0.2-1.8,0.7-2.2,1.2c-0.4,0.5-1.2,0.9-1.2,0.9s-5.1-0.9-8.8,3C34.9,45,27,62.9,25.9,65.3
					c-1.2,2.4-6.2,13.3-6.2,13.3s3.7,3.7,10.1,6.5c6.4,2.8,15.1,4.3,15.1,4.3l1.1-1.9c0,0,1.1,3.9,6.2,4.9c5.1,0.9,6.9-0.4,6.9-0.4
					s2.7,1.7,5.3,3.3c2.6,1.6,5.1,2.8,5.1,2.8s4.3-1.9,5.9-5.4c1.6-3.6,1.4-7,1.4-7l-8-4.9c0,0,9.1-13.7,10.2-15.3
					c1.2-1.6-9.7-6.2-10.1-6.5c-0.4-0.2-8.5,13-8.5,13l-0.4-1.5c0,0,4.8-9.1,5.8-14.1c1-5-1.9-9.6-3.8-11.4
					c-0.8-0.7-1.7-1.4-2.9-2.3c-0.6-1.8-1.8-3.6-1.8-3.6L50.9,36z"/>
			</g>
			<g>
				<g>
					<path class="st11" d="M60,16.3c0.5,0,0.8-0.6,1.7-1.1c0.9-0.5,1.8-0.3,2.2,0c0.6,0.5,0.5,1,0.7,1.4c0.2,0.4,0.7,0.2,1.2,0.2
						c0.5,0,1.8,0.7,1.8,2c0,1.3-0.6,2.2-1.3,2.9c-0.8,0.7-1,1.1-0.8,1.5c0.2,0.4,1.6,2.2,0.7,3.2c-0.9,1-2.6,0.9-2.6,0.9l-9.5,3.3
						c0,0-1.2,0.6-2,0c-0.8-0.6-0.3-1.6-0.8-2.3c-0.3-0.4-1.1,0-2.2,0.2c-1.9,0.4-3.4-1.2-2.7-3.1c0.7-2,2.2-1.5,2.7-2.3
						c0.2-0.4-0.5-1.6-0.1-2.7c0.4-1.1,1.3-2,2.5-1.8c1,0.1,1.8,0.3,2.3-0.1c0.5-0.5-0.4-1.5,0.2-2.7s2.3-2,3.6-1.3
						C59,15.2,59.2,16.3,60,16.3z"/>
				</g>
				<g>
					<path class="st12" d="M55.7,25c0,0-0.2-1.7-2.1-1.7c-1.9,0-1.6,2.9-0.4,3.5c1.2,0.7,1.5,0.7,1.5,0.7s-1.4,3.3-2.5,5.5
						c-1.1,2.1-1.8,3.5-1.8,3.5s1.9,2.9,3,4.2s2.4,2.5,2.4,2.5s0.7-0.6,1.2-1.8c0,0,0.4-1.4,1.6-4c1.2-2.7,2.9-6.1,2.9-6.1
						s2.3-0.3,3-3.3c0.8-3,0.2-5.3-0.2-6.7c-0.6-2.1-2.1-2.4-2.1-2.4s-1.1,1.1-3.4,0c0,0-1.2,0.6-1.4,1.5c-0.2,1,0.2,1.2-0.4,2.7
						c-0.7,1.4-1,2.3-1,2.3L55.7,25z"/>
				</g>
				<g>
					<g>
						<g>
							<g>
								<path class="st17" d="M59.4,23.5c-0.2,0-0.3-0.1-0.3-0.4c0-0.2,0.1-0.4,0.3-0.4c0.2,0,0.3,0.1,0.3,0.4
									C59.6,23.4,59.6,23.5,59.4,23.5z"/>
							</g>
						</g>
					</g>
				</g>
				<g>
					<g>
						<g>
							<g>
								<path class="st17" d="M63.8,23.5c-0.2,0-0.3-0.1-0.3-0.4c0-0.2,0.1-0.4,0.3-0.4c0.2,0,0.3,0.1,0.3,0.4
									C64,23.3,63.9,23.5,63.8,23.5z"/>
							</g>
						</g>
					</g>
				</g>
				<g>
					<path class="st11" d="M58.4,22.1c-0.1,0-0.1,0-0.2-0.1c-0.1-0.1-0.1-0.2,0-0.3c0.9-0.7,2-0.4,2.4-0.2c0.1,0.1,0.1,0.2,0.1,0.3
						s-0.2,0.1-0.3,0.1c-0.3-0.2-1.3-0.4-2,0.2C58.4,22,58.4,22.1,58.4,22.1z"/>
				</g>
				<g>
					<path class="st11" d="M62.8,21.8c-0.1,0-0.1,0-0.2-0.1c-0.1-0.1,0-0.2,0.1-0.3c0.7-0.4,1.6-0.3,2,0c0.1,0.1,0.1,0.2,0,0.3
						c-0.1,0.1-0.2,0.1-0.3,0C64.1,21.5,63.4,21.5,62.8,21.8C62.8,21.8,62.8,21.8,62.8,21.8z"/>
				</g>
				<g>
					<path class="st13" d="M62,25.6C62,25.6,62,25.6,62,25.6c-0.1,0-0.2,0-0.2-0.1c0-0.1,0-0.1,0.1-0.1c0.3,0,1.1,0,1.3-0.2
						c0.2-0.2,0-0.7-0.3-1.1c-0.3-0.6-1.1-1.7-1.2-1.7c0,0,0-0.1,0-0.1c0,0,0.1,0,0.1,0c0,0,0.8,1.1,1.2,1.7c0.2,0.4,0.6,1,0.3,1.4
						C63.1,25.6,62.3,25.6,62,25.6z"/>
				</g>
				<g>
					<path class="st13" d="M61.9,27c-0.8,0-1.8-0.2-2.2-0.4c-0.1,0-0.1-0.1-0.1-0.2c0-0.1,0.1-0.1,0.2-0.1c0.4,0.1,1.5,0.4,2.3,0.3
						c0.8,0,1.4-0.4,1.4-0.4c0.1,0,0.2,0,0.2,0.1c0,0.1,0,0.2-0.1,0.2c0,0-0.7,0.4-1.6,0.5C62,27,61.9,27,61.9,27z"/>
				</g>
				<g>
					<g>
						<g>
							<g>
								<g>
									<g>
										<path class="st19" d="M58.5,25.6c-0.4,0-0.6-0.3-0.6-0.8c0-0.6,0.2-0.8,0.6-0.8c0.4,0,0.6,0.3,0.6,0.8
											C59.1,25.4,58.9,25.6,58.5,25.6z"/>
									</g>
								</g>
							</g>
						</g>
					</g>
				</g>
				<g>
					<g>
						<g>
							<g>
								<g>
									<g>
										<path class="st19" d="M64.4,25.5c-0.4,0-0.6-0.3-0.6-0.8c0-0.6,0.2-0.8,0.6-0.8c0.4,0,0.6,0.3,0.6,0.8
											C65,25.3,64.8,25.5,64.4,25.5z"/>
									</g>
								</g>
							</g>
						</g>
					</g>
				</g>
				<g>
					<path class="st13" d="M54.9,26.1C54.9,26.1,54.9,26.1,54.9,26.1c-0.3-0.3-1.1-1.1-1.6-1.4c0,0-0.1-0.1,0-0.1c0,0,0.1-0.1,0.1,0
						c0.5,0.3,1.4,1.1,1.6,1.4C55.1,26,55,26.1,54.9,26.1C55,26.1,55,26.1,54.9,26.1z"/>
				</g>
				<g>
					<path class="st13" d="M60.9,31.4c-1.3,0-2.9-0.6-3.7-1.2c0,0-0.1-0.1,0-0.1c0,0,0.1-0.1,0.1,0c0.9,0.7,3,1.4,4.2,1.1
						c0.1,0,0.1,0,0.1,0.1c0,0.1,0,0.1-0.1,0.1C61.4,31.3,61.2,31.4,60.9,31.4z"/>
				</g>
			</g>
			<g>
				<path class="st12" d="M68.6,59.7l2.3-3.6c0,0-1.3-2.6,0.1-5c1.4-2.5,3.8-5.8,4.8-5.8c1,0,2.1,0.9,1.5,2.2
					c-0.6,1.3-1.9,3.3-2.3,4.1c-0.4,0.8-0.5,1.4-0.2,1.4c0.3,0,2.5-3.2,3.6-4.7c1.2-1.5,3-3.3,3.7-3.9c0.7-0.6,1.7-1,2.5-0.4
					c0.8,0.6,0.7,1.7-0.1,2.6c0,0,1.3-1.4,2-1.4c0.7,0,2.1,0.4,1.9,1.5c-0.1,1.1-2.2,3.2-2.2,3.2s1.4-1.3,2.1-1
					c0.7,0.3,1.4,0.9,0.9,1.9s-3.4,4.4-4.4,5.4c-1,1-6.6,8.8-6.6,8.8s-4.3,1.3-7-0.8C68.5,62,68.6,59.7,68.6,59.7z"/>
			</g>
			<g>
				<path class="st13" d="M80.7,51.2C80.7,51.2,80.7,51.2,80.7,51.2c-0.1-0.1-0.1-0.1-0.1-0.2c0.5-0.7,3.7-4.5,3.8-4.5
					c0,0,0.1,0,0.1,0c0,0,0,0.1,0,0.1C84.5,46.6,81.3,50.5,80.7,51.2C80.8,51.2,80.8,51.2,80.7,51.2z"/>
			</g>
			<g>
				<path class="st13" d="M83.4,53.2C83.4,53.2,83.4,53.2,83.4,53.2c-0.1-0.1-0.1-0.1-0.1-0.2c0,0,2-2.5,2.8-3.4c0,0,0.1,0,0.1,0
					c0,0,0,0.1,0,0.1C85.5,50.7,83.5,53.2,83.4,53.2C83.5,53.2,83.5,53.2,83.4,53.2z"/>
			</g>
			<g>
				<path class="st13" d="M84.4,54.4C84.4,54.4,84.3,54.3,84.4,54.4c-0.1-0.1-1.2-1.5-2.2-2.2c-1-0.7-2.5-1.6-3-1.8
					c-0.1,0-0.1-0.1-0.1-0.1c0-0.1,0.1-0.1,0.1-0.1c0.5,0.2,2,1.2,3,1.8c1,0.7,2.1,2.1,2.1,2.2C84.5,54.2,84.5,54.3,84.4,54.4
					C84.4,54.4,84.4,54.4,84.4,54.4z"/>
			</g>
			<g>
				<path class="st13" d="M76.2,60.9C76.2,60.9,76.2,60.9,76.2,60.9c-0.1-0.1-0.1-0.1-0.1-0.2c0,0,1.5-1.2,1.7-3.3
					c0.2-2.6-2-3.8-3.1-4.4c0,0-0.1-0.1,0-0.1c0,0,0.1-0.1,0.1,0c1.1,0.6,3.4,2,3.2,4.6C77.9,59.6,76.4,60.8,76.2,60.9
					C76.3,60.9,76.3,60.9,76.2,60.9z"/>
			</g>
			<g>
				<path class="st13" d="M73.8,47.5c-0.1,0-0.2,0-0.3,0c-0.1,0-0.1-0.1-0.1-0.1c0-0.1,0.1-0.1,0.1-0.1c0.4,0.1,0.9-0.1,1.5-0.5
					c0.5-0.4,0.9-0.9,1.1-1.3c0-0.1,0.1-0.1,0.1-0.1c0.1,0,0.1,0.1,0.1,0.1c-0.2,0.5-0.6,1-1.1,1.4C74.7,47.3,74.2,47.5,73.8,47.5z"
					/>
			</g>
			<g>
				<path class="st11" d="M59,92C59,92,58.9,92,59,92c-3.8-2-6.7-4.1-9.1-6.4c-2.9-2.8-5-5.8-6.3-9.3c-3-7.7-5.8-22.2-6.4-25.7
					c0-0.1,0-0.1,0.1-0.1c0.1,0,0.1,0,0.1,0.1c0.6,3.4,3.3,17.9,6.4,25.6c1.4,3.4,3.4,6.5,6.3,9.2c2.4,2.2,5.3,4.3,9,6.3
					C59.1,91.8,59.1,91.9,59,92C59,92,59,92,59,92z"/>
			</g>
			<g>
				<path class="st11" d="M51.3,44.3C51.3,44.3,51.3,44.3,51.3,44.3c-0.1-0.1-0.3-0.4-0.5-0.7c-1-1.5-3-4.5-3.3-5.3
					c0-0.1,0-0.1,0.1-0.1c0.1,0,0.1,0,0.1,0.1c0.3,0.8,2.4,4,3.3,5.3c0.2,0.3,0.3,0.5,0.4,0.6l3.8-1.3c0.1,0,0.1,0,0.1,0.1
					c0,0.1,0,0.1-0.1,0.1L51.3,44.3C51.4,44.3,51.4,44.3,51.3,44.3z"/>
			</g>
			<g>
				<path class="st11" d="M58.1,45.1C58,45.1,58,45.1,58.1,45.1l-1.7-2.2c0,0,0-0.1,0-0.1c0,0,0.1,0,0.1,0l1.5,2.1
					c0.2-0.3,0.7-1.3,0.8-2.2c0-0.1,0.1-0.1,0.1-0.1c0.1,0,0.1,0.1,0.1,0.1C59,43.8,58.2,45,58.1,45.1
					C58.1,45.1,58.1,45.1,58.1,45.1C58.1,45.1,58.1,45.1,58.1,45.1z"/>
			</g>
			<g>
				<path class="st11" d="M59.8,70.5C59.8,70.5,59.8,70.4,59.8,70.5c-0.1-0.1-1-4.2-2.2-9.1C56.5,57,54.8,51,53.4,47.9
					c-1.1-2.6-2.9-4.3-5.3-5.1c-1.4-0.5-2.9-0.6-4.6-0.4c-0.1,0-0.1,0-0.1-0.1c0-0.1,0-0.1,0.1-0.1c2.7-0.3,7.6,0,10.1,5.6
					c1.4,3.2,3,9.1,4.2,13.6c1.2,4.8,2.1,8.9,2.2,9C60,70.4,59.9,70.4,59.8,70.5C59.9,70.4,59.9,70.5,59.8,70.5z"/>
			</g>
			<g>
				<path class="st11" d="M68.7,80.7C68.7,80.7,68.7,80.7,68.7,80.7l-7-4.6c0,0,0,0,0-0.1l-1.4-4.2c0-0.1,0-0.1,0.1-0.1
					c0.1,0,0.1,0,0.1,0.1l1.4,4.2l6.9,4.5C68.8,80.6,68.8,80.7,68.7,80.7C68.8,80.7,68.7,80.7,68.7,80.7z"/>
			</g>
			<g>
				<path class="st11" d="M74.3,70.3c-2.4,0-4.5-0.7-6.1-2c-2-1.6-2.6-3.5-2.8-4c0-0.1,0-0.1,0.1-0.1c0.1,0,0.1,0,0.1,0.1
					c0.2,0.5,0.8,2.4,2.7,3.9c1.8,1.4,4.1,2.1,6.8,1.9c0.1,0,0.1,0,0.1,0.1c0,0.1,0,0.1-0.1,0.1C74.8,70.3,74.6,70.3,74.3,70.3z"/>
			</g>
			<g>
				<path class="st11" d="M64.4,95C64.4,95,64.4,95,64.4,95c-0.1-0.1-0.1-0.2,0-0.2c1.6-0.4,3.5-2.1,4.6-3.6
					c1.3-1.6,2.8-4.4,2.8-8.1c0-0.1,0-0.1,0.1-0.1c0.1,0,0.1,0,0.1,0.1c0,3.8-1.6,6.6-2.9,8.2C67.4,93.6,65.6,94.7,64.4,95
					C64.5,95,64.4,95,64.4,95z"/>
			</g>
			<g>
				<path class="st11" d="M45.9,87.6C45.9,87.6,45.9,87.6,45.9,87.6c-0.1,0-0.1-0.1-0.1-0.2l2.3-3.7c0,0,0.1-0.1,0.1,0
					c0,0,0.1,0.1,0,0.1L45.9,87.6C46,87.5,46,87.6,45.9,87.6z"/>
			</g>
			<g>
				<path class="st11" d="M57.5,60.4C57.5,60.4,57.5,60.3,57.5,60.4c-0.1,0-0.1-0.1-0.1-0.1c0-0.1,2.5-5.2,2.9-8.8
					c0-0.1,0.1-0.1,0.1-0.1c0.1,0,0.1,0.1,0.1,0.1C60.1,55,57.6,60.2,57.5,60.4C57.6,60.3,57.6,60.4,57.5,60.4z"/>
			</g>
		</g>
		<g>
			<path class="st20" d="M80.4,41.1c-0.1,0-0.1,0-0.2,0c-0.1-0.1-0.5-0.3-0.3-2.7c0.1-0.9,0.2-1.8,0.2-2.1c-0.3-0.2-1.1-0.6-1.8-1.1
				c-1.8-1.1-2-1.6-2-1.8c0-0.3,0.3-0.6,2.5-1.1c0.9-0.2,1.8-0.4,2.1-0.4c0.1-0.3,0.3-1.2,0.5-2.1c0.6-2.2,0.9-2.4,1.1-2.4
				c0.2,0,0.6,0.1,1.8,2c0.5,0.8,0.9,1.6,1.1,1.9c0.3,0,1.2-0.1,2.1-0.2c2.2-0.1,2.6,0.1,2.7,0.3c0.1,0.2,0.1,0.6-1.4,2.3
				c-0.6,0.7-1.2,1.4-1.4,1.6c0.1,0.3,0.5,1.1,0.8,2c0.9,2.3,0.7,2.5,0.6,2.6c-0.1,0.1-0.3,0.4-2.6-0.6c-0.8-0.3-1.7-0.7-2-0.9
				c-0.2,0.2-0.9,0.8-1.6,1.4C81.3,40.8,80.7,41.1,80.4,41.1z M80.4,40.7C80.4,40.7,80.4,40.7,80.4,40.7L80.4,40.7z M80.4,40.7
				c0.3,0,1.7-1,3.6-2.8c0.1-0.1,0.2-0.1,0.2,0c2.3,1.1,3.9,1.7,4.2,1.6c0.1-0.3-0.5-2-1.5-4.3c0-0.1,0-0.2,0-0.2
				c1.5-1.6,2.8-3.2,2.8-3.5c-0.3-0.2-2.3-0.1-4.5,0.1c-0.1,0-0.2,0-0.2-0.1c-0.9-1.7-2.1-3.6-2.5-3.8c-0.3,0.3-0.9,2.4-1.3,4.3
				c0,0.1-0.1,0.1-0.2,0.2c0,0-1.1,0.2-2.2,0.4c-2,0.4-2.2,0.7-2.2,0.8c0,0.1,0.1,0.4,1.8,1.5c0.9,0.6,1.9,1.1,1.9,1.1
				c0.1,0,0.1,0.1,0.1,0.2C80.2,38.7,80.2,40.5,80.4,40.7z M89.8,31.5L89.8,31.5L89.8,31.5z M82.5,27.7
				C82.5,27.7,82.5,27.7,82.5,27.7S82.5,27.7,82.5,27.7z M82.6,27.7"/>
		</g>
		<g>
			<path class="st20" d="M79.1,81.4c-0.1,0-0.1,0-0.2-0.1l-2.3-4.8c0-0.1,0-0.2,0.1-0.3c0.1,0,0.2,0,0.3,0.1l2.3,4.8
				C79.4,81.2,79.3,81.3,79.1,81.4C79.2,81.4,79.2,81.4,79.1,81.4z"/>
		</g>
		<g>
			<path class="st20" d="M86.5,81.7C86.5,81.7,86.5,81.7,86.5,81.7c-0.2-0.1-0.2-0.2-0.2-0.3l2.6-5.2c0-0.1,0.2-0.1,0.3-0.1
				c0.1,0,0.1,0.2,0.1,0.3l-2.6,5.2C86.7,81.7,86.6,81.7,86.5,81.7z"/>
		</g>
		<g>
			<path class="st20" d="M64.1,107.4c0,0-0.1,0-0.1,0c-0.1-0.1-0.1-0.2,0-0.3l3.6-4.6c0.1-0.1,0.2-0.1,0.3,0c0.1,0.1,0.1,0.2,0,0.3
				l-3.6,4.6C64.2,107.3,64.1,107.4,64.1,107.4z"/>
		</g>
		<g>
			<path class="st20" d="M83.6,114C83.6,114,83.6,114,83.6,114c-0.1,0-0.2-0.1-0.2-0.2l0.3-4.2c0-0.1,0.1-0.2,0.2-0.2
				c0.1,0,0.2,0.1,0.2,0.2l-0.3,4.2C83.8,114,83.7,114,83.6,114z"/>
		</g>
		<g>
			<path class="st20" d="M104.4,107.7c-0.1,0-0.1,0-0.1-0.1l-4.8-5.1c-0.1-0.1-0.1-0.2,0-0.3c0.1-0.1,0.2-0.1,0.3,0l4.8,5.1
				c0.1,0.1,0.1,0.2,0,0.3C104.5,107.6,104.4,107.7,104.4,107.7z"/>
		</g>
		<g>
			<g>
				<g>
					<path class="st20" d="M31,95.3c-0.6,0-1.1-0.1-1.5-0.4c-0.6-0.5-1-1.2-1.1-2.2c-0.1-0.9-0.4-1.6-0.9-2C27,90.1,26,89.9,24.8,90
						c-1.1,0.1-2-0.2-2.7-1.1c-0.6-0.7-0.8-1.7-0.9-2.5c-0.1-0.7-0.5-1.3-1.1-1.6c-0.7-0.4-1.6-0.4-2.5-0.1c-0.1,0-0.2,0-0.3-0.1
						c0-0.1,0-0.2,0.1-0.3c1-0.4,2-0.4,2.8,0.1c0.7,0.4,1.2,1.1,1.3,1.9c0.4,2.8,1.9,3.3,3.1,3.2c1.3-0.1,2.4,0.1,3.1,0.7
						c0.6,0.5,1,1.3,1,2.3c0.1,0.9,0.4,1.6,0.9,1.9c0.5,0.4,1.2,0.5,2.1,0.3c0.1,0,0.2,0,0.2,0.1c0,0.1,0,0.2-0.1,0.2
						C31.6,95.3,31.3,95.3,31,95.3z"/>
				</g>
			</g>
		</g>
		<g>
			<g>
				<g>
					<path class="st20" d="M151.3,46.7c-2,0-4.3-0.8-6-1.8c-0.1-0.1-0.1-0.2-0.1-0.3c0.1-0.1,0.2-0.1,0.3-0.1
						c2.1,1.3,5.4,2.3,7.7,1.4c1-0.4,2-1,2.7-1.7c-0.6-0.4-1-0.8-1.4-1.3c-0.5-0.8-0.8-1.7-0.6-2.4c0.2-0.9,1.1-1.6,2-1.5
						c0.9,0,1.5,0.6,1.7,1.7c0.3,1.2-0.3,2.5-1.2,3.5c0.7,0.4,1.4,0.6,2.3,0.7c3.3,0.3,5.9-2,6.8-3.7c0-0.1,0.2-0.1,0.3-0.1
						c0.1,0,0.1,0.2,0.1,0.3c-0.8,1.7-3.3,4-6.5,4c-0.2,0-0.4,0-0.7,0c-0.9-0.1-1.8-0.4-2.5-0.8c-0.8,0.8-1.8,1.5-2.9,1.9
						C152.8,46.6,152.1,46.7,151.3,46.7z M156,39.4c-0.7,0-1.4,0.5-1.6,1.2c-0.2,0.6,0,1.4,0.5,2.1c0.3,0.5,0.8,0.9,1.3,1.3
						c0-0.1,0.1-0.1,0.1-0.2c0.6-0.7,1.3-1.8,1-3.1C157.2,39.9,156.7,39.4,156,39.4C156.1,39.4,156,39.4,156,39.4z"/>
				</g>
			</g>
		</g>
		<g>
			<g>
				<g>
					<path class="st0" d="M69,42.6c0,0-0.1,0-0.1,0c-0.9-0.6-1.4-1.5-1.4-2.5c0-0.9,0.3-1.6,0.9-2.2c2.2-1.8,1.8-3.4,1.1-4.3
						c-0.8-1.1-1.2-2.1-1-3c0.1-0.8,0.6-1.5,1.4-2.1c0.7-0.5,1.1-1.1,1.2-1.8c0.1-0.6-0.2-1.3-0.9-1.9c-0.1-0.1-0.1-0.2,0-0.3
						c0.1-0.1,0.2-0.1,0.3,0c0.7,0.7,1,1.4,1,2.2c-0.1,0.8-0.5,1.5-1.4,2.1c-0.7,0.5-1.1,1.1-1.2,1.8c-0.1,0.8,0.2,1.7,0.9,2.7
						c0.7,0.9,0.9,1.9,0.5,2.8c-0.3,0.9-1.1,1.6-1.6,2.1c-0.5,0.4-0.8,1.1-0.8,1.8c0,0.8,0.5,1.6,1.2,2.2c0.1,0.1,0.1,0.2,0,0.3
						C69.2,42.6,69.1,42.6,69,42.6z"/>
				</g>
			</g>
		</g>
		<g>
			<path class="st15" d="M97.1,28.4c-1.6,0-3-1.3-3-3c0-1.6,1.3-3,3-3c1.6,0,3,1.3,3,3C100.1,27,98.7,28.4,97.1,28.4z M97.1,22.9
				c-1.4,0-2.6,1.1-2.6,2.6c0,1.4,1.1,2.6,2.6,2.6c1.4,0,2.6-1.1,2.6-2.6C99.7,24,98.5,22.9,97.1,22.9z"/>
		</g>
		<g>
			<path class="st0" d="M161.8,62.7c-1.9,0-3.5-1.6-3.5-3.5c0-1.9,1.6-3.5,3.5-3.5c1.9,0,3.5,1.6,3.5,3.5
				C165.3,61.2,163.8,62.7,161.8,62.7z M161.8,56.2c-1.7,0-3.1,1.4-3.1,3.1c0,1.7,1.4,3.1,3.1,3.1s3.1-1.4,3.1-3.1
				C164.9,57.6,163.5,56.2,161.8,56.2z"/>
		</g>
		<g>
			<g>
				<g>
					<path class="st15" d="M147.4,34.1c0,0-0.1,0-0.1-0.1c0,0-0.1-0.1-0.1-0.2l0.5-6.2c0-0.1,0.1-0.2,0.1-0.2l5.8-1.6
						c0.1,0,0.1,0,0.2,0c0.1,0,0.1,0.1,0.1,0.2l-0.6,6.8c0,0.1-0.1,0.2-0.2,0.2L147.4,34.1C147.4,34.1,147.4,34.1,147.4,34.1z
						 M148,27.8l-0.4,5.8l5.2-1l0.6-6.3L148,27.8z"/>
				</g>
			</g>
		</g>
		<g>
			<g>
				<path class="st16" d="M103.8,87.8H72.1c-0.6,0-1.1-0.5-1.1-1.1V45.1c0-0.6,0.5-1.1,1.1-1.1h31.6c0.6,0,1.1,0.5,1.1,1.1v41.6
					C104.9,87.3,104.4,87.8,103.8,87.8z M72.1,44.4c-0.4,0-0.7,0.3-0.7,0.7v41.6c0,0.4,0.3,0.7,0.7,0.7h31.6c0.4,0,0.7-0.3,0.7-0.7
					V45.1c0-0.4-0.3-0.7-0.7-0.7H72.1z"/>
			</g>
			<g>
				<circle class="st21" cx="88.2" cy="65.8" r="8.6"/>
			</g>
		</g>
		<g>
			<g>
				<g>
					<path class="st0" d="M78.2,26c-0.7,0-1.4-0.2-2.1-0.6c-1.8-1.2-2.7-3.1-2.7-3.2c0-0.1,0-0.1,0-0.2c0-0.1,0.1-0.1,0.2-0.1
						c0,0,1.7-0.1,2.5-0.5c0.7-0.3,2.8-1.4,3.4-1.7c-0.3-0.5-1.1-1.9-1.8-3.4c-0.1-0.3-0.3-0.6-0.4-0.8c-0.5-1.1-0.9-1.9-0.7-2.4
						c0.1-0.2,0.2-0.4,0.5-0.5c0.3-0.1,0.6-0.1,0.9,0.1c-0.1-0.4-0.2-0.8-0.1-1.1c0.1-0.4,0.3-0.6,0.7-0.8c0.3-0.1,0.6-0.2,0.9,0
						c0.3,0.1,0.5,0.3,0.7,0.5c-0.1-0.5,0.1-0.9,0.4-1.1c0.7-0.4,1.4-0.6,2.5,1.3c1,1.6,2.5,4.6,2.9,5.3c0.6-0.3,2.7-1.2,4.3-1.8
						c1.7-0.7,2.9,0.4,3.2,0.8l1.1,0c0.1,0,0.2,0,0.2,0.1c0,0.1,0,0.2,0,0.2L94,17c0,0.4-0.3,2-1.8,3c-1.7,1.1-7,3.7-9.7,4.9
						C80.9,25.5,79.5,26,78.2,26z M73.9,22.4c0.3,0.6,1.2,1.9,2.5,2.7c1.5,1,3.1,0.6,6-0.7c2.6-1.1,8-3.8,9.6-4.8
						c1.5-1,1.6-2.7,1.6-2.7c0,0,0-0.1,0-0.1l0.5-0.6l-0.8,0c-0.1,0-0.1,0-0.2-0.1c0-0.1-1.1-1.4-2.8-0.7c-1.8,0.7-4.4,1.9-4.4,1.9
						c-0.1,0-0.2,0-0.3-0.1c0,0-1.9-3.6-3-5.4c-1-1.7-1.5-1.5-2-1.2c-0.3,0.2-0.3,0.9,0.2,1.9c0.1,0.2,0.1,0.3,0.1,0.3
						c0,0.1,0,0.2-0.1,0.3c-0.1,0-0.2,0-0.3-0.1c0-0.1-0.1-0.2-0.1-0.3c-0.2-0.4-0.7-1.3-1.3-1.5c-0.2-0.1-0.4-0.1-0.5,0
						c-0.2,0.1-0.4,0.3-0.5,0.6c-0.2,0.6,0.3,1.5,0.5,1.9c0.1,0.1,0.1,0.2,0.2,0.3c0.1,0.1,0,0.2-0.1,0.3c-0.1,0.1-0.2,0-0.3-0.1
						c0,0-0.1-0.1-0.2-0.3c-0.3-0.4-0.8-1-1.2-0.9C77,13.1,77,13.2,77,13.3c-0.1,0.4,0.2,1.1,0.7,2.1c0.1,0.3,0.3,0.5,0.4,0.8
						c0.9,1.8,1.9,3.5,1.9,3.5c0,0,0,0.1,0,0.2c0,0.1-0.1,0.1-0.1,0.1c0,0-2.8,1.4-3.6,1.8C75.6,22.2,74.5,22.3,73.9,22.4z"/>
				</g>
				<g>
					<path class="st0" d="M86.9,19.2c-0.1,0-0.1,0-0.2-0.1c0,0-0.5-1-1-1.9c-0.1-0.1,0-0.2,0.1-0.3c0.1-0.1,0.2,0,0.3,0.1
						c0.5,0.9,1,1.9,1,1.9C87.1,19,87.1,19.1,86.9,19.2C87,19.2,86.9,19.2,86.9,19.2z"/>
				</g>
				<g>
					<path class="st0" d="M81,22.1c-0.1,0-0.1,0-0.2-0.1c0,0-0.7-1.1-1.1-2c-0.1-0.1,0-0.2,0.1-0.3c0.1-0.1,0.2,0,0.3,0.1
						c0.4,0.9,1.1,2,1.1,2c0.1,0.1,0,0.2-0.1,0.3C81,22.1,81,22.1,81,22.1z"/>
				</g>
				<g>
					<path class="st0" d="M91.6,18.3c-0.5,0-0.9-0.3-1.1-0.7c-0.3-0.6-0.1-1.4,0.6-1.7c0.6-0.3,1.4-0.1,1.7,0.6
						c0.2,0.3,0.2,0.7,0.1,1c-0.1,0.3-0.3,0.6-0.6,0.7C92,18.2,91.8,18.3,91.6,18.3z M91.6,16.1c-0.1,0-0.3,0-0.4,0.1
						c-0.2,0.1-0.4,0.3-0.4,0.5c-0.1,0.2-0.1,0.5,0,0.7c0.2,0.4,0.7,0.6,1.2,0.4c0.2-0.1,0.4-0.3,0.4-0.5c0.1-0.2,0.1-0.5,0-0.7
						C92.2,16.3,91.9,16.1,91.6,16.1z"/>
				</g>
			</g>
		</g>
	</g>
	<g>
		<path class="st1" d="M87.7,70.6v-1.2c-0.7,0-1.4-0.2-1.8-0.5l0.3-0.8c0.4,0.3,1.1,0.5,1.7,0.5c0.9,0,1.4-0.5,1.4-1.2
			c0-0.7-0.5-1.1-1.4-1.4c-1.2-0.5-2-1-2-2.1c0-1,0.7-1.8,1.8-1.9v-1.2h0.7v1.2c0.7,0,1.2,0.2,1.6,0.4l-0.3,0.8
			c-0.3-0.1-0.7-0.4-1.5-0.4c-0.9,0-1.3,0.6-1.3,1c0,0.6,0.4,0.9,1.5,1.4c1.2,0.5,1.9,1.1,1.9,2.2c0,0.9-0.7,1.8-1.9,2v1.2H87.7z"/>
	</g>
</g>
</svg>
