<svg xmlns="http://www.w3.org/2000/svg" xmlns:xlink="http://www.w3.org/1999/xlink" width="98.001" height="98.002" viewBox="0 0 98.001 98.002"><defs><style>.a{fill:url(#a);}</style><linearGradient id="a" x1="0.5" x2="0.5" y2="1" gradientUnits="objectBoundingBox"><stop offset="0" stop-color="#006cff"/><stop offset="1" stop-color="#0cc6f2"/></linearGradient></defs><path class="a" d="M12130-1230a49.385,49.385,0,0,1-9.875-1,48.807,48.807,0,0,1-9.2-2.855,49.054,49.054,0,0,1-8.324-4.518,49.465,49.465,0,0,1-7.252-5.984,49.367,49.367,0,0,1-5.983-7.252,49.125,49.125,0,0,1-4.519-8.324,48.674,48.674,0,0,1-2.854-9.2,49.325,49.325,0,0,1-1-9.876,49.32,49.32,0,0,1,1-9.875,48.666,48.666,0,0,1,2.854-9.2,49.121,49.121,0,0,1,4.519-8.323,49.355,49.355,0,0,1,5.983-7.252,49.392,49.392,0,0,1,7.252-5.983,49.034,49.034,0,0,1,8.324-4.518,48.789,48.789,0,0,1,9.2-2.855,49.367,49.367,0,0,1,9.875-1,49.346,49.346,0,0,1,9.875,1,48.7,48.7,0,0,1,9.2,2.855,49,49,0,0,1,8.325,4.518,49.443,49.443,0,0,1,7.252,5.983,49.379,49.379,0,0,1,5.982,7.252,49.041,49.041,0,0,1,4.519,8.323,48.74,48.74,0,0,1,2.854,9.2,49.316,49.316,0,0,1,1,9.875,49.323,49.323,0,0,1-1,9.876,48.748,48.748,0,0,1-2.854,9.2,49.036,49.036,0,0,1-4.519,8.324,49.379,49.379,0,0,1-5.982,7.252,49.465,49.465,0,0,1-7.252,5.984,48.986,48.986,0,0,1-8.325,4.518,48.718,48.718,0,0,1-9.2,2.855A49.371,49.371,0,0,1,12130-1230Zm0-91.225a42.537,42.537,0,0,0-8.51.858,42.007,42.007,0,0,0-7.925,2.46,42.214,42.214,0,0,0-7.173,3.893,42.556,42.556,0,0,0-6.25,5.156,42.511,42.511,0,0,0-5.156,6.249,42.181,42.181,0,0,0-3.893,7.172,42.016,42.016,0,0,0-2.461,7.926,42.527,42.527,0,0,0-.858,8.509,42.532,42.532,0,0,0,.858,8.51,42.018,42.018,0,0,0,2.461,7.926,42.177,42.177,0,0,0,3.893,7.173,42.511,42.511,0,0,0,5.156,6.249,42.525,42.525,0,0,0,6.25,5.156,42.2,42.2,0,0,0,7.173,3.893,42.007,42.007,0,0,0,7.925,2.46,42.537,42.537,0,0,0,8.51.858,42.54,42.54,0,0,0,8.511-.858,42.029,42.029,0,0,0,7.925-2.46,42.187,42.187,0,0,0,7.172-3.893,42.467,42.467,0,0,0,6.249-5.156,42.467,42.467,0,0,0,5.156-6.249,42.14,42.14,0,0,0,3.893-7.173,41.909,41.909,0,0,0,2.461-7.926,42.534,42.534,0,0,0,.858-8.51,42.527,42.527,0,0,0-.858-8.509,41.907,41.907,0,0,0-2.461-7.926,42.126,42.126,0,0,0-3.893-7.172,42.493,42.493,0,0,0-5.156-6.249,42.548,42.548,0,0,0-6.249-5.156,42.185,42.185,0,0,0-7.172-3.893,42.029,42.029,0,0,0-7.925-2.46A42.54,42.54,0,0,0,12130-1321.224Z" transform="translate(1328 12179.001) rotate(-90)"/></svg>