<svg xmlns="http://www.w3.org/2000/svg" width="22.297" height="22.297" viewBox="0 0 22.297 22.297"><defs><style>.a{fill:none;}.b{fill:#006cff;}</style></defs><g transform="translate(0)"><path class="a" d="M0,0H22.3V22.3H0Z" transform="translate(0)"/><path class="b" d="M5.929,17.865a1.864,1.864,0,0,0,1.858,1.858h7.432a1.864,1.864,0,0,0,1.858-1.858V8.574a1.864,1.864,0,0,0-1.858-1.858H7.787A1.864,1.864,0,0,0,5.929,8.574ZM17.077,3.929H14.755l-.66-.66A.937.937,0,0,0,13.445,3H9.562a.937.937,0,0,0-.65.269l-.66.66H5.929a.929.929,0,0,0,0,1.858H17.077a.929.929,0,1,0,0-1.858Z" transform="translate(-0.355 -0.213)"/></g></svg>