<svg xmlns="http://www.w3.org/2000/svg" width="18" height="23.631" viewBox="0 0 18 23.631"><defs><style>.a{fill:#734bbd;}.b{fill:#fff5f5;}.c{fill:#5f45a9;}.d{fill:#e3e7ea;}.e{fill:#9b7ed0;}</style></defs><g transform="translate(-61)"><g transform="translate(61)"><g transform="translate(0)"><path class="a" d="M79,6.231,74.154,4.846,72.769,0H63.077A2.077,2.077,0,0,0,61,2.077V21.554a2.077,2.077,0,0,0,2.077,2.077H76.923A2.077,2.077,0,0,0,79,21.554Z" transform="translate(-61)"/></g><g transform="translate(2.388 10.981)"><circle class="b" cx="0.834" cy="0.834" r="0.834" transform="translate(0 0)"/></g><g transform="translate(2.388 14.297)"><ellipse class="b" cx="0.834" cy="0.417" rx="0.834" ry="0.417" transform="translate(0 0)"/></g><g transform="translate(2.388 16.778)"><circle class="b" cx="0.834" cy="0.834" r="0.834" transform="translate(0 0)"/></g></g><g transform="translate(69.936)"><g transform="translate(0)"><path class="c" d="M265.064,6.231V21.554a2.084,2.084,0,0,1-2.092,2.077H256V0h2.789l1.394,4.846Z" transform="translate(-256)"/></g></g><g transform="translate(66.505 11.118)"><g transform="translate(0)"><path class="b" d="M188.67,242.394H181.7a.7.7,0,0,1,0-1.394h6.972a.7.7,0,1,1,0,1.394Z" transform="translate(-181 -241)"/></g></g><g transform="translate(66.505 13.886)"><path class="b" d="M188.67,302.394H181.7a.7.7,0,0,1,0-1.394h6.972a.7.7,0,1,1,0,1.394Z" transform="translate(-181 -301)"/></g><g transform="translate(66.505 16.654)"><path class="b" d="M188.67,362.394H181.7a.7.7,0,0,1,0-1.394h6.972a.7.7,0,0,1,0,1.394Z" transform="translate(-181 -361)"/></g><g transform="translate(69.976 11.09)"><path class="d" d="M256,362.394h4.183a.7.7,0,0,0,0-1.394H256Z" transform="translate(-256 -355.422)"/><path class="d" d="M256,302.394h4.183a.7.7,0,0,0,0-1.394H256Z" transform="translate(-256 -298.211)"/><path class="d" d="M256,242.394h4.183a.7.7,0,0,0,0-1.394H256Z" transform="translate(-256 -241)"/></g><path class="e" d="M322.275,6.275h-4.881A1.4,1.4,0,0,1,316,4.881V0a.654.654,0,0,1,.488.209l5.578,5.578A.654.654,0,0,1,322.275,6.275Z" transform="translate(-243.275)"/></g></svg>