<svg xmlns="http://www.w3.org/2000/svg" width="18" height="23.631" viewBox="0 0 18 23.631"><defs><style>.a{fill:#59c36a;}.b{fill:#00a66c;}.c{fill:#fff5f5;}.d{fill:#e3e7ea;}.e{fill:#a0deb0;}</style></defs><g transform="translate(0)"><path class="a" d="M79,6.231,74.154,4.846,72.769,0H62.385A1.385,1.385,0,0,0,61,1.385V22.246a1.385,1.385,0,0,0,1.385,1.385H77.615A1.385,1.385,0,0,0,79,22.246Z" transform="translate(-61)"/><g transform="translate(9.232)"><g transform="translate(0)"><path class="b" d="M267.169,6.231V22.246a1.375,1.375,0,0,1-1.366,1.385h-7.4V0h2.622l1.366,4.846Z" transform="translate(-258.401)"/></g></g></g><path class="c" d="M160.105,211h-8.4a.691.691,0,0,0-.7.683v8.195a.691.691,0,0,0,.7.683h8.4a.691.691,0,0,0,.7-.683v-8.195A.691.691,0,0,0,160.105,211Zm-7.7,4.1h2.8v1.366h-2.8Zm4.2,0h2.8v1.366h-2.8Zm2.8-1.366h-2.8v-1.366h2.8Zm-4.2-1.366v1.366h-2.8v-1.366Zm-2.8,5.463h2.8v1.366h-2.8Zm4.2,1.366v-1.366h2.8v1.366Z" transform="translate(-146.903 -201.169)"/><path class="d" d="M262.419,211h-3.987v9.56h3.987a.682.682,0,0,0,.683-.683v-8.195A.682.682,0,0,0,262.419,211Zm-.683,8.195H259v-1.366h2.732Zm0-2.732H259V215.1h2.732Zm0-2.732H259v-1.366h2.732Z" transform="translate(-249.275 -201.169)"/><path class="e" d="M322.146,6.146h-4.78A1.37,1.37,0,0,1,316,4.78V0a.64.64,0,0,1,.478.2l5.463,5.463A.64.64,0,0,1,322.146,6.146Z" transform="translate(-304.146)"/></svg>