<svg xmlns="http://www.w3.org/2000/svg" width="21.692" height="18.847" viewBox="0 0 21.692 18.847"><defs><style>.a{fill:#00acea;}.b{fill:#00ceb4;}.c{fill:#00efd1;}.d{fill:#d4e1f4;}</style></defs><g transform="translate(0 -26.907)"><g transform="translate(0 26.907)"><path class="a" d="M74.182,28.6a1.657,1.657,0,0,1,1.436,1.823l-1.27,11.241a1.63,1.63,0,0,1-1.8,1.443L72.5,43.1h-.083V32.8a1.657,1.657,0,0,0-1.657-1.657H56.947l.3-2.762A1.685,1.685,0,0,1,59.1,26.917Z" transform="translate(-53.936 -26.907)"/><path class="b" d="M18.478,237.744v.994a1.657,1.657,0,0,1-1.657,1.657H1.657A1.657,1.657,0,0,1,0,238.738v-2.32L4.557,233.1a1.878,1.878,0,0,1,2.4.11L10,235.865a1.961,1.961,0,0,0,2.265.193l6.215-3.646Z" transform="translate(0 -221.549)"/><path class="c" d="M18.478,108.682v4.972L12.263,117.3A1.961,1.961,0,0,1,10,117.106L6.96,114.455a1.878,1.878,0,0,0-2.4-.11L0,117.659v-8.977a1.657,1.657,0,0,1,1.657-1.657H16.821A1.657,1.657,0,0,1,18.478,108.682Z" transform="translate(0 -102.789)"/></g><circle class="d" cx="1.768" cy="1.768" r="1.768" transform="translate(9.28 33.905)"/></g></svg>