<svg xmlns="http://www.w3.org/2000/svg" width="20.745" height="23.708" viewBox="0 0 20.745 23.708"><defs><style>.a{fill:#e2574c;}.b{fill:#b53629;}.c{fill:#fff;}</style></defs><g transform="translate(-19.329)"><path class="a" d="M20.811,0H33.4l6.673,6.647V22.227a1.482,1.482,0,0,1-1.482,1.482H20.811a1.482,1.482,0,0,1-1.482-1.482V1.482A1.482,1.482,0,0,1,20.811,0Z"/><path class="b" d="M209.6,6.846h-5.165a1.482,1.482,0,0,1-1.482-1.482V.193Z" transform="translate(-169.551 -0.178)"/><path class="c" d="M97.071,136.273a.431.431,0,0,0,0-.853H95.657a.442.442,0,0,0-.43.482v3.474c0,.31.176.482.415.482s.414-.172.414-.482v-.953h.855a.4.4,0,0,0,.4-.433.394.394,0,0,0-.4-.421h-.855v-1.3Zm-4.778-.853H91.259a.457.457,0,0,0-.48.479v3.48a.456.456,0,0,0,.492.466h1.085a2.013,2.013,0,0,0,2.133-2.15A2.066,2.066,0,0,0,92.293,135.42Zm.05,3.567h-.631v-2.709h.568c.86,0,1.234.577,1.234,1.374C93.515,138.4,93.147,138.987,92.343,138.987Zm-3.789-3.567H87.529a.431.431,0,0,0-.451.482v3.474a.436.436,0,1,0,.868,0v-1.014h.642a1.4,1.4,0,0,0,1.447-1.465A1.419,1.419,0,0,0,88.554,135.42Zm-.017,2.126h-.591v-1.311h.591a.658.658,0,0,1,0,1.311Z" transform="translate(-62.555 -125.039)"/></g></svg>