<svg xmlns="http://www.w3.org/2000/svg" width="17.202" height="17.202" viewBox="0 0 17.202 17.202"><path d="M13.477,13.5h-7.8a3.034,3.034,0,0,1-3.059-2.661A2.947,2.947,0,0,1,5.553,7.606h9.111A1.913,1.913,0,0,1,16.6,9.257a1.843,1.843,0,0,1-1.835,2.034H7.027a.737.737,0,0,1,0-1.474h6.45a.553.553,0,0,0,0-1.106H7.131a1.913,1.913,0,0,0-1.939,1.651A1.843,1.843,0,0,0,7.027,12.4h7.615A3.034,3.034,0,0,0,17.7,9.736,2.943,2.943,0,0,0,14.767,6.5H5.723a4.171,4.171,0,0,0-4.209,3.656,4.058,4.058,0,0,0,4.039,4.452h7.924a.553.553,0,0,0,0-1.106Z" transform="translate(-5.654 7.93) rotate(-45)" fill="#006cff"/></svg>