<svg xmlns="http://www.w3.org/2000/svg" width="21.875" height="27.343" viewBox="0 0 21.875 27.343"><path d="M1778.552-3695.992h5.469a2.742,2.742,0,0,1-2.735,2.734A2.742,2.742,0,0,1,1778.552-3695.992Zm-6.836-1.367a1.371,1.371,0,0,1-1.367-1.367,1.372,1.372,0,0,1,1.367-1.368h1.367v-9.57a8.186,8.186,0,0,1,6.152-7.929v-.957a2.048,2.048,0,0,1,2.052-2.05,2.048,2.048,0,0,1,2.05,2.05v.957a8.185,8.185,0,0,1,6.152,7.929v9.57h1.368a1.371,1.371,0,0,1,1.367,1.368,1.371,1.371,0,0,1-1.367,1.367Z" transform="translate(-1770.349 3720.601)" fill="#e1e6f3"/></svg>