<svg xmlns="http://www.w3.org/2000/svg" width="19" height="19" viewBox="0 0 19 19"><g transform="translate(0.472 0.472)"><rect width="19" height="19" transform="translate(-0.472 -0.472)" fill="none"/><path d="M7.953,5.772h0a.769.769,0,0,0,.772.772H13.04L4.633,14.951a.769.769,0,0,0,0,1.089h0a.769.769,0,0,0,1.089,0l8.407-8.407v4.315a.774.774,0,0,0,.772.772h0a.774.774,0,0,0,.772-.772V5.772A.774.774,0,0,0,14.9,5H8.725A.774.774,0,0,0,7.953,5.772Z" transform="translate(-1.005 -1.14)" fill="#006cff"/></g></svg>