<svg xmlns="http://www.w3.org/2000/svg" xmlns:xlink="http://www.w3.org/1999/xlink" width="25.409" height="26" viewBox="0 0 25.409 26"><defs><clipPath id="a"><path d="M27.114,12.636H15v5.023h6.973C21.323,20.85,18.6,22.682,15,22.682A7.682,7.682,0,1,1,15,7.318a7.515,7.515,0,0,1,4.786,1.714L23.568,5.25A12.992,12.992,0,1,0,15,28c6.5,0,12.409-4.727,12.409-13A10.785,10.785,0,0,0,27.114,12.636Z" transform="translate(-2 -2)"/></clipPath></defs><g transform="translate(-2 -2)"><g transform="translate(2 2)" clip-path="url(#a)"><path d="M0,26.364V11l10.045,7.682Z" transform="translate(-1.182 -5.682)" fill="#fbbc05"/></g><g transform="translate(2 2)" clip-path="url(#a)"><path d="M0,6.5l10.045,7.682,4.136-3.6,14.182-2.3V0H0Z" transform="translate(-1.182 -1.182)" fill="#ea4335"/></g><g transform="translate(2 2)" clip-path="url(#a)"><path d="M0,21.864,17.727,8.273l4.668.591L28.364,0V28.364H0Z" transform="translate(-1.182 -1.182)" fill="#34a853"/></g><g transform="translate(2 2)" clip-path="url(#a)"><path d="M33.682,32.864,15.364,18.682,13,16.909,33.682,11Z" transform="translate(-6.5 -5.682)" fill="#4285f4"/></g></g></svg>