<svg xmlns="http://www.w3.org/2000/svg" width="23.44" height="26.885" viewBox="0 0 23.44 26.885"><g transform="translate(0 -0.003)"><g transform="translate(0 0.003)"><path d="M7.11,4.729a.529.529,0,0,0,0-1L.874.122C.391-.156,0,.073,0,.626v7.2c0,.553.391.779.874.5Z" transform="translate(0 -0.003)" fill="#1c1f36"/><path d="M7.11,30.887a.532.532,0,0,0,0-1.008l-6.236-3.6C.391,26,0,26.23,0,26.78v7.2c0,.553.391.779.874.5Z" transform="translate(0 -16.94)" fill="#1c1f36"/><path d="M7.11,57.038a.532.532,0,0,0,0-1.008l-6.236-3.6c-.483-.278-.874-.053-.874.5v7.2c0,.553.391.783.874.5Z" transform="translate(0 -33.874)" fill="#1c1f36"/><path d="M22.66,20.907c0,.553.388.783.871.5l6.236-3.6a.532.532,0,0,0,0-1.008l-6.236-3.6c-.483-.271-.871-.049-.871.508Z" transform="translate(-14.673 -8.472)" fill="#1c1f36"/><path d="M22.66,47.057c0,.557.388.783.871.5l6.236-3.6a.534.534,0,0,0,0-1.012l-6.236-3.6c-.483-.278-.871-.049-.871.5Z" transform="translate(-14.673 -25.405)" fill="#1c1f36"/><path d="M45.29,33.985c0,.553.395.779.878.5l6.236-3.6a.532.532,0,0,0,0-1.008l-6.236-3.6c-.483-.275-.878-.046-.878.5Z" transform="translate(-29.326 -16.94)" fill="#1c1f36"/></g></g></svg>