<svg xmlns="http://www.w3.org/2000/svg" width="14.578" height="14.578" viewBox="0 0 14.578 14.578"><path d="M7.859,17.578H4.62A1.625,1.625,0,0,1,3,15.958V4.62A1.625,1.625,0,0,1,4.62,3H7.859a1.625,1.625,0,0,1,1.62,1.62V15.958A1.625,1.625,0,0,1,7.859,17.578Zm4.859,0h3.239a1.625,1.625,0,0,0,1.62-1.62V11.909a1.625,1.625,0,0,0-1.62-1.62H12.718a1.625,1.625,0,0,0-1.62,1.62v4.049A1.625,1.625,0,0,0,12.718,17.578ZM17.578,7.049V4.62A1.625,1.625,0,0,0,15.958,3H12.718A1.625,1.625,0,0,0,11.1,4.62v2.43a1.625,1.625,0,0,0,1.62,1.62h3.239A1.625,1.625,0,0,0,17.578,7.049Z" transform="translate(-3 -3)" fill="#006cff"/></svg>