<svg xmlns="http://www.w3.org/2000/svg" xmlns:xlink="http://www.w3.org/1999/xlink" width="97" height="97" viewBox="0 0 97 97"><defs><filter id="a" x="0" y="0" width="97" height="97" filterUnits="userSpaceOnUse"><feOffset dy="9" input="SourceAlpha"/><feGaussianBlur stdDeviation="10" result="b"/><feFlood flood-color="#296ef6" flood-opacity="0.141"/><feComposite operator="in" in2="b"/><feComposite in="SourceGraphic"/></filter></defs><g transform="translate(-115 -249)"><g transform="matrix(1, 0, 0, 1, 115, 249)" filter="url(#a)"><rect width="37" height="37" rx="18.5" transform="translate(30 21)" fill="#fff"/></g><g transform="translate(149.413 274.884)"><path d="M0,0H28.926V28.926H0Z" transform="translate(0)" fill="none"/><path d="M18.065,16.258h-.952l-.337-.325a7.856,7.856,0,1,0-.844.844l.325.337v.952l5.134,5.122a1.258,1.258,0,0,0,1.784,0l.012-.012a1.258,1.258,0,0,0,0-1.784Zm-7.231,0a5.424,5.424,0,1,1,5.424-5.424A5.416,5.416,0,0,1,10.834,16.258Zm0-8.437a.6.6,0,0,0-.6.6v1.808H8.423a.6.6,0,1,0,0,1.205h1.808v1.808a.6.6,0,0,0,1.205,0V11.437h1.808a.6.6,0,1,0,0-1.205H11.436V8.424A.6.6,0,0,0,10.834,7.821Z" transform="translate(0.616 0.616)" fill="#006cff"/></g><line x2="33.834" transform="translate(146.99 313.5)" fill="none" stroke="#e2e6f2" stroke-width="0.5" opacity="0.2"/></g></svg>