<?xml version="1.0" encoding="utf-8"?>
<!-- Generator: Adobe Illustrator 25.3.1, SVG Export Plug-In . SVG Version: 6.00 Build 0)  -->
<svg version="1.1" id="Capa_1" xmlns="http://www.w3.org/2000/svg" xmlns:xlink="http://www.w3.org/1999/xlink" x="0px" y="0px"
	 viewBox="0 0 730 112" style="enable-background:new 0 0 730 112;" xml:space="preserve">
<style type="text/css">
	.st0{fill:#00B5D6;}
	.st1{fill:#FFFFFF;}
	.st2{font-family:'Montserrat-Regular';}
	.st3{font-size:13.115px;}
	.st4{fill:none;}
	.st5{font-family:'Montserrat-SemiBold';}
	.st6{font-size:28px;}
	.st7{fill:#41BDDD;}
	.st8{fill:#B4DCBE;}
	.st9{fill:#D1D700;}
	.st10{fill:#333347;}
	.st11{fill:#5775B8;}
	.st12{fill:#F9E3DA;}
	.st13{fill:#E9A29F;}
	.st14{fill:#52A2DA;}
	.st15{fill:#39465A;}
	.st16{fill:#2A458B;}
	.st17{fill:#B3D6EF;}
	.st18{fill:#314E9D;}
	.st19{fill:#774594;}
	.st20{fill:#E41D26;}
	.st21{fill:#EAD600;}
	.st22{fill:#827CB9;}
	.st23{fill:#37466F;}
	.st24{fill:#A5D5B4;}
	.st25{fill:#020203;}
	.st26{font-size:14px;}
</style>
<g>
	<path class="st0" d="M683.6,66.5h-81.1c-7.5,0-13.5-6-13.5-13.5l0,0c0-7.5,6-13.5,13.5-13.5h81.1c7.5,0,13.5,6,13.5,13.5l0,0
		C697.1,60.5,691,66.5,683.6,66.5z"/>
	<text transform="matrix(1 0 0 1 602.2375 57.5959)" class="st1 st2 st3">Conoce más</text>
</g>
<g>
	<rect x="29.8" y="17.5" class="st4" width="448.6" height="26.4"/>
	<text transform="matrix(1 0 0 1 29.8671 38.2568)" class="st5 st6">Consejería nutricional</text>
</g>
<rect y="85.8" class="st0" width="730" height="26.3"/>
<g>
	<rect x="-508.7" y="-167.9" class="st4" width="448.6" height="148.6"/>
	<text transform="matrix(1 0 0 1 -508.717 -147.1606)" class="st5 st6">Consejería nutricional</text>
</g>
<g>
	<g>
		<path class="st7" d="M410.7,71.4L410.7,71.4c-0.2-0.1-3.3-2-4.2-3.2c-0.9-1.1-1.9-4.1-1.8-6.7c0.1-2.3-2.2-4-3.2-4.6
			c-1-0.7-1.5-3.7-1-5.6c0.4-1.7-0.7-4-2-5.4c-1.2-1.3-0.8-3.9-0.5-6.2c0.2-0.7,0-1.5-0.2-2.2c-0.2-0.6-0.3-1.1-0.2-1.6
			c0.1-0.3,0.2-0.5,0.5-0.5c0.7,0,1.8,0.9,2.2,1.4c0.7,0.7,1.5,1.6,1.7,2.2c0.4,1.1,2.8,2.9,3.9,3.3c1.3,0.5,2.6,3.1,2.6,4.7
			c0,1.5,2,3.7,3.7,4.2c0.8,0.2,1.5,1.1,1.9,2.5c0.3,1.1,0.3,2.3,0.2,3c-0.2,1.1,1.1,2.6,2.4,3.5c1.4,0.8,1.9,4.5,1.9,4.7
			c0,0.1-0.1,0.2-0.2,0.2c-0.1,0-0.2-0.1-0.2-0.2c0,0-0.1-0.9-0.4-2c-0.4-1.3-0.7-2.2-1.3-2.4c-1.4-0.8-2.9-2.4-2.6-3.8
			c0.1-0.7,0.1-1.9-0.2-2.9c-0.2-0.8-0.7-2-1.6-2.2c-1.9-0.5-3.9-2.9-3.9-4.6c0-1.6-1.3-3.9-2.3-4.3c-1.2-0.4-3.7-2.3-4.1-3.6
			c-0.3-0.9-2.7-3.3-3.5-3.3l0,0c-0.1,0-0.1,0-0.1,0.1c-0.1,0.4,0,0.8,0.2,1.4c0.2,0.7,0.4,1.5,0.2,2.3c-0.3,1.2-0.9,4.5,0.4,5.8
			c1.3,1.4,2.5,3.9,2.1,5.8c-0.4,1.7,0,4.6,0.9,5.2c0.9,0.7,3.5,2.4,3.3,5c-0.1,2.1,0.6,5.1,1.7,6.5c0.9,1.1,4,3.1,4,3.1
			c0.1,0.1,0.1,0.2,0.1,0.3C410.7,71.4,410.7,71.4,410.7,71.4z"/>
	</g>
	<g>
		<g>
			<path class="st7" d="M407.5,105.5L407.5,105.5c-0.2-0.1-3.7-1.7-4.1-4.6c-0.5-2.6-1.5-4.6-3.1-5.9c-0.9-0.7-1.1-2.1-1.2-3.3
				c-0.1-0.8-0.2-1.7-0.5-2.3c-0.4-0.8-1-1.6-1.7-2.2c-0.8-0.9-1.6-1.8-1.7-2.8c-0.1-0.6,0-1,0-1.5c0.1-0.9,0.1-1.8-0.7-3
				c-0.3-0.6-0.7-0.9-0.8-1.3c-0.7-0.9-1.2-1.7-1.3-3.7v-0.4c-0.1-2.5-0.2-4.4-1.5-5.5c-1.6-1.3-0.6-4.9-0.6-5
				c0-0.1,0.1-0.1,0.1-0.1c0.1,0,0.1,0,0.2,0c0.1,0,1.8,0.8,2.5,1.6c0.2,0.2,0.4,0.6,0.7,0.8c0.7,0.9,1.4,2.1,2.5,2.5
				c1,0.4,3.4,1.4,4.2,3.4c0.7,1.5,1.4,2.2,3.5,3c1.9,0.8,3.7,1.8,3.9,4.8c0.3,2.9,3.6,4,5,4.3c0.9,0.2,1.7,1,2.2,2.3
				c0.4,0.9,0.6,2.2,0.6,3.3c0,0.7,0.8,1.2,1.8,1.8c1.1,0.7,2.4,1.4,3.4,2.9c0.1,0.1,0,0.2-0.1,0.3c-0.1,0.1-0.2,0-0.3-0.1
				c-0.8-1.4-2.1-2.2-3.2-2.8c-1.1-0.7-2.1-1.1-2.1-2.2c0-1.8-0.7-4.8-2.5-5.2c-1.5-0.4-4.9-1.6-5.2-4.7c-0.3-2.5-1.5-3.5-3.7-4.4
				c-2.2-0.9-2.9-1.6-3.7-3.3c-0.8-1.9-3.1-2.8-4-3.1c-1.3-0.5-2.2-1.7-2.7-2.6c-0.2-0.4-0.4-0.7-0.6-0.8c-0.5-0.6-1.7-1.2-2.2-1.4
				c-0.2,0.7-0.7,3.4,0.5,4.4c1.5,1.3,1.5,3.3,1.6,5.8v0.4c0.1,2,0.6,2.5,1.2,3.5c0.3,0.4,0.6,0.7,0.9,1.3c0.8,1.4,0.7,2.2,0.7,3.3
				c0,0.5-0.1,0.9,0,1.4c0.1,0.8,0.8,1.7,1.6,2.5c0.7,0.7,1.3,1.5,1.7,2.4c0.3,0.7,0.4,1.6,0.5,2.4c0.1,1.2,0.3,2.4,1.1,3.1
				c1.6,1.3,2.7,3.4,3.2,6.1c0.5,2.7,3.7,4.2,3.8,4.3C407.5,105.2,407.6,105.4,407.5,105.5C407.7,105.5,407.6,105.5,407.5,105.5z"/>
		</g>
		<g>
			<path class="st7" d="M413.6,100.7L413.6,100.7c-1.3-0.2-2.7-1.1-3.6-2.2c-0.6-0.7-0.7-1.5-0.6-2.2c0.4-2.1,0-5.2-2.1-5.5
				c-2.5-0.6-5.2-2.9-5.1-5.2c0.2-2.1,0.4-4.3-1.3-5.2c-3.2-1.8-3.8-3.2-4-4.1c-0.5-2-1.4-4.4-3-5.4c-0.7-0.6-1.6-1.5-2.2-2.9
				c-0.6-1.1-1.1-2.4-1.5-3.7c0-0.1,0-0.2,0.1-0.3c0.1,0,0.2,0,0.3,0.1c0.7,2.2,2,5.2,3.7,6.4c0.7,0.6,1.5,1.4,2.1,2.6
				c0.6,1.2,0.9,2.4,1,3.1c0.4,1.8,2.3,3.1,3.8,3.9c1.9,1,1.7,3.5,1.5,5.6c-0.2,2,2.4,4.2,4.8,4.7c1.1,0.2,1.9,1.1,2.3,2.4
				c0.3,1,0.4,2.3,0.1,3.6c-0.2,0.7,0.2,1.5,0.6,2c0.7,1,2.1,2,3.3,2.2c0.1,0,0.2,0.1,0.2,0.2C413.8,100.6,413.7,100.7,413.6,100.7z
				"/>
		</g>
	</g>
	<g>
		<g>
			<path class="st8" d="M455,77.6L455,77.6c-0.2-0.1-0.2-0.2-0.1-0.3c0.7-0.9,1.7-3.2,1.5-5.2c-0.2-1.7,0.7-2.8,1.8-4
				c0.3-0.4,0.6-0.7,0.8-1.1c0.9-1.3,0.9-2.7,0.8-4.4c0-0.4,0-0.7,0-1.1c0-1.4,0.6-2.2,1.2-3c0.4-0.6,0.9-1.2,1.3-2.2
				c0.7-1.6,0.7-2.9,0.7-4.2c0-0.7,0-1.4,0.1-2.2c0.2-1.3,0.8-2.2,1.4-2.8c0.5-0.6,0.9-1.1,1-1.8c0.1-0.7,0-1.4-0.1-2.2
				c-0.1-0.8-0.3-1.7-0.1-2.6c0.1-0.7,0.3-1.3,0.5-1.8c0.2-0.5,0.4-1.1,0.2-1.2c0,0,0,0-0.1,0c-0.5,0.2-1.4,1-1.9,2.1l-0.1,0.2
				c-0.5,1.1-0.9,2.2-2.5,3.7c-1.7,1.5-2.1,3.2-2.5,5.3c-0.4,1.5-1.5,2.3-2.8,3.3c-0.7,0.5-1.3,0.9-1.9,1.5
				c-1.2,1.2-1.7,3.4-2.1,5.2c-0.2,0.7-0.3,1.3-0.5,1.9c-0.4,1-1.1,1.6-1.9,2.2c-0.7,0.6-1.4,1-1.9,1.9c-0.5,0.8-0.6,1.8-0.7,2.7
				c-0.1,1.1-0.3,2.2-1,3.2c-1.3,1.6-2.5,3-2.7,6.5c0,0.1-0.1,0.2-0.2,0.2s-0.2-0.1-0.2-0.2c0.2-3.6,1.5-5.1,2.8-6.6
				c0.7-0.8,0.8-1.9,0.9-3c0.1-0.9,0.2-2,0.7-2.9c0.6-0.9,1.2-1.5,2-2c0.7-0.6,1.4-1.1,1.8-2c0.2-0.5,0.3-1.1,0.5-1.8
				c0.4-1.8,0.8-4,2.2-5.3c0.7-0.7,1.3-1.1,2-1.6c1.2-0.9,2.3-1.7,2.6-3c0.5-2.2,0.8-3.8,2.6-5.5c1.6-1.5,2-2.5,2.4-3.6l0.1-0.2
				c0.4-0.9,1.5-2.2,2.2-2.2c0.2-0.1,0.4,0,0.5,0.1c0.4,0.3,0.2,0.7-0.1,1.6c-0.2,0.5-0.3,1-0.5,1.7c-0.2,0.8,0,1.7,0.1,2.4
				s0.2,1.5,0.1,2.2c-0.1,0.7-0.6,1.3-1.1,2c-0.6,0.7-1.2,1.5-1.4,2.6c-0.1,0.7-0.1,1.4-0.1,2.2c0,1.4,0,2.7-0.8,4.4
				c-0.5,0.9-0.9,1.6-1.4,2.2c-0.7,0.9-1.1,1.6-1.1,2.8c0,0.4,0,0.7,0,1c0,1.7,0.1,3.2-0.9,4.6c-0.3,0.4-0.6,0.7-0.8,1.1
				c-0.9,1.1-1.8,2.2-1.7,3.7C456.8,74.4,455.8,76.7,455,77.6C455,77.6,455,77.6,455,77.6z"/>
		</g>
		<g>
			<path class="st8" d="M449.1,77.5L449.1,77.5c-0.1,0-0.2-0.1-0.2-0.2c0.3-1.9,0.7-4.2,2.5-6.3c1.3-1.5,1.4-2.4,1.7-3.9
				c0.1-0.3,0.1-0.7,0.2-1c0.2-1.1,0.8-1.9,1.4-2.6c0.6-0.7,1.1-1.4,1.4-2.5c0.2-0.8,0.3-1.6,0.3-2.2c0.1-1.3,0.2-2.4,1.2-3.7
				c2.2-2.3,3.4-4.4,3.5-6c0.1-2.1,0.9-3.2,2.2-4.4c0.7-0.7,0.7-1.2,0.7-2.1c0.1-0.5,0.1-1.1,0.4-1.9c0.6-1.9,1.8-3.5,1.8-3.5
				c0.1-0.1,0.2-0.1,0.3,0s0.1,0.2,0,0.3c0,0-1.1,1.6-1.8,3.4c-0.2,0.7-0.3,1.2-0.4,1.8c-0.1,0.8-0.2,1.5-0.8,2.2
				c-1.1,1.2-1.9,2.2-2,4.2c-0.1,1.7-1.3,3.7-3.6,6.2c-0.9,1-1,2.2-1.1,3.4c0,0.7-0.1,1.5-0.3,2.3c-0.3,1.2-0.9,2-1.5,2.7
				c-0.6,0.7-1.1,1.4-1.3,2.4c-0.1,0.4-0.1,0.7-0.2,0.9c-0.3,1.5-0.4,2.5-1.8,4.1c-1.7,2-2.2,4.3-2.4,6.1
				C449.2,77.4,449.1,77.5,449.1,77.5z"/>
		</g>
	</g>
	<g>
		<g>
			<path class="st7" d="M528.1,77.2c-0.1,0-0.1,0-0.2-0.1c-0.1-0.1-0.1-0.2,0-0.3c0.2-0.2,0.4-0.3,0.6-0.5c2.4-2,3.4-2.7,3.9-5.7
				c0.5-2.3,0.8-2.7,1.7-3.7c0.4-0.4,0.7-0.8,1.3-1.6c1.4-1.8,1.4-3,1.5-4.5c0-0.6,0.1-1.2,0.2-2c0.2-1.3,0.9-1.9,1.7-2.5
				s1.6-1.3,2.1-2.8c0.4-1.3,0.3-2.2,0.3-2.9C541,49.7,541,49,542,48c1.7-1.6,2.6-3,2.6-5.8c0-1.9,0.7-3.3,1.2-4.4
				c0.3-0.7,0.6-1.2,0.7-1.7c0-0.3,0-0.6-0.2-0.7c-0.3-0.1-0.9,0-2.1,0.9c-0.7,0.6-1.1,0.7-1.7,0.7s-1.2,0.2-2.6,1.1
				c-1.3,0.8-2,2-2.6,3c-0.6,0.9-1.1,1.9-2.2,2.3c-0.4,0.2-0.7,0.3-1,0.5c-1.4,0.6-2.4,1-3.7,2.6c-0.6,0.7-0.8,1.4-1.1,2.1
				c-0.5,1.1-0.8,2.2-2.7,3.1c-1.7,0.8-1.9,2-2.1,3.3c-0.1,0.7-0.2,1.4-0.6,2.2c-0.5,1.1-1.4,1.6-2.3,2.2c-1,0.6-2.1,1.1-2.8,2.4
				c-0.7,1.1-0.7,2.2-0.7,3.3c0,1.3,0,2.7-1.4,4.4c-0.7,0.9-1.4,1.5-2,2.1c-1.2,1.1-1.9,1.8-2.3,4.5c0,0.1-0.1,0.2-0.2,0.2
				c-0.1,0-0.2-0.1-0.2-0.2c0.4-2.9,1.2-3.7,2.4-4.8c0.6-0.6,1.2-1.1,2-2.1c1.2-1.6,1.3-2.8,1.3-4.2c0-1.1,0-2.2,0.7-3.5
				c0.8-1.4,2-2,3-2.5c0.9-0.5,1.8-0.9,2.2-2c0.3-0.7,0.5-1.4,0.6-2.1c0.2-1.3,0.4-2.6,2.3-3.6c1.7-0.8,2.1-1.8,2.5-2.9
				c0.3-0.7,0.6-1.4,1.1-2.2c1.3-1.7,2.4-2.2,3.8-2.7c0.4-0.1,0.7-0.3,1-0.5c0.9-0.4,1.4-1.2,2-2.2c0.7-1,1.3-2.2,2.7-3.1
				c1.5-0.9,2.2-1.1,2.8-1.2c0.5-0.1,0.8-0.2,1.5-0.7c0.7-0.7,1.9-1.3,2.4-0.9c0.3,0.2,0.5,0.5,0.4,1c0,0.6-0.4,1.1-0.7,1.9
				c-0.6,1-1.2,2.4-1.2,4.2c0,3-0.9,4.4-2.7,6.1c-0.8,0.8-0.8,1.4-0.7,2.3c0.1,0.7,0.1,1.7-0.3,3.1c-0.5,1.6-1.4,2.3-2.2,3
				s-1.4,1.1-1.6,2.2c-0.1,0.7-0.1,1.3-0.2,1.9c-0.1,1.5-0.1,2.8-1.6,4.7c-0.6,0.7-1,1.2-1.4,1.6c-0.8,0.9-1.1,1.2-1.6,3.5
				c-0.7,3.1-1.7,3.9-4.1,5.9C528.6,76.8,528.4,76.9,528.1,77.2C528.2,77.2,528.1,77.2,528.1,77.2z"/>
		</g>
		<g>
			<path class="st7" d="M521.2,75.9L521.2,75.9c-0.1,0-0.2-0.1-0.2-0.2c0.3-1.7,1.2-2.4,2.2-3.2c0.7-0.6,1.5-1.2,1.9-2.3
				c0.4-0.9,0.5-2,0.6-3c0.1-1.6,0.3-3.2,1.6-4.8c0.8-1,1.7-1.7,2.4-2.3c1.2-1,2.3-1.9,2.6-3.5c0.6-2.8,1.2-5.3,3.9-7
				c2.2-1.3,2.5-2.6,2.9-4.3c0.1-0.4,0.2-0.7,0.3-1c0.5-1.8,1.6-2.8,2.8-3.9c0.9-0.8,1.9-1.7,2.7-3c0.1-0.1,0.2-0.1,0.3-0.1
				c0.1,0.1,0.1,0.2,0.1,0.3c-0.8,1.3-1.9,2.2-2.7,3.1c-1.2,1.1-2.2,2.1-2.7,3.7c-0.1,0.4-0.2,0.7-0.3,1c-0.4,1.8-0.7,3.1-3.1,4.6
				c-2.6,1.6-3.2,3.8-3.7,6.7c-0.3,1.7-1.4,2.6-2.7,3.7c-0.8,0.7-1.6,1.3-2.4,2.3c-1.2,1.5-1.3,3-1.5,4.6c-0.1,1-0.2,2.1-0.6,3.1
				c-0.5,1.2-1.2,1.9-2.1,2.5c-0.9,0.7-1.8,1.4-2,3C521.4,75.9,521.3,75.9,521.2,75.9z"/>
		</g>
	</g>
	<g>
		<g>
			<path class="st7" d="M518.3,54c-0.1,0-0.1,0-0.2-0.1c-0.1-0.1-0.1-0.2,0-0.3c0,0,4.3-3.4,3.9-5.6c-0.4-2.5,0.3-5.2,1.6-6.5
				c1.3-1.2,1.8-2.3,2.1-4.6c0.3-2.2,1.1-3.2,2.2-4.5c0.1-0.1,0.2-0.2,0.3-0.3c0.7-0.9,0.9-2.4,1-3.6c0.1-0.5,0.1-0.9,0.2-1.3
				c0.2-0.7,0.7-1.2,1.3-2c0.7-0.9,1.7-1.9,2-3.1c0.7-2.1,0.8-3.9,0.6-4.4c0-0.1-0.1-0.1-0.1-0.1c-0.2,0-0.8,0.6-1.3,1
				c-0.7,0.7-1.8,1.8-2.8,2.2c-1.7,0.7-2.6,1.5-3.4,3.4c-0.8,1.9-2.2,2.8-4,4.1c-1.8,1.2-2.3,3.4-2.9,5.4V34
				c-0.4,1.2-1.1,1.7-1.9,2.2s-1.4,0.8-2.1,1.9c-0.6,0.9-0.7,1.9-0.7,2.9c-0.2,1.4-0.4,2.7-1.8,3.4c-2.2,1-2.4,1.5-2.8,4.7
				c0,0.1-0.1,0.2-0.2,0.2c-0.1,0-0.2-0.1-0.2-0.2c0.4-3.3,0.7-3.8,3.1-5c1.2-0.6,1.3-1.7,1.5-3.1c0.1-0.9,0.3-2.1,0.8-3
				c0.7-1.1,1.5-1.6,2.2-2.1c0.7-0.5,1.4-0.8,1.7-2v-0.1c0.6-2.2,1.2-4.4,3.1-5.7c1.8-1.2,3.1-2.2,3.8-3.9c0.8-1.9,1.9-2.9,3.7-3.6
				c1-0.4,2-1.3,2.7-2.1c0.7-0.7,1.2-1.2,1.6-1.1c0.1,0,0.3,0.1,0.4,0.3c0.5,0.7,0.1,2.8-0.5,4.7c-0.4,1.3-1.3,2.3-2.1,3.3
				c-0.6,0.7-1.1,1.3-1.2,1.8c-0.1,0.4-0.1,0.8-0.2,1.3c-0.2,1.2-0.3,2.8-1.1,3.7c-0.1,0.1-0.2,0.2-0.3,0.3
				c-0.9,1.2-1.8,2.2-2.1,4.3c-0.3,2.3-0.8,3.6-2.2,4.9c-1.3,1.2-1.9,3.7-1.5,6.1C522.8,50.5,518.5,53.8,518.3,54
				C518.4,54,518.3,54,518.3,54z"/>
		</g>
		<g>
			<path class="st7" d="M513.7,51L513.7,51c-0.1,0-0.2-0.1-0.2-0.2c0.1-2.2,0.4-3.9,2.6-5.5c2.3-1.6,3-3.9,3.4-5.7
				c0.7-3.7,2-4.9,2.8-5.4c1.6-1,2.1-3.4,2.5-5.5c0.5-2.1,1.8-3,3-3.7c0.2-0.1,0.4-0.3,0.6-0.4c0.7-0.6,2.4-2.5,3.4-4.7
				c0-0.1,0.2-0.2,0.3-0.1c0.1,0,0.2,0.2,0.1,0.3c-0.7,1.4-2.2,4-3.5,4.9c-0.2,0.1-0.4,0.3-0.6,0.4c-1.1,0.7-2.4,1.6-2.8,3.5
				c-0.5,2.3-0.9,4.7-2.7,5.8c-1.7,1.1-2.3,3.5-2.6,5.2c-0.4,1.9-1.1,4.3-3.5,6c-2.2,1.5-2.3,3.1-2.4,5.2
				C513.9,51,513.8,51,513.7,51z"/>
		</g>
	</g>
	<g>
		<g>
			<path class="st9" d="M410.9,54.1l-8.3,0.2c0,0-0.7,21.4,0.7,31c1.4,9.7,4.2,15.5,8.2,17l8.4-6.9L410.9,54.1z"/>
		</g>
		<g>
			<path class="st10" d="M432.8,10.6c1.7-0.6,0.6-1.4,2.4-2.5c2-1.2,3.6-0.1,4.4,0.4c0.7,0.5,0.9,1.5,0.9,1.5s2.4,0.5,2.7,2.3
				c0.3,1.9-1.9,2.8-1.9,2.8L431.3,24c0,0-0.7,2.6-3.9,3c-3.3,0.5-3.1-1.7-4.3-2.9c-1.2-1.2-1.3-3.4,0.3-4.4c1.6-1,3.4-1.3,2.9-2.8
				c-0.5-1.4-1.6-3.1-0.1-5.2c1.2-1.7,2.5-1.8,4-1.6C431.3,10.3,431.9,10.8,432.8,10.6z"/>
		</g>
		<g>
			<path class="st11" d="M428.4,35.5c0,0-8.6,0.7-13.3,6.1c-4.7,5.5-5.6,12.5-5.8,18.6c-0.2,6.2,0.1,8.9,0.1,8.9l18.7,19.6
				l13.7-11.3h4.8c0,0-0.3-7.5-0.5-11.6c-0.2-4.1,0.1-11.6,0.1-11.6l3.1,4.8l12.4-6.9c0,0-3.3-9.1-7.2-12.2
				c-3.9-3.1-8.7-3.7-10.7-4.3c-2-0.6-3.7-0.7-3.7-0.7l-0.4-1.6L429,33L428.4,35.5z"/>
		</g>
		<g>
			<path class="st12" d="M433.7,17c0,0-1.9-1.2-3.7,0.2c-1.4,1-1.1,2.7-0.7,3.5c0.4,0.7,1.5,1.5,1.5,1.5L429,33.2l5.7,3.2l5-3
				l-0.1-7.3c0,0,1.9-0.7,2.8-2.6c1-2,0.7-3.2,0.7-3.2s1.3-0.5,1.3-0.7c0.1-0.8-1.3-1.1-1.3-1.1s0.2-1.5-0.7-3.1
				c-0.7-1.5-2.8-2.6-2.8-2.6s-0.3,1.5-1.8,2.2c-1.4,0.7-2.2,1.3-2.2,2.4c-0.1,1.2-0.1,2.3-0.1,2.3l-2-0.6L433.7,17L433.7,17z"/>
		</g>
		<g>
			<path class="st12" d="M409.3,69.1c0,0,2.6,0.4,6.6,0.4c4,0,7.1-0.3,7.1-0.3l0.4,11.4l5.5,7.3l-10.3,8.2c0,0-5.3-2.3-7.4-10.8
				C409.3,77,409.3,69.1,409.3,69.1z"/>
		</g>
		<g>
			<g>
				<g>
					<g>
						<g>
							<g>
								<path class="st13" d="M438.8,21.4c-0.6-0.1-0.7-0.6-0.7-1.4c0.2-0.8,0.5-1.2,1-1c0.6,0.1,0.7,0.6,0.7,1.4
									C439.8,21.2,439.4,21.5,438.8,21.4z"/>
							</g>
						</g>
					</g>
				</g>
			</g>
		</g>
		<g>
			<path class="st10" d="M433,39.7C433,39.7,432.9,39.7,433,39.7c-0.1,0-3.4-2.3-4.7-4.1v-0.1h0.1c1.2,1.7,4,3.7,4.5,4l1.7-2.6
				c0,0,0,0,0.1,0h0.1l1.9,2.1c0.4-0.4,2.2-2.2,3.2-3.9c0-0.1,0.1-0.1,0.1,0c0.1,0,0.1,0.1,0,0.1c-1.1,2.1-3.3,4-3.3,4h-0.1
				l-1.9-2.1L433,39.7C433.1,39.7,433,39.7,433,39.7L433,39.7z"/>
		</g>
		<g>
			<path class="st10" d="M434.5,83.1L434.5,83.1C434.4,83.1,434.4,83.1,434.5,83.1c-0.1-0.3,0.2-14.6,0.1-19.6s-0.3-25.9-0.3-26.1
				c0-0.1,0-0.1,0.1-0.1l0,0c0.1,0,0.1,0,0.1,0.1c0,0.2,0.2,21.2,0.3,26.1C434.9,68.4,434.6,82.8,434.5,83.1L434.5,83.1z"/>
		</g>
		<g>
			<path class="st10" d="M439.4,50.8c-0.3,0-0.6,0-0.7,0c-0.1,0-0.1-0.1-0.1-0.1c0-0.1,0.1-0.1,0.1-0.1c1.9,0.1,5.5-0.3,5.6-0.3
				s0.1,0,0.1,0.1s0,0.1-0.1,0.1C444.2,50.6,441.4,50.8,439.4,50.8z"/>
		</g>
		<g>
			<path class="st10" d="M446.2,54.4L446.2,54.4C446.1,54.4,446.1,54.3,446.2,54.4c0-3.1,0.4-8.9,0.4-8.9c0-0.1,0.1-0.1,0.1-0.1
				c0.1,0,0.1,0.1,0.1,0.1C446.8,45.6,446.5,51.4,446.2,54.4C446.3,54.3,446.2,54.4,446.2,54.4z"/>
		</g>
		<g>
			<path class="st10" d="M423.2,69.3C423.1,69.3,423.1,69.3,423.2,69.3c-0.2-6.7-1.3-17.5-2.2-21.7c0-0.1,0-0.1,0.1-0.1
				c0.1,0,0.1,0,0.1,0.1C422,51.8,423.2,62.5,423.2,69.3L423.2,69.3L423.2,69.3z"/>
		</g>
		<g>
			<path class="st13" d="M433,19.9L433,19.9c-0.1,0-1-1-2.2-1.2c-0.1,0-0.1-0.1-0.1-0.1c0-0.1,0.1-0.1,0.1-0.1
				C432.1,18.7,433,19.7,433,19.9C433.2,19.7,433.2,19.8,433,19.9C433.1,19.9,433.1,19.9,433,19.9z"/>
		</g>
		<g>
			<path class="st13" d="M431.9,22.5c-0.4,0-0.7-0.1-1.2-0.2c-0.1,0-0.1-0.1-0.1-0.1c0-0.1,0.1-0.1,0.1-0.1c0.9,0.3,1.6,0.3,2,0
				c0.4-0.2,0.6-0.6,0.7-1.1c0-0.1,0.1-0.1,0.1-0.1c0.1,0,0.1,0.1,0.1,0.1c-0.1,0.7-0.4,1-0.7,1.3C432.6,22.4,432.3,22.5,431.9,22.5
				z"/>
		</g>
		<g>
			<path class="st13" d="M443.1,21.5C443.1,21.5,443,21.5,443.1,21.5c-0.6-0.1-1.3-0.4-1.4-0.4s-0.1-0.1-0.1-0.2s0.1-0.1,0.2-0.1
				c0,0,0.8,0.3,1.3,0.4C443.2,21.2,443.2,21.3,443.1,21.5L443.1,21.5z"/>
		</g>
		<g>
			<g>
				<g>
					<g>
						<path class="st10" d="M440.9,18.2c-0.2,0-0.3-0.1-0.3-0.4s0.1-0.4,0.3-0.4c0.2,0,0.3,0.1,0.3,0.4
							C441.2,18.2,441.1,18.2,440.9,18.2z"/>
					</g>
				</g>
			</g>
		</g>
		<g>
			<path class="st10" d="M439.7,16.5c-0.1,0-0.2-0.1-0.2-0.2c0-0.1,0-0.2,0.2-0.2c0.8-0.2,1.5-0.2,2.2-0.1c0.1,0,0.2,0.1,0.2,0.2
				s-0.1,0.2-0.2,0.2C441.1,16.3,440.5,16.4,439.7,16.5L439.7,16.5z"/>
		</g>
		<g>
			<path class="st13" d="M437.8,26.4c-0.8,0-1.6-0.1-1.8-0.2c-0.1,0-0.1-0.1-0.1-0.1c0-0.1,0.1-0.1,0.1-0.1c0.3,0.1,2.1,0.4,3.5-0.1
				c0.1,0,0.1,0,0.1,0.1s0,0.1-0.1,0.1C439,26.3,438.4,26.4,437.8,26.4z"/>
		</g>
	</g>
	<g>
		<path class="st7" d="M506.2,107.1H406.1c-0.1,0-0.2-0.1-0.2-0.1c0-0.1,0-0.2,0.1-0.2l35.7-29.5h0.1H532c0.1,0,0.2,0,0.2,0.1
			s0,0.2,0,0.2l-25.9,29.5C506.3,107.1,506.3,107.1,506.2,107.1z M406.6,106.8h99.6l25.6-29.1h-89.8L406.6,106.8z"/>
	</g>
	<g>
		<path class="st12" d="M455,69.6c3.1,5.9,3.3,8.1,6.7,9.6c3.5,1.5,3.7,2,10.7,2.1c6.9,0.1,24.6-0.3,24.6-0.3l-1.3-10.3l-26.4-4.5
			l-2.2-3.8L455,69.6z"/>
	</g>
	<g>
		<path class="st10" d="M448.3,58.5c0.3-1.8,3.8-3.7,8.1-5.9c3.7-2,5.2-3.4,6.2-2.6c1,0.7,2.9,2.8,4.6,6.4c1.7,3.7,1.8,5.7,1.5,6.3
			c-0.3,0.6-5.2,3-7.7,4.7c-2.5,1.7-5.6,3.4-5.6,3.4s-2.5-3.3-4-6.4C449.8,61.3,448.3,58.5,448.3,58.5z"/>
	</g>
	<g>
		<path class="st14" d="M508.2,34c-1.8,1.1-6.3,2.6-8.1,10.5s-2.8,17.2-2.8,17.2l-8.7-3.8l-4.3,10.4c0,0,16.1,6.9,20.2,7.4
			C508.6,76.3,508.2,34,508.2,34z"/>
	</g>
	<g>
		<path class="st15" d="M506.5,12.7c0.6-1,1.6-2.8,3.7-2.4c2.1,0.4,2.3,1.5,3.8,2.2c1.5,0.7,2.8,0.7,4,2.5c1.2,1.8,0.9,3.4-0.3,4.5
			c-1.1,1.2-4,0.9-5-0.2c-1-1.1-0.8-2.5-1.8-4c-0.9-1.5-2-3.1-3.6-1.9L506.5,12.7z"/>
	</g>
	<g>
		<path class="st16" d="M508.2,34c0,0-1.2,5.9-2.4,9.5c-1.2,3.7-3.7,7.4-3.7,7.4l2,2.4l0.6,17l12.1-0.3L516,30.8L508.2,34z"/>
	</g>
	<g>
		<path class="st15" d="M498.1,19.1c0,0-1.5-0.8-0.8-3.1c0.6-1.8,3.3-3.4,5.2-3.8c1.9-0.4,3.7,0,4.9,0.8c1.6,1.2,2.5,3.3,2.4,5
			c-0.1,1.7-0.8,2.8-0.8,2.8s-2.9,0-6-0.7C500,19.5,498.1,19.1,498.1,19.1z"/>
	</g>
	<g>
		<path class="st12" d="M511.7,25c-1.5-2.5-3.7-5.9-3.7-5.9s0.7-3.6-1.4-3.7c-2.2-0.2-1.7,2.6-1.4,3.6c0,0-1.1,1-2.2,0.5
			c-1-0.6-1.7-1.8-2.5-2.2c-1.6-0.7-2.2,0.3-2.2,0.3c-0.9,1.7-0.4,3.2,0.6,4.9c0.1,0.1,0.2,0.4,0.3,0.6c-0.3,0.8-0.6,1.3-0.2,1.6
			c0.3,0.1,0.7-0.1,1.1-0.3c0.8,1,2.2,2,4.3,2.1c0,0,1.4,2.1,2.3,4.3c1,2.2,1.7,5.1,1.9,6.2c0.3,1.1,0.5,2,0.5,2s1.1-1.7,2.5-3.2
			c1.3-1.5,2.2-2.3,2.2-2.3L516,31C515.9,30.9,513.3,27.5,511.7,25z"/>
	</g>
	<g>
		<path class="st17" d="M515.1,29.4c0,0-2.2,4.8-3.5,8.7c-1.3,3.9-1.6,4.8-1.6,4.8s-2.7,2.3-2.2,7.7c0.6,5.2,2.7,16.2,2.7,16.2
			l-15.5,2.5c0,0-0.5,2.7,0.3,6.6C496,79.7,497,81,497,81s14.3,0,18.6,0c4.3,0,10.2-2.1,10.6-8.6c0.4-7.5-0.7-11.1-0.7-11.1
			s-0.2-12.4-2.7-18.9C520.2,35.8,515.1,29.4,515.1,29.4z"/>
	</g>
	<g>
		<path class="st18" d="M467.3,81.3v-5.2c0-1,0.9-1.9,2-1.7l17.5,2.8v4H467.3z"/>
	</g>
	<g>
		<path class="st10" d="M466.2,81c-2.9,0-5.5-0.9-6.8-2.5c-0.7-0.8-1-1.9-0.7-2.9c0.4-1.4,1.7-2.6,3.7-3.5c2-0.8,4.3-1.1,6.7-0.9
			c2.2,0.2,4.5-0.1,6.3-0.7c1.7-0.7,3-1.7,3.6-2.8c1-2.2,0.5-3.5-0.5-4.3c-0.3,0-0.6,0-0.8,0c-1.3,0-2.6,0-4.1,0.6
			c-1.4,0.7-2.7,1.3-4.1,2.1c-0.5,0.3-0.9,0.6-1.5,0.8l0,0c-2,1-3.8,2.1-5.9-0.7c-0.1-0.2-0.1-0.4,0.1-0.6c0.2-0.1,0.4-0.1,0.6,0.1
			c1.6,2.2,2.9,1.6,4.9,0.6l0,0c0.5-0.3,1-0.6,1.5-0.7c1.4-0.7,2.7-1.4,4.1-2.1c1.6-0.7,3-0.7,4.3-0.7c0,0-0.1,0-0.1-0.1
			c-0.6-0.4-1-0.7-1.2-1.1c-0.9-1.7-1.2-3.1-1-4.4c0.3-1.8,1.7-3.5,4.1-4.9c0.6-0.4,1.1-0.7,1.7-1.1c-1-0.7-2.2-1.6-3.7-2.3
			c-2.2-1.1-3.7-2.5-4.6-4.3c-0.8-1.5-1-3.2-0.7-4.9c0.6-3.3,3.1-5.9,6-6.4c2.6-0.4,5,0.2,6.7,1.7c1.8,1.5,2.9,3.7,3,6.2
			c0.2,3.7-1.7,7.1-5.3,10c2.4,2.1,3.8,4.2,3.9,6.3c0.1,1.8-0.7,3.4-2.3,4.5c-1.7,1.1-3,1.5-4.3,1.6c0.7,1,1.1,2.4,0.1,4.7
			c-1.1,2.5-4.8,4.1-9.1,4.1c-0.5,0-1,0-1.6-0.1c-2.2-0.2-4.5,0.1-6.4,0.8c-1.8,0.7-2.9,1.8-3.3,2.9c-0.3,0.9,0.2,1.7,0.6,2.2
			c0.7,0.7,1.7,1.4,2.9,1.8c1.4,0.5,3,0.6,4.7,0.5c0.2,0,0.4,0.1,0.5,0.4c0,0.2-0.1,0.4-0.4,0.5C467.1,81,466.7,81,466.2,81z
			 M481.6,51.4c-0.6,0.5-1.2,0.8-2,1.2c-5,2.9-4.1,5.9-2.8,8.2c0.2,0.3,0.6,0.6,1,0.8c0.3,0.2,0.6,0.5,0.9,0.7
			c1.4,0,2.8-0.3,4.6-1.5c1.4-0.9,2.1-2.2,2-3.7C485.3,56.3,484.7,54,481.6,51.4z M479.4,33.7c-0.5,0-0.9,0-1.4,0.1
			c-2.6,0.4-4.9,2.8-5.3,5.7c-0.3,1.6-0.3,5.5,5,8.3c1.5,0.8,2.9,1.7,4,2.5c3.6-2.7,5.3-6,5.2-9.5c-0.1-2.2-1.1-4.3-2.7-5.6
			C482.8,34.3,481.2,33.7,479.4,33.7z"/>
	</g>
	<g>
		<path class="st19" d="M488.6,58c0,0-5.9-3.2-9.3-2.9c-3.4,0.3-5.6,1.9-7.1,3.4s-3.1,5-1.5,5.5c1.6,0.6,4.3-3.7,4.3-3.7l3.7-0.2
			c0,0-0.7,1.3-2.3,2.2c-1.6,0.7-4,1.6-3.9,2.9c0.1,1.3,1.3,1.3,3.1,1.2s3.5-1,3.5-1s1.7,1.1,3,1.7c1.3,0.6,2.6,0.7,2.6,0.7
			s1.7-1.8,2.8-4.5C488.6,60.6,488.6,58,488.6,58z"/>
	</g>
	<g>
		<path class="st19" d="M494.9,69.3c0,0-7.2,0-11.4,0.8s-5.7,2.8-6.2,3.5c-0.5,0.7-0.7,1.9,0,2.1s1.8,0.1,2.3-0.9
			c0.7-1,2.7-1.3,2.7-1.3s-1.8,1.2-2.2,3.2s-0.2,3,0.5,3.8c0.6,0.8,1.8,0.8,2.5,0.8C484,81.3,497,81,497,81s-1.1-1.4-1.7-5.4
			C494.9,71.4,494.9,69.3,494.9,69.3z"/>
	</g>
	<g>
		<path class="st13" d="M504.3,26.4C504.2,26.4,504.2,26.4,504.3,26.4c-0.1-0.2-0.1-0.2,0-0.2c1.4-0.1,2.2-0.8,2.6-1.5
			c0.6-0.7,0.7-1.6,0.7-2.2c0-0.1,0.1-0.1,0.1-0.1c0.1,0,0.1,0.1,0.1,0.1C507.9,23.9,506.8,26.1,504.3,26.4L504.3,26.4z"/>
	</g>
	<g>
		<path class="st13" d="M506.7,20.3c-0.2,0-0.3,0-0.5-0.1c-0.1,0-0.1-0.1-0.1-0.1c0-0.1,0.1-0.1,0.1-0.1c0.3,0.1,0.7,0.1,0.9-0.1
			c0.4-0.2,0.7-0.6,0.7-0.9c0-0.1,0.1-0.1,0.1-0.1c0.1,0,0.1,0.1,0.1,0.1c-0.1,0.5-0.4,0.8-0.7,1C507.1,20.3,506.8,20.3,506.7,20.3z
			"/>
	</g>
	<g>
		<path class="st13" d="M506.3,19.1C506.2,19.1,506.2,19.1,506.3,19.1c-0.1-0.2-0.1-1.8,0.1-2.6c0-0.1,0.1-0.1,0.1-0.1
			c0.1,0,0.1,0.1,0.1,0.1C506.4,17.3,506.4,18.9,506.3,19.1L506.3,19.1L506.3,19.1z"/>
	</g>
	<g>
		<path class="st10" d="M498.7,21.3C498.6,21.3,498.6,21.3,498.7,21.3c-0.1-0.1-0.2-0.1-0.1-0.2c0.2-0.4,0.7-0.9,1.2-1.1
			c0.1,0,0.2,0,0.2,0.1s0,0.2-0.1,0.2C499.4,20.5,499,21,498.7,21.3C498.8,21.3,498.7,21.3,498.7,21.3z"/>
	</g>
	<g>
		<path class="st13" d="M500.7,25C500.7,25,500.6,25,500.7,25c-0.2-0.2-0.2-0.3-0.1-0.3c0.2-0.2,0.5-0.5,0.7-0.7
			c0.1-0.1,0.2-0.1,0.2,0c0.1,0.1,0.1,0.2,0,0.2C501.2,24.4,500.9,24.7,500.7,25C500.8,25,500.7,25,500.7,25z"/>
	</g>
	<g>
		<g>
			<g>
				<g>
					<path class="st10" d="M500.5,22.3c-0.1,0.1-0.2,0.1-0.4-0.1c-0.1-0.2-0.2-0.3,0-0.4c0.1-0.1,0.2-0.1,0.4,0.1
						C500.7,22.1,500.6,22.2,500.5,22.3z"/>
				</g>
			</g>
		</g>
	</g>
	<g>
		<g>
			<g>
				<g>
					<g>
						<g>
							<path class="st13" d="M503.3,23.1c-0.5,0.4-0.9,0.2-1.4-0.4c-0.6-0.7-0.6-1.1-0.2-1.5c0.5-0.4,0.9-0.2,1.4,0.4
								C503.7,22.3,503.7,22.8,503.3,23.1z"/>
						</g>
					</g>
				</g>
			</g>
		</g>
	</g>
	<g>
		<path class="st10" d="M502.5,64L502.5,64c-0.1,0-3-1.3-5.3-2.2c-0.1,0-0.1-0.1-0.1-0.1c0-0.1,0.1-0.1,0.1-0.1
			c2.3,0.9,5.2,2.2,5.2,2.2C502.6,64,502.6,64,502.5,64C502.6,64,502.5,64,502.5,64z"/>
	</g>
	<g>
		<path class="st10" d="M510,43L510,43c-0.1-0.1-0.1-0.1-0.1-0.2c1.8-2.1,3.7-2.8,5.1-3.2c0.1,0,0.1,0,0.1,0.1s0,0.1-0.1,0.1
			C513.8,40.2,511.9,40.9,510,43C510.1,43,510,43,510,43z"/>
	</g>
	<g>
		<path class="st10" d="M510.8,40.7C510.8,40.7,510.7,40.7,510.8,40.7c-0.1,0-0.1-0.1-0.1-0.2c0,0,0.7-1.1,1.7-2.4
			c0.6-0.7,1.7-2.1,2.8-3.4c0.8-0.9,1.6-1.9,2-2.4c0,0,0.1-0.1,0.1,0c0,0,0.1,0.1,0,0.1c-0.4,0.6-1.2,1.4-2,2.4
			c-1,1.2-2.2,2.6-2.8,3.4C511.5,39.6,510.9,40.7,510.8,40.7L510.8,40.7z"/>
	</g>
	<g>
		<path class="st10" d="M525.6,61.2C525.6,61.2,525.5,61.2,525.6,61.2c-1.6-8.3-4.6-16.6-4.7-17c0-0.1,0-0.1,0.1-0.1s0.1,0,0.1,0.1
			C521.2,44.7,524.2,52.9,525.6,61.2C525.7,61.1,525.6,61.2,525.6,61.2L525.6,61.2z"/>
	</g>
	<g>
		<path class="st10" d="M510.5,66.9C510.5,66.9,510.4,66.9,510.5,66.9c-0.1-0.2-0.1-0.2,0-0.2c3.5-0.7,5.8-0.7,5.9-0.7
			c0.1,0,0.1,0,0.1,0.1s0,0.1-0.1,0.1C516.3,66,514,66.2,510.5,66.9L510.5,66.9z"/>
	</g>
	<g>
		<path class="st10" d="M482.5,73.5C482.5,73.5,482.4,73.5,482.5,73.5c-0.1-0.1-0.1-0.2-0.1-0.2c1.3-0.9,2.4-1.2,2.4-1.2
			c0.1,0,0.1,0,0.1,0.1s0,0.1-0.1,0.1C484.9,72.4,483.8,72.7,482.5,73.5L482.5,73.5z"/>
	</g>
	<g>
		<path class="st10" d="M483.7,81.3C483.7,81.3,483.6,81.3,483.7,81.3c-0.6-0.5-1-1.7-0.9-3.3c0.1-1.8,1.7-3.2,2.5-3.5
			c0.1,0,0.1,0,0.1,0.1s0,0.1-0.1,0.1c-0.7,0.3-2.2,1.6-2.4,3.3c-0.1,1.7,0.5,2.7,0.8,3.1C483.8,81.2,483.8,81.2,483.7,81.3
			C483.8,81.3,483.7,81.3,483.7,81.3z"/>
	</g>
	<g>
		<path class="st10" d="M486,81.2L486,81.2c-0.1-0.1-0.8-0.7-0.8-2.2c0-1.3,0.9-2.6,1.9-3.1c0.1,0,0.1,0,0.1,0V76
			c-0.7,0.4-1.7,1.6-1.8,2.9c0,1.3,0.7,2,0.7,2C486.1,81.1,486.1,81.2,486,81.2C486.1,81.2,486,81.2,486,81.2z"/>
	</g>
	<g>
		<path class="st10" d="M488,81.2C487.9,81.2,487.9,81.2,488,81.2c-0.1,0-0.7-0.6-0.6-1.7c0.1-1,0.7-2,1.9-2.5c0.1,0,0.1,0,0.1,0
			c0,0.1,0,0.1,0,0.1c-1,0.6-1.7,1.5-1.8,2.4c-0.1,1,0.4,1.5,0.5,1.5C488.1,81.1,488.1,81.2,488,81.2L488,81.2z"/>
	</g>
	<g>
		<path class="st7" d="M449.7,99.5h-21.1c-0.1,0-0.2-0.1-0.2-0.1c0-0.1,0-0.2,0.1-0.2l14.8-13.7l0.1-0.1h21.1c0.1,0,0.2,0.1,0.2,0.1
			c0,0.1,0,0.2-0.1,0.2L449.7,99.5C449.8,99.5,449.7,99.5,449.7,99.5z M429.1,99.2h20.5l14.3-13.3h-20.5L429.1,99.2z"/>
	</g>
	<g>
		<path class="st7" d="M500.2,95.1h-31.1c-0.1,0-0.2,0-0.2-0.1s0-0.2,0-0.2l5-6.4c0-0.1,0.1-0.1,0.2-0.1h31.1c0.1,0,0.2,0,0.2,0.1
			s0,0.2,0,0.2l-5,6.4C500.3,95,500.2,95.1,500.2,95.1z M469.5,94.7h30.6l4.6-6h-30.6L469.5,94.7z"/>
	</g>
	<g>
		<path class="st20" d="M507.1,84.7h-37.2c-2.2,0-3.9-1.8-3.9-3.9V53.1c0-2.2,1.8-3.9,3.9-3.9h37.2c2.2,0,3.9,1.8,3.9,3.9v27.7
			C511.1,83,509.3,84.7,507.1,84.7z M469.9,50c-1.7,0-3.1,1.4-3.1,3.1v27.7c0,1.7,1.4,3.1,3.1,3.1h37.2c1.7,0,3.1-1.4,3.1-3.1V53.1
			c0-1.7-1.4-3.1-3.1-3.1C507.1,50,469.9,50,469.9,50z"/>
	</g>
	<g>
		<path class="st20" d="M499.5,100h-23.3c-0.1,0-0.2-0.1-0.2-0.2v-2.2c0-0.1,0.1-0.2,0.2-0.2h7.5V70.8c0-0.1,0.1-0.2,0.2-0.2h8
			c0.1,0,0.2,0.1,0.2,0.2v26.7h7.5c0.1,0,0.2,0.1,0.2,0.2v2.2C499.7,99.9,499.6,100,499.5,100z M476.4,99.6h22.9v-1.8h-7.5
			c-0.1,0-0.2-0.1-0.2-0.2V71h-7.6v26.7c0,0.1-0.1,0.2-0.2,0.2h-7.5L476.4,99.6L476.4,99.6z"/>
	</g>
	<g>
		<path class="st21" d="M484.5,13.1c-1.1,0-1.7-0.7-2.2-1.2c-0.6-0.6-1-1.1-2-1.1c-0.9,0-1.5,0.6-2,1.1c-0.6,0.7-1.1,1.2-2.2,1.2
			c-1.1,0-1.7-0.7-2.2-1.2c-0.6-0.6-1-1.1-2-1.1c-0.9,0-1.5,0.6-2,1.1c-0.6,0.7-1.1,1.2-2.2,1.2c-1.1,0-1.7-0.7-2.2-1.2
			c-0.6-0.6-1-1.1-2-1.1c-0.1,0-0.2-0.1-0.2-0.2s0.1-0.2,0.2-0.2c1.1,0,1.7,0.7,2.2,1.2c0.6,0.6,1,1.1,2,1.1c0.9,0,1.5-0.6,2-1.1
			c0.6-0.7,1.1-1.2,2.2-1.2c1.1,0,1.7,0.7,2.2,1.2c0.6,0.6,1,1.1,2,1.1c0.9,0,1.5-0.6,2-1.1c0.6-0.7,1.1-1.2,2.2-1.2
			c1.1,0,1.7,0.7,2.2,1.2c0.6,0.6,1,1.1,2,1.1c0.1,0,0.2,0.1,0.2,0.2S484.5,13.1,484.5,13.1z"/>
	</g>
	<g>
		<path class="st21" d="M484.5,19.7c-1.1,0-1.7-0.7-2.2-1.2c-0.6-0.6-1-1.1-2-1.1c-0.9,0-1.5,0.6-2,1.1c-0.6,0.7-1.1,1.2-2.2,1.2
			c-1.1,0-1.7-0.7-2.2-1.2c-0.6-0.6-1-1.1-2-1.1c-0.9,0-1.5,0.6-2,1.1c-0.6,0.7-1.1,1.2-2.2,1.2c-1.1,0-1.7-0.7-2.2-1.2
			c-0.6-0.6-1-1.1-2-1.1c-0.1,0-0.2-0.1-0.2-0.2s0.1-0.2,0.2-0.2c1.1,0,1.7,0.7,2.2,1.2c0.6,0.6,1,1.1,2,1.1c0.9,0,1.5-0.6,2-1.1
			c0.6-0.7,1.1-1.2,2.2-1.2c1.1,0,1.7,0.7,2.2,1.2c0.6,0.6,1,1.1,2,1.1c0.9,0,1.5-0.6,2-1.1c0.6-0.7,1.1-1.2,2.2-1.2
			c1.1,0,1.7,0.7,2.2,1.2c0.6,0.6,1,1.1,2,1.1c0.1,0,0.2,0.1,0.2,0.2C484.6,19.6,484.5,19.7,484.5,19.7z"/>
	</g>
	<g>
		<path class="st21" d="M528.4,41.9L528.4,41.9c-0.2-0.1-0.2-0.2-0.1-0.3c0.7-0.9,1.6-0.9,2.4-1c0.7-0.1,1.5-0.1,2.2-0.8
			c0.6-0.7,0.5-1.5,0.4-2.2c-0.2-0.8-0.3-1.7,0.5-2.5c0.7-0.9,1.6-0.9,2.4-1c0.7-0.1,1.5-0.1,2.2-0.8c0.6-0.7,0.5-1.5,0.4-2.2
			c-0.2-0.8-0.3-1.7,0.5-2.5c0.7-0.9,1.6-0.9,2.4-1c0.7-0.1,1.5-0.1,2.2-0.8c0.1-0.1,0.2-0.1,0.3,0s0.1,0.2,0,0.3
			c-0.7,0.9-1.6,0.9-2.4,1c-0.7,0.1-1.5,0.1-2.2,0.8c-0.6,0.7-0.5,1.5-0.4,2.2c0.2,0.8,0.3,1.7-0.5,2.5c-0.7,0.9-1.6,0.9-2.4,1
			c-0.7,0.1-1.5,0.1-2.2,0.8c-0.6,0.7-0.5,1.5-0.4,2.2c0.2,0.8,0.3,1.7-0.5,2.5c-0.7,0.9-1.6,0.9-2.4,1c-0.7,0.1-1.5,0.1-2.2,0.8
			C528.5,41.9,528.4,41.9,528.4,41.9z"/>
	</g>
	<g>
		<path class="st21" d="M402.4,105.5c-0.1,0-0.1,0.1-0.2,0c-1.1-0.3-1.5-1-1.9-1.8c-0.4-0.7-0.7-1.3-1.6-1.6
			c-0.9-0.3-1.6,0.2-2.2,0.6c-0.7,0.5-1.4,0.9-2.5,0.7s-1.5-1-1.9-1.8c-0.4-0.7-0.7-1.3-1.6-1.6c-0.9-0.3-1.6,0.2-2.2,0.6
			c-0.7,0.5-1.4,0.9-2.5,0.7s-1.5-1-1.9-1.8c-0.4-0.7-0.7-1.3-1.6-1.6c-0.1,0-0.2-0.1-0.1-0.3c0-0.1,0.1-0.2,0.3-0.1
			c1.1,0.3,1.5,1,1.9,1.8c0.4,0.7,0.7,1.3,1.6,1.6c0.9,0.3,1.6-0.2,2.2-0.6c0.7-0.5,1.4-0.9,2.5-0.7s1.5,1,1.9,1.8
			c0.4,0.7,0.7,1.3,1.6,1.6c0.9,0.3,1.6-0.2,2.2-0.6c0.7-0.5,1.4-0.9,2.5-0.7s1.5,1,1.9,1.8c0.4,0.7,0.7,1.3,1.6,1.6
			C402.5,105.2,402.6,105.3,402.4,105.5C402.4,105.4,402.4,105.5,402.4,105.5z"/>
	</g>
	<g>
		<path class="st20" d="M494.7,39.4c-1.1,0-2-0.8-2-2s0.8-2,2-2c1.1,0,2,0.8,2,2S495.7,39.4,494.7,39.4z M494.7,35.8
			c-0.8,0-1.6,0.7-1.6,1.6s0.7,1.6,1.6,1.6c0.8,0,1.6-0.7,1.6-1.6C496.3,36.5,495.5,35.8,494.7,35.8z"/>
	</g>
	<g>
		<path class="st22" d="M451.3,32.4c-0.9,0-1.8-0.7-1.8-1.8c0-0.9,0.7-1.8,1.8-1.8c0.9,0,1.8,0.7,1.8,1.8
			C453.1,31.5,452.3,32.4,451.3,32.4z M451.3,29.3c-0.7,0-1.3,0.6-1.3,1.3c0,0.7,0.6,1.3,1.3,1.3s1.3-0.6,1.3-1.3
			C452.7,29.9,452,29.3,451.3,29.3z"/>
	</g>
	<g>
		<path class="st7" d="M449.5,96.6h-15c-0.1,0-0.2-0.1-0.2-0.2s0.1-0.2,0.2-0.2h15c0.1,0,0.2,0.1,0.2,0.2S449.6,96.6,449.5,96.6z"/>
	</g>
	<g>
		<path class="st7" d="M452,94.5h-15c-0.1,0-0.2-0.1-0.2-0.2s0.1-0.2,0.2-0.2h15c0.1,0,0.2,0.1,0.2,0.2
			C452.3,94.4,452.2,94.5,452,94.5z"/>
	</g>
	<g>
		<path class="st7" d="M454.7,92.3h-15c-0.1,0-0.2-0.1-0.2-0.2s0.1-0.2,0.2-0.2h15c0.1,0,0.2,0.1,0.2,0.2S454.8,92.3,454.7,92.3z"/>
	</g>
	<g>
		<path class="st7" d="M457.2,90.2h-15c-0.1,0-0.2-0.1-0.2-0.2s0.1-0.2,0.2-0.2h15c0.1,0,0.2,0.1,0.2,0.2
			C457.4,90.1,457.3,90.2,457.2,90.2z"/>
	</g>
	<g>
		<path class="st7" d="M459.7,88h-15c-0.1,0-0.2-0.1-0.2-0.2s0.1-0.2,0.2-0.2h15c0.1,0,0.2,0.1,0.2,0.2S459.8,88,459.7,88z"/>
	</g>
	<g>
		<g>
			<path class="st7" d="M529.8,96.8c-0.9,0-1.9,0-2.9,0c-4.5,0-8.4-0.1-11.1-0.7c-2.6-0.7-3.8-1.9-3.8-4.1c0-1,0.3-1.9,1-2.5
				c2-2,6.7-2.1,14-2h0.4c4.9,0,8.3,0.1,10.7,0.7c2.5,0.7,3.7,1.9,3.7,4.1c0,1.1-0.4,2-1,2.6C539.2,96.6,535.5,96.8,529.8,96.8z
				 M524.6,87.9c-5.6,0-9.6,0.3-11.2,1.9c-0.6,0.6-0.8,1.3-0.8,2.2c0,4.1,4.4,4.3,14.4,4.4c7.3,0.1,11.8,0,13.7-1.8
				c0.6-0.6,0.8-1.3,0.8-2.3c0-2.1-1-3.2-3.4-3.7s-5.8-0.6-10.6-0.7h-0.4C526.2,87.9,525.4,87.9,524.6,87.9z"/>
		</g>
		<g>
			<g>
				<g>
					<g>
						<g>
							<path class="st23" d="M538.5,92.3c0,2.2-3.9,2.2-11.5,2.2c-7.6-0.1-11.5-0.2-11.5-2.4c0-2.2,3.9-2.2,11.5-2.2
								C534.7,90,538.5,90,538.5,92.3z"/>
						</g>
					</g>
				</g>
			</g>
		</g>
		<g>
			<path class="st24" d="M521.3,93.1c-0.1,0-0.2-0.1-0.2-0.2c0,0-1.1-4.4-1.7-7.9c-0.3-1.8-0.6-3.8-0.7-5.3c-0.2-2.8,0.1-3,0.3-3.1
				c0.1,0,0.1,0,0.2,0c0.2,0.1,0.7,0.3,3.9,7.5c0.7,1.4,1.5,4.7,2,6.6c0.1-2.4,0.3-7.3,1.2-11.7c1.3-6.2,5.6-11.8,6.7-12.5
				c0.1,0,0.2-0.1,0.3-0.1c0.2,0.1,0.3,0.3,0.2,1.5c-0.1,0.7-0.2,1.8-0.4,3.1c-0.4,2.6-0.8,5.6-1.2,7.3c-0.6,3-1.8,9.2-2.3,12.3
				c0.9-2.1,2.7-5.8,4-7.8c0.9-1.3,2.1-2.8,3.1-4c1.1-1.2,1.9-1.9,2.2-1.8c0.1,0,0.2,0.1,0.2,0.1c0.1,0.1,0.2,0.4-0.7,3.5
				c-0.6,1.7-1.2,3.6-1.7,4.8c-0.9,2.4-3.4,7.4-3.5,7.4c-0.1,0.1-0.2,0.1-0.3,0.1c-0.1-0.1-0.1-0.2-0.1-0.3c0-0.1,2.5-5,3.5-7.4
				c1.1-3,2.4-6.8,2.4-7.7c-0.7,0.4-2.9,2.7-4.8,5.6c-2,2.9-4.7,9.3-4.8,9.4c0,0.1-0.2,0.1-0.3,0.1s-0.2-0.1-0.1-0.2
				c0-0.1,2-9.9,2.7-14c0.8-4.9,1.7-10.6,1.5-11.5c-0.4,0.3-1.6,1.6-2.9,3.7c-1.2,2-2.8,5.1-3.6,8.5c-1.3,6.1-1.3,13.1-1.3,13.2
				s-0.1,0.2-0.2,0.2c-0.1,0-0.2-0.1-0.2-0.2s-1.5-6.2-2.3-8.1c-2.5-5.7-3.4-6.9-3.7-7.2c-0.1,0.2-0.2,0.7,0,2.8
				c0.1,1.5,0.4,3.5,0.7,5.2C520,88.7,521.2,93,521.3,93.1C521.5,93,521.5,93.1,521.3,93.1L521.3,93.1z M519.2,77L519.2,77L519.2,77
				z"/>
		</g>
		<g>
			<path class="st7" d="M540.5,103.3h-27c-0.7,0-1.4-0.7-1.4-1.4v-9.8c0-0.1,0.1-0.2,0.2-0.2c0.1,0,0.2,0.1,0.2,0.2v9.8
				c0,0.6,0.5,1,1,1h27c0.6,0,1-0.5,1-1v-9.8c0-0.1,0.1-0.2,0.2-0.2c0.1,0,0.2,0.1,0.2,0.2v9.8C541.9,102.6,541.2,103.3,540.5,103.3
				z"/>
		</g>
		<g>
			<path class="st7" d="M535.6,112h-18.2c-0.1,0-0.2-0.1-0.2-0.2V103c0-0.1,0.1-0.2,0.2-0.2h18.3c0.1,0,0.2,0.1,0.2,0.2v8.8
				C535.8,111.9,535.7,112,535.6,112z M517.6,111.6h17.8v-8.3h-17.8V111.6z"/>
		</g>
	</g>
	<g>
		<g>
			<path class="st7" d="M438.7,26.4L438.7,26.4l-3.3-3.8l-2.4-0.5c-0.1,0-0.1-0.1-0.1-0.1c0-0.1,0.1-0.1,0.1-0.1l2.4,0.5
				c0,0,0,0,0.1,0l3.2,3.8c0.4-0.1,2.5-0.5,3.8-2.2c1.5-2,2.1-4.2,1.7-4.9c-0.4,0-2.2,0.2-3.7,0c-1.6-0.2-6.8-2-7-2
				c-0.1,0-0.1-0.1-0.1-0.1c0-0.1,0.1-0.1,0.1-0.1c0.1,0,5.4,1.8,7,2s3.7,0,3.7-0.1h0.1c0.7,0.7-0.2,3.2-1.6,5.2
				C441.4,26.1,438.8,26.4,438.7,26.4L438.7,26.4z"/>
		</g>
		<g>
			<path class="st7" d="M435.6,22.6L435.6,22.6C435.5,22.6,435.5,22.5,435.6,22.6c-0.1-0.1,0.4-1.7,0.6-2.4c0.2-0.7,0.5-2,0.5-2
				c0-0.1,0.1-0.1,0.1-0.1c0.1,0,0.1,0.1,0.1,0.1s-0.3,1.2-0.5,2C436.1,20.9,435.7,22.5,435.6,22.6
				C435.7,22.6,435.6,22.6,435.6,22.6z"/>
		</g>
		<g>
			<path class="st7" d="M438.6,20.2L438.6,20.2c0,0-1.4-0.5-2.2-0.7c-0.1,0-0.1-0.1-0.1-0.1c0-0.1,0.1-0.1,0.1-0.1
				c0.8,0.3,2.2,0.7,2.2,0.7C438.7,20,438.7,20,438.6,20.2C438.7,20.1,438.6,20.2,438.6,20.2z"/>
		</g>
		<g>
			<path class="st7" d="M437.7,22.3L437.7,22.3l-1.8-1.1c0,0-0.1-0.1,0-0.1c0,0,0.1-0.1,0.1,0L437.7,22.3
				C437.8,22.2,437.8,22.3,437.7,22.3C437.8,22.3,437.7,22.3,437.7,22.3z"/>
		</g>
	</g>
	<g>
		<g>
			<path class="st7" d="M503.3,26.5c-0.4,0-0.7,0-1-0.1c-1.4-0.2-3.2-1.1-3.6-1.6s-0.1-1.4-0.1-1.5c0,0,0-0.1,0.1-0.1
				c0,0,1.2-0.1,2.2-0.6c0.9-0.5,3.6-3.4,4-4.9c0-0.1,0.1-0.1,0.1-0.1c0.1,0,0.1,0.1,0.1,0.1c-0.5,1.6-3.1,4.5-4.1,5
				c-0.8,0.5-1.9,0.6-2.2,0.7c-0.1,0.2-0.2,0.8,0.1,1.2c0.4,0.4,2.1,1.3,3.5,1.5c1.4,0.2,2.5,0,3.2-0.3c0.1-0.4,0.8-3.4,0.9-5.6
				c0-0.1,0-0.1,0.1-0.1s0.1,0.1,0.1,0.1c-0.1,2.4-0.9,5.7-0.9,5.7s0,0.1-0.1,0.1C505.1,26.3,504.3,26.5,503.3,26.5z"/>
		</g>
		<g>
			<path class="st7" d="M505.8,22c-1,0-2.5-0.6-2.9-1.1v-0.1h0.1c0.5,0.7,2.4,1.2,3.2,0.9c0.1,0,0.1,0,0.1,0.1s0,0.1-0.1,0.1
				C506.2,22,506,22,505.8,22z"/>
		</g>
		<g>
			<path class="st7" d="M502.6,23.9L502.6,23.9c-0.1,0-0.1-0.1-0.1-0.2l1.2-2.3c0-0.1,0.1-0.1,0.1,0c0.1,0,0.1,0.1,0,0.1L502.6,23.9
				C502.7,23.9,502.6,23.9,502.6,23.9z"/>
		</g>
		<g>
			<path class="st7" d="M504.5,24.2L504.5,24.2C504.4,24.2,504.4,24.1,504.5,24.2l0.4-2.3c0-0.1,0.1-0.1,0.1-0.1
				c0.1,0,0.1,0.1,0.1,0.1L504.5,24.2C504.6,24.1,504.6,24.2,504.5,24.2z"/>
		</g>
	</g>
	<g>
		<path class="st20" d="M473.1,30.3c-0.1,0-0.1,0-0.2-0.1l-2.1-3c-0.1-0.1,0-0.2,0.1-0.3c0.1-0.1,0.2,0,0.3,0.1l2.1,3
			C473.4,30.1,473.3,30.2,473.1,30.3C473.2,30.2,473.2,30.3,473.1,30.3z"/>
	</g>
	<g>
		<path class="st20" d="M483.3,30.8L483.3,30.8c-0.2-0.1-0.2-0.2-0.2-0.3l1.8-4.6c0-0.1,0.2-0.2,0.3-0.1c0.1,0,0.2,0.2,0.1,0.3
			l-1.8,4.6C483.5,30.7,483.4,30.8,483.3,30.8z"/>
	</g>
</g>
<g>
	<rect x="29.8" y="51.3" class="st4" width="369.3" height="53"/>
	<text transform="matrix(1 0 0 1 29.83 61.6328)" class="st25 st2 st26">Informate con expertos sobre diabetes, sobrepeso,</text>
	<text transform="matrix(1 0 0 1 29.83 78.4329)" class="st25 st2 st26">cambio de hábitos, presión alta y mucho más.</text>
</g>
</svg>
