<svg xmlns="http://www.w3.org/2000/svg" xmlns:xlink="http://www.w3.org/1999/xlink" width="123" height="123" viewBox="0 0 123 123"><defs><style>.a{stroke:#f5f6fb;fill:url(#a);}.b,.d{fill:none;}.b{stroke:#fff;stroke-linecap:round;stroke-linejoin:round;stroke-width:2px;}.c{stroke:none;}.e{filter:url(#b);}</style><linearGradient id="a" y1="0.461" x2="1.424" y2="0.71" gradientUnits="objectBoundingBox"><stop offset="0" stop-color="#006cff"/><stop offset="1" stop-color="#74a6eb"/></linearGradient><filter id="b" x="0" y="0" width="123" height="123" filterUnits="userSpaceOnUse"><feOffset dy="10" input="SourceAlpha"/><feGaussianBlur stdDeviation="10" result="c"/><feFlood flood-color="#1c1f34" flood-opacity="0.102"/><feComposite operator="in" in2="c"/><feComposite in="SourceGraphic"/></filter></defs><g transform="translate(30 20)"><g class="e" transform="matrix(1, 0, 0, 1, -30, -20)"><g class="a" transform="translate(30 20)"><circle class="c" cx="31.5" cy="31.5" r="31.5"/><circle class="d" cx="31.5" cy="31.5" r="31"/></g></g><g transform="translate(16 16)"><path class="b" d="M23.326,11.808c0,4.865-4.553,8.808-10.163,8.808a11.518,11.518,0,0,1-4.743-.989l-.881.379L3,21.971l1.558-5.42A7.886,7.886,0,0,1,3,11.808C3,6.943,7.553,3,13.163,3c4.919,0,9.025,3.035,9.96,7.06a7.439,7.439,0,0,1,.2,1.748Z" transform="translate(0 0)"/><path class="b" d="M21.919,8.21a8.5,8.5,0,0,1,4.268,7.168,7.886,7.886,0,0,1-1.558,4.743l1.558,5.42L20.767,23.2a11.518,11.518,0,0,1-4.743.989,10.122,10.122,0,0,1-9.634-6.03" transform="translate(1.204 1.85)"/></g></g></svg>