<svg xmlns="http://www.w3.org/2000/svg" width="31" height="31" viewBox="0 0 31 31"><defs><style>.a{fill:#006cff;}.b{fill:none;}.c{fill:#fff;}</style></defs><g transform="translate(-241 -367)"><circle class="a" cx="15.5" cy="15.5" r="15.5" transform="translate(241 367)"/><g transform="translate(247.289 373.29)"><path class="b" d="M0,0H19.421V19.421H0Z"/><path class="c" d="M3.071,15.844l13.343-5.462a.718.718,0,0,0,0-1.343L3.071,3.577a.757.757,0,0,0-1.063.664L2,7.608a.738.738,0,0,0,.665.723l10.8,1.38-10.8,1.373a.751.751,0,0,0-.665.73l.008,3.366A.757.757,0,0,0,3.071,15.844Z"/></g></g></svg>