<svg xmlns="http://www.w3.org/2000/svg" width="167" height="51.308" viewBox="0 0 167 51.308">
  <g id="logo-planview-leankit" transform="translate(-1.7 -1.425)">
    <g id="Grupo_12733" data-name="Grupo 12733" transform="translate(1.7 1.425)">
      <g id="Grupo_12732" data-name="Grupo 12732" transform="translate(62.846)">
        <g id="Grupo_12729" data-name="Grupo 12729">
          <path id="Trazado_686" data-name="Trazado 686" d="M94.4,4.808h0a6.581,6.581,0,0,0-2.231-1A10.762,10.762,0,0,0,89.323,3.5H84.862A1.336,1.336,0,0,0,83.4,4.962V22.885a1.536,1.536,0,0,0,.154.692,1.678,1.678,0,0,0,.308.385,1.682,1.682,0,0,1,.385.231c.154,0,.231.077.385.077a.836.836,0,0,0,.385-.077.665.665,0,0,0,.462-.231.768.768,0,0,0,.308-.385,1.536,1.536,0,0,0,.154-.692V14.654h3.308a11.065,11.065,0,0,0,2.846-.385,6.689,6.689,0,0,0,2.231-1.077,5.464,5.464,0,0,0,1.462-1.769,6.1,6.1,0,0,0,.538-2.462A5.05,5.05,0,0,0,95.785,6.5,4.809,4.809,0,0,0,94.4,4.808Zm-.615,4.231a3.073,3.073,0,0,1-1.154,2.538,5.715,5.715,0,0,1-3.538.923H85.862V5.654h3.231a6.209,6.209,0,0,1,3.462.846A2.764,2.764,0,0,1,93.785,9.038Z" transform="translate(-83.4 -1.904)" fill="#202433"/>
          <path id="Trazado_687" data-name="Trazado 687" d="M103.938,23.483c.154.077.231.154.385.154s.231.077.308.077a.463.463,0,0,0,.308-.077c.154,0,.231-.077.385-.154a.768.768,0,0,0,.308-.385,1.536,1.536,0,0,0,.154-.692V2.713a1.837,1.837,0,0,0-.154-.692,1.678,1.678,0,0,0-.308-.385h0c-.154-.077-.231-.154-.385-.154a1.067,1.067,0,0,0-.692,0c-.154,0-.231.077-.385.154a.768.768,0,0,0-.308.385,1.536,1.536,0,0,0-.154.692V22.483a1.837,1.837,0,0,0,.154.692A1.678,1.678,0,0,1,103.938,23.483Z" transform="translate(-88.015 -1.425)" fill="#202433"/>
          <path id="Trazado_688" data-name="Trazado 688" d="M121.462,25.9a1.051,1.051,0,0,0,.308-.846v-.231a.462.462,0,0,0-.077-.308c0-.231-.077-.538-.077-.769V16.977a6.432,6.432,0,0,0-.385-2.231,6.161,6.161,0,0,0-1.154-1.615,5.97,5.97,0,0,0-1.692-.923,6.178,6.178,0,0,0-2.077-.308,7.741,7.741,0,0,0-2.769.462,8.68,8.68,0,0,0-2.077,1.077,1.183,1.183,0,0,0-.462.846.988.988,0,0,0,.308.769,1.16,1.16,0,0,0,1.538,0,5.611,5.611,0,0,1,3.231-1.077,3.381,3.381,0,0,1,2.462.769,3.206,3.206,0,0,1,.846,2.385v.231c-1.154,0-2.231.077-3.308.154a12.115,12.115,0,0,0-3.077.615,4.76,4.76,0,0,0-2.154,1.385A3.952,3.952,0,0,0,110,22.131a4.046,4.046,0,0,0,.462,2,3.829,3.829,0,0,0,1.154,1.308,5.766,5.766,0,0,0,1.538.769,5.856,5.856,0,0,0,1.615.231,6.472,6.472,0,0,0,2.846-.615,5.422,5.422,0,0,0,1.769-1.538,2.617,2.617,0,0,0,.077.769,1.525,1.525,0,0,0,.462,1,1.228,1.228,0,0,0,.615.231A3.677,3.677,0,0,0,121.462,25.9Zm-2.154-6.615v.769A4.017,4.017,0,0,1,119,21.669a4.5,4.5,0,0,1-.769,1.308A3.7,3.7,0,0,1,117,23.9a3.913,3.913,0,0,1-1.692.308,5.194,5.194,0,0,1-1.077-.154,4.705,4.705,0,0,1-.923-.385,1.357,1.357,0,0,1-.615-.692,2.234,2.234,0,0,1-.231-1.077A1.585,1.585,0,0,1,113,20.592a4.211,4.211,0,0,1,1.538-.846,15.511,15.511,0,0,1,2.154-.385c.769-.077,1.615-.077,2.385-.077Z" transform="translate(-89.538 -3.842)" fill="#202433"/>
          <path id="Trazado_689" data-name="Trazado 689" d="M129.331,14.215V24.831a2.246,2.246,0,0,0,.154.692,1.678,1.678,0,0,0,.308.385c.154.077.231.154.385.154a1.06,1.06,0,0,0,.692,0,.588.588,0,0,0,.385-.154.768.768,0,0,0,.308-.385,1.536,1.536,0,0,0,.154-.692v-6a6.519,6.519,0,0,1,.308-2.231,5.758,5.758,0,0,1,.846-1.538,4.693,4.693,0,0,1,1.231-.923,3.017,3.017,0,0,1,1.385-.308,3.181,3.181,0,0,1,1.615.308,2.678,2.678,0,0,1,1,.846,3.724,3.724,0,0,1,.538,1.385,12.766,12.766,0,0,1,.154,1.846v6.462a2.246,2.246,0,0,0,.154.692,1.678,1.678,0,0,0,.308.385c.154.077.231.154.385.154s.231.077.308.077a.462.462,0,0,0,.308-.077.588.588,0,0,0,.385-.154.768.768,0,0,0,.308-.385,1.536,1.536,0,0,0,.154-.692V17.369a6.539,6.539,0,0,0-1.308-4.154,4.944,4.944,0,0,0-4-1.615,5.467,5.467,0,0,0-2.846.769,4.511,4.511,0,0,0-1.538,1.385v-.769a1.449,1.449,0,0,0-.154-.615c-.077-.154-.231-.231-.308-.385-.154-.077-.231-.154-.385-.154a.849.849,0,0,0-.615,0c-.154,0-.231.077-.385.154a.768.768,0,0,0-.308.385,1.449,1.449,0,0,0-.154.615v.462Z" transform="translate(-93.946 -3.773)" fill="#202433"/>
          <path id="Trazado_690" data-name="Trazado 690" d="M160.2,13.131a1.613,1.613,0,0,0-.308-.846,1.226,1.226,0,0,0-.923-.308,1.449,1.449,0,0,0-.615.154,1.675,1.675,0,0,0-.538.692l-4.077,10.154-4-10.154a1.607,1.607,0,0,0-.615-.769,1.81,1.81,0,0,0-.615-.154,1.19,1.19,0,0,0-1.308,1.154,2.378,2.378,0,0,0,.154.615l4.692,11.154a1.812,1.812,0,0,0,.769,1,1.667,1.667,0,0,0,1.692,0,1.534,1.534,0,0,0,.769-1l4.692-11.154A.573.573,0,0,0,160.2,13.131Z" transform="translate(-98.123 -3.842)" fill="#202433"/>
          <path id="Trazado_691" data-name="Trazado 691" d="M169.423,12.237c-.154-.077-.231-.154-.385-.154a1.067,1.067,0,0,0-.692,0,.588.588,0,0,0-.385.154.768.768,0,0,0-.308.385,1.536,1.536,0,0,0-.154.692V24.852a2.246,2.246,0,0,0,.154.692,1.679,1.679,0,0,0,.308.385c.154.077.231.154.385.154s.231.077.308.077a.462.462,0,0,0,.308-.077.588.588,0,0,0,.385-.154.768.768,0,0,0,.308-.385,1.536,1.536,0,0,0,.154-.692V13.313a2.246,2.246,0,0,0-.154-.692A.423.423,0,0,0,169.423,12.237Z" transform="translate(-102.808 -3.871)" fill="#202433"/>
          <path id="Trazado_692" data-name="Trazado 692" d="M168.615,7.031a1.519,1.519,0,0,0,1.077-.462,1.636,1.636,0,0,0,.538-1.154,1.384,1.384,0,0,0-.538-1.154,1.487,1.487,0,0,0-2.154,0h0A1.531,1.531,0,0,0,167,5.492a1.384,1.384,0,0,0,.538,1.154A1.668,1.668,0,0,0,168.615,7.031Z" transform="translate(-102.692 -1.973)" fill="#202433"/>
          <path id="Trazado_693" data-name="Trazado 693" d="M175.977,24.208a7.684,7.684,0,0,0,2.231,1.538,6.953,6.953,0,0,0,2.846.538,7.078,7.078,0,0,0,2.923-.538,6.457,6.457,0,0,0,2.385-1.692,1.609,1.609,0,0,0,.308-.462.693.693,0,0,0,.077-.385.947.947,0,0,0-.385-.769,1.367,1.367,0,0,0-.769-.308,1.33,1.33,0,0,0-.923.462,8.067,8.067,0,0,1-1.462,1.154,4.772,4.772,0,0,1-2.231.538,4.563,4.563,0,0,1-1.769-.385,3.821,3.821,0,0,1-1.462-1,4.926,4.926,0,0,1-1-1.462,5.022,5.022,0,0,1-.385-1.538h9.769a1.156,1.156,0,0,0,1.308-1.231,8.046,8.046,0,0,0-.462-2.769,6.732,6.732,0,0,0-1.308-2.154,6.147,6.147,0,0,0-2.077-1.385A7.315,7.315,0,0,0,180.9,11.9a6.593,6.593,0,0,0-2.769.538,6.441,6.441,0,0,0-2.231,1.538,5.933,5.933,0,0,0-1.462,2.308,6.953,6.953,0,0,0-.538,2.846,6.953,6.953,0,0,0,.538,2.846A7.683,7.683,0,0,0,175.977,24.208Zm.462-6.385a4.222,4.222,0,0,1,.385-1.308,5.054,5.054,0,0,1,.923-1.308,4.365,4.365,0,0,1,1.385-.923,4.14,4.14,0,0,1,1.692-.308,3.828,3.828,0,0,1,3,1.154,4.54,4.54,0,0,1,1.154,2.692h-8.538Z" transform="translate(-104.285 -3.842)" fill="#202433"/>
          <path id="Trazado_694" data-name="Trazado 694" d="M212.462,12.3h0a1.157,1.157,0,0,0-.846-.308,1.449,1.449,0,0,0-.615.154,1.522,1.522,0,0,0-.538.769l-2.923,9.538-3.231-9.385a1.487,1.487,0,0,0-.692-.923,1.629,1.629,0,0,0-1.462,0,1.487,1.487,0,0,0-.692.923l-3.154,9.385-2.923-9.538a1.179,1.179,0,0,0-.538-.769,1.034,1.034,0,0,0-.615-.154,1.157,1.157,0,0,0-.846.308,1.235,1.235,0,0,0-.385.846,1.5,1.5,0,0,0,.077.538l3.692,11.154a1.9,1.9,0,0,0,.308.692l.385.385a1.093,1.093,0,0,0,.462.154c.154,0,.231.077.385.077a1.649,1.649,0,0,0,1.538-1.308l3.077-9.231L206,24.84a1.9,1.9,0,0,0,.308.692c.154.154.231.308.385.385a1.093,1.093,0,0,0,.462.154c.154,0,.231.077.385.077a1.72,1.72,0,0,0,.769-.231h0a1.715,1.715,0,0,0,.769-1.077l3.692-11.154a.693.693,0,0,0,.077-.385v-.231A1.224,1.224,0,0,0,212.462,12.3Z" transform="translate(-108.692 -3.86)" fill="#202433"/>
        </g>
        <g id="Grupo_12731" data-name="Grupo 12731" transform="translate(0 29.365)">
          <g id="Grupo_12730" data-name="Grupo 12730">
            <path id="Trazado_695" data-name="Trazado 695" d="M95.092,58.546a.768.768,0,0,0-.385-.308,1.449,1.449,0,0,0-.615-.154H85.785V41.008c0-.538-.154-.923-.462-1.077a1.271,1.271,0,0,0-1.462,0c-.308.154-.462.538-.462,1.077V58.931a1.3,1.3,0,0,0,1.462,1.462h9.385a1.058,1.058,0,0,0,1-.462,1.241,1.241,0,0,0,.231-.692.463.463,0,0,0-.077-.308C95.246,58.777,95.169,58.623,95.092,58.546Z" transform="translate(-83.4 -39.623)" fill="#202433"/>
            <path id="Trazado_696" data-name="Trazado 696" d="M110.492,50.146a5.48,5.48,0,0,0-2.077-1.385,7.315,7.315,0,0,0-2.692-.462,6.243,6.243,0,0,0-2.692.538,7.248,7.248,0,0,0-2.231,1.538,7.69,7.69,0,0,0-1.462,8,9.022,9.022,0,0,0,1.462,2.308,7.684,7.684,0,0,0,2.231,1.538,6.954,6.954,0,0,0,2.846.538,7.324,7.324,0,0,0,2.923-.538,6.456,6.456,0,0,0,2.385-1.692.665.665,0,0,0,.231-.462.693.693,0,0,0,.077-.385.947.947,0,0,0-.385-.769,1.126,1.126,0,0,0-1.615.154,8.068,8.068,0,0,1-1.462,1.154,4.772,4.772,0,0,1-2.231.538,5.288,5.288,0,0,1-1.846-.385,3.822,3.822,0,0,1-1.462-1,4.927,4.927,0,0,1-1-1.462,5.022,5.022,0,0,1-.385-1.538h9.769a1.1,1.1,0,0,0,1.231-1.231,8.046,8.046,0,0,0-.462-2.769A4.44,4.44,0,0,0,110.492,50.146Zm-4.769.231a3.828,3.828,0,0,1,3,1.154,4.155,4.155,0,0,1,1.154,2.769h-8.538a3.689,3.689,0,0,1,.385-1.308,5.053,5.053,0,0,1,.923-1.308,4.365,4.365,0,0,1,1.385-.923A3.064,3.064,0,0,1,105.723,50.377Z" transform="translate(-86.954 -41.608)" fill="#202433"/>
            <path id="Trazado_697" data-name="Trazado 697" d="M130.115,60.838c0-.231-.077-.538-.077-.769V53.377a6.432,6.432,0,0,0-.385-2.231,6.16,6.16,0,0,0-1.154-1.615,5.97,5.97,0,0,0-1.692-.923,5.9,5.9,0,0,0-2.077-.308,10.469,10.469,0,0,0-2.769.385,5.431,5.431,0,0,0-2,1.077,1.063,1.063,0,0,0-.462.846.988.988,0,0,0,.308.769,1.147,1.147,0,0,0,1.462,0,5.664,5.664,0,0,1,3.308-1.077,3.381,3.381,0,0,1,2.462.769,3.206,3.206,0,0,1,.846,2.385v.231c-1.154,0-2.231.077-3.308.154a17,17,0,0,0-3.077.538,4.76,4.76,0,0,0-2.154,1.385A3.738,3.738,0,0,0,118.5,58.3a4.047,4.047,0,0,0,.462,2,3.829,3.829,0,0,0,1.154,1.308,3.965,3.965,0,0,0,1.538.692,5.856,5.856,0,0,0,1.615.231,6.473,6.473,0,0,0,2.846-.615,4.749,4.749,0,0,0,1.769-1.538c0,.308.077.538.077.846a1.315,1.315,0,0,0,.462.923,1.142,1.142,0,0,0,1.385-.077,1.051,1.051,0,0,0,.308-.846v-.231C130.115,61.069,130.115,60.915,130.115,60.838Zm-2.692-5.154h.385v.769a4.017,4.017,0,0,1-.308,1.615,3.888,3.888,0,0,1-2,2.231,4.725,4.725,0,0,1-2.769.231,3.329,3.329,0,0,1-.923-.385,1.357,1.357,0,0,1-.615-.692,2.234,2.234,0,0,1-.231-1.077,1.585,1.585,0,0,1,.538-1.308,4.211,4.211,0,0,1,1.538-.846,15.511,15.511,0,0,1,2.154-.385A20.321,20.321,0,0,1,127.423,55.685Z" transform="translate(-91.5 -41.608)" fill="#202433"/>
            <path id="Trazado_698" data-name="Trazado 698" d="M144.492,48.3a5.022,5.022,0,0,0-2.769.769,4.808,4.808,0,0,0-1.615,1.385v-.846a1.449,1.449,0,0,0-.154-.615,1.35,1.35,0,0,0-.308-.385c-.154-.077-.231-.154-.385-.154a.849.849,0,0,0-.615,0c-.154,0-.231.077-.385.154a.768.768,0,0,0-.308.385,1.449,1.449,0,0,0-.154.615V61.3a2.246,2.246,0,0,0,.154.692,1.679,1.679,0,0,0,.308.385c.154.077.231.154.385.154a1.061,1.061,0,0,0,.692,0c.154,0,.231-.077.385-.154a.768.768,0,0,0,.308-.385,1.536,1.536,0,0,0,.154-.692V55.377a6.519,6.519,0,0,1,.308-2.231,5.758,5.758,0,0,1,.846-1.538,4.692,4.692,0,0,1,1.231-.923,3.017,3.017,0,0,1,1.385-.308,3.181,3.181,0,0,1,1.615.308,2.778,2.778,0,0,1,1,.846,3.724,3.724,0,0,1,.538,1.385,12.764,12.764,0,0,1,.154,1.846v6.462a2.246,2.246,0,0,0,.154.692,1.678,1.678,0,0,0,.308.385.588.588,0,0,0,.385.154c.154,0,.231.077.308.077a.462.462,0,0,0,.308-.077c.154,0,.231-.077.385-.154a.768.768,0,0,0,.308-.385,1.449,1.449,0,0,0,.154-.615V53.992a6.17,6.17,0,0,0-1.308-4.077C147.569,48.838,146.262,48.3,144.492,48.3Z" transform="translate(-95.954 -41.608)" fill="#202433"/>
            <path id="Trazado_699" data-name="Trazado 699" d="M162.246,49.138l8.692-7.385a1.442,1.442,0,0,0,.462-.538.976.976,0,0,0,.077-.462,1.065,1.065,0,0,0-1.154-1.154,1.143,1.143,0,0,0-.462.077,1.928,1.928,0,0,0-.538.308l-9.538,8.538V40.908c0-.538-.154-.923-.462-1.077a1.271,1.271,0,0,0-1.462,0c-.308.154-.462.538-.462,1.077V59.138a1.536,1.536,0,0,0,.154.692,1.679,1.679,0,0,0,.308.385c.154.077.231.154.385.231a1.06,1.06,0,0,0,.692,0,.665.665,0,0,0,.462-.231.768.768,0,0,0,.308-.385,1.536,1.536,0,0,0,.154-.692V49.908l9.923,10.077a1.489,1.489,0,0,0,1,.462,1.313,1.313,0,0,0,1.308-1.308,1.489,1.489,0,0,0-.462-1Z" transform="translate(-100.477 -39.6)" fill="#202433"/>
            <path id="Trazado_700" data-name="Trazado 700" d="M179.062,40.779a1.673,1.673,0,0,0,0,2.308,1.487,1.487,0,0,0,2.154,0,1.673,1.673,0,0,0,0-2.308A1.637,1.637,0,0,0,179.062,40.779Z" transform="translate(-105.369 -39.779)" fill="#202433"/>
            <path id="Trazado_701" data-name="Trazado 701" d="M181.023,48.737a.588.588,0,0,0-.385-.154,1.06,1.06,0,0,0-.692,0c-.154,0-.231.077-.385.154a.768.768,0,0,0-.308.385,1.536,1.536,0,0,0-.154.692V61.352a2.246,2.246,0,0,0,.154.692,1.678,1.678,0,0,0,.308.385.588.588,0,0,0,.385.154c.154,0,.231.077.308.077a.462.462,0,0,0,.308-.077c.154,0,.231-.077.385-.154a.768.768,0,0,0,.308-.385,1.449,1.449,0,0,0,.154-.615V49.89a2.246,2.246,0,0,0-.154-.692A.657.657,0,0,0,181.023,48.737Z" transform="translate(-105.485 -41.66)" fill="#202433"/>
            <path id="Trazado_702" data-name="Trazado 702" d="M192.508,59.044a.976.976,0,0,0-.462.077,2.733,2.733,0,0,1-.769.154,1.624,1.624,0,0,1-1.231-.462,2.441,2.441,0,0,1-.462-1.769V49.506h2.846a1.049,1.049,0,0,0,.923-.385.936.936,0,0,0,0-1.231c-.154-.308-.462-.385-.923-.385h-2.846V44.813a2.246,2.246,0,0,0-.154-.692,1.678,1.678,0,0,0-.308-.385c-.154-.077-.231-.154-.385-.154a1.067,1.067,0,0,0-.692,0c-.154,0-.231.077-.385.154a.768.768,0,0,0-.308.385,1.536,1.536,0,0,0-.154.692v2.692h-1.846a1.049,1.049,0,0,0-.923.385.936.936,0,0,0,0,1.231,1.049,1.049,0,0,0,.923.385H187.2v8.077a4.119,4.119,0,0,0,.385,1.846,3.406,3.406,0,0,0,.923,1.154,4.218,4.218,0,0,0,1.154.615,6.827,6.827,0,0,0,1.154.154,4.387,4.387,0,0,0,1-.077,6.241,6.241,0,0,0,.846-.231,1.406,1.406,0,0,0,.615-.462,1.426,1.426,0,0,0,.154-.538.988.988,0,0,0-.308-.769C193.046,59.121,192.815,59.044,192.508,59.044Z" transform="translate(-106.661 -40.506)" fill="#202433"/>
          </g>
        </g>
      </g>
      <path id="Trazado_703" data-name="Trazado 703" d="M46.492,11.717l-19-9.538a4.248,4.248,0,0,0-3.615,0l-16,7.923L5.338,11.41a4.248,4.248,0,0,1,3.615,0l9,4,.462.154h0L40.108,26.871,18.338,38.256l-.231.077L8.877,43.179a3.992,3.992,0,0,1-3.615,0L4.8,42.948h0l19,9.462a4.248,4.248,0,0,0,3.615,0l19.077-9.538a4.012,4.012,0,0,0,2.231-3.615V31.333H48.8v-16A4.229,4.229,0,0,0,46.492,11.717Z" transform="translate(-2.415 -1.506)" fill="#a4a7ad"/>
      <path id="Trazado_704" data-name="Trazado 704" d="M17.238,18.17l-9-4a3.992,3.992,0,0,0-3.615,0l-.462.231c-.077,0-.077.077-.154.077h0A4.084,4.084,0,0,0,1.7,18.093V42.016a4.2,4.2,0,0,0,2.308,3.692l.462.231a4.248,4.248,0,0,0,3.615,0l9.385-4.923L17.7,18.4Z" transform="translate(-1.7 -4.266)" fill="#4d515d"/>
      <path id="Trazado_705" data-name="Trazado 705" d="M201.554,41.8c.231,0,.308.154.308.231s0,.231-.308.231h-1.615v4.692a.282.282,0,0,1-.308.308.323.323,0,0,1-.308-.308V42.262h-1.615c-.231,0-.308-.154-.308-.231s.077-.231.308-.231Z" transform="translate(-46.861 -10.742)" fill="#202433"/>
      <path id="Trazado_706" data-name="Trazado 706" d="M208.977,47.315a.323.323,0,0,1-.308-.308v-4h0L206.9,47.085a.287.287,0,0,1-.308.231.412.412,0,0,1-.308-.231l-1.769-4.077h0v4a.282.282,0,0,1-.308.308.323.323,0,0,1-.308-.308V42.085a.348.348,0,0,1,.308-.385c.077,0,.231.077.385.308l2,4.538h0l2-4.538c.154-.231.231-.308.385-.308s.308.077.308.385v4.923C209.285,47.315,209.131,47.315,208.977,47.315Z" transform="translate(-48.361 -10.719)" fill="#202433"/>
    </g>
  </g>
</svg>
