<svg xmlns="http://www.w3.org/2000/svg" width="30" height="30" viewBox="0 0 30 30"><g transform="translate(973 -3564.702)"><circle cx="15" cy="15" r="15" transform="translate(-973 3564.702)" fill="#f5f6fb"/><g transform="translate(-964.832 3570.198)"><path d="M5.279,3.512a.393.393,0,0,0,0-.746L.649.091C.291-.115,0,.055,0,.466v5.35c0,.411.291.578.649.372Z" transform="translate(0 -0.003)" fill="#1c1f36"/><path d="M5.279,29.67a.4.4,0,0,0,0-.749L.649,26.246c-.359-.2-.649-.034-.649.374v5.35c0,.411.291.578.649.372Z" transform="translate(0 -19.313)" fill="#1c1f36"/><path d="M5.279,55.821a.4.4,0,0,0,0-.749L.649,52.4C.291,52.193,0,52.361,0,52.774v5.347c0,.411.291.581.649.374Z" transform="translate(0 -38.62)" fill="#1c1f36"/><path d="M22.66,18.892c0,.411.288.581.646.374l4.63-2.675a.4.4,0,0,0,0-.749l-4.63-2.675c-.359-.2-.646-.037-.646.377Z" transform="translate(-16.729 -9.659)" fill="#1c1f36"/><path d="M22.66,45.043c0,.414.288.581.646.374l4.63-2.672a.4.4,0,0,0,0-.751l-4.63-2.672c-.359-.207-.646-.037-.646.374Z" transform="translate(-16.729 -28.965)" fill="#1c1f36"/><path d="M45.29,31.97c0,.411.293.578.652.372l4.63-2.672a.4.4,0,0,0,0-.749l-4.63-2.675c-.359-.2-.652-.034-.652.374Z" transform="translate(-33.436 -19.313)" fill="#1c1f36"/></g></g></svg>