<svg xmlns="http://www.w3.org/2000/svg" width="162.61" height="35.46" viewBox="0 0 162.61 35.46"><g transform="translate(0 -0.003)"><g transform="translate(0 0.003)"><rect width="4.485" height="23.039" transform="translate(123.09 5.492)" fill="#1c1f36"/><path d="M237.029,29.316c-1.926,0-3.173.734-3.173,2.751v3.559c0,2.215.7,3.623,3.1,3.623,3.017,0,3.43-2.692,3.43-5.159s-.335-4.774-3.361-4.774m.954,13.267a4.138,4.138,0,0,1-3.971-1.954h-.06v8.149H229.43V26.143h3.811l.293,1.889h.06a4.961,4.961,0,0,1,4.554-2.242c4.907,0,6.824,3.843,6.824,8.254,0,4.586-1.889,8.552-6.989,8.552" transform="translate(-124.22 -13.965)" fill="#1c1f36"/><path d="M327.762,43.27c-2.119,5.356-3.15,6.571-7.062,6.571a20.241,20.241,0,0,1-2.435-.16V45.953a15.843,15.843,0,0,0,1.8.1c1.729,0,2.146-.459,2.724-1.894l.747-1.8L317.21,26.56h4.9l3.714,11.12h.064l3.618-11.12h4.847Z" transform="translate(-171.746 -14.382)" fill="#1c1f36"/><path d="M297.816,38.447V32.265c0-4.613-1.766-6.475-6.475-6.475a16.27,16.27,0,0,0-7.727,1.931l1.412,3.082a12.23,12.23,0,0,1,5.888-1.678c1.633,0,2.371.459,2.371,1.99v.766c-4.008-.032-10.066.514-10.066,5.833,0,3.114,2.151,4.9,5.2,4.9a8.479,8.479,0,0,0,5.352-1.9,1.4,1.4,0,0,0,.041.229c.491,1.555,3.155,1.66,5.168,1.555l.156-3.43c-.839,0-1.325-.133-1.325-.624m-4.416-.179a6.241,6.241,0,0,1-3.669,1.284,1.989,1.989,0,0,1-2.119-2.178c0-2.912,3.669-2.949,5.769-2.949Z" transform="translate(-153.343 -13.965)" fill="#1c1f36"/><path d="M118.314,29.344c-2.825,0-3.669,1.7-3.669,4.843s.917,4.966,3.719,4.966,3.669-1.724,3.669-4.966c0-3.141-.871-4.843-3.669-4.843m0,13.239c-5.581,0-8.254-3.4-8.254-8.4,0-4.677,2.4-8.4,8.254-8.4,5.411,0,8.254,3.21,8.254,8.4,0,4.966-2.628,8.4-8.254,8.4" transform="translate(-59.617 -13.965)" fill="#1c1f36"/><path d="M78.73,15.03v4h6.021V36.675H89.5V19.033h6.03v-4Z" transform="translate(-42.627 -8.139)" fill="#1c1f36"/><path d="M157.538,34.163c-2.293.06-2.531-.243-2.545-1.614v-7.4h3.714V21.525h-3.714V17.26h-4.457v4.265H147.88v3.623H150.5V32.81c0,3.875,1.064,5.095,5.42,5.095.8,0,1.573-.1,2.784-.225V34.108c-.335.032-.605.064-1.165.078" transform="translate(-80.066 -9.347)" fill="#1c1f36"/><rect width="4.485" height="23.039" transform="translate(98.203 5.492)" fill="#1c1f36"/><path d="M190.083,38.447V32.265c0-4.613-1.761-6.475-6.48-6.475a16.266,16.266,0,0,0-7.722,1.931l1.412,3.082a12.258,12.258,0,0,1,5.9-1.669c1.633,0,2.371.459,2.371,1.99v.766c-4-.032-10.061.514-10.061,5.833,0,3.114,2.146,4.9,5.191,4.9a8.461,8.461,0,0,0,5.347-1.9,1.326,1.326,0,0,0,.046.229c.491,1.555,3.16,1.66,5.168,1.555l.161-3.43c-.839,0-1.33-.133-1.33-.624m-4.425-.188a6.214,6.214,0,0,1-3.669,1.284,1.988,1.988,0,0,1-2.114-2.178c0-2.912,3.669-2.949,5.769-2.949Z" transform="translate(-95.02 -13.965)" fill="#1c1f36"/><path d="M9.249,6.151a.689.689,0,0,0,0-1.307L1.137.158C.509-.2,0,.094,0,.813v9.373c0,.72.509,1.013,1.137.651Z" transform="translate(0 -0.003)" fill="#1c1f36"/><path d="M9.249,32.309a.692.692,0,0,0,0-1.312L1.137,26.311C.509,25.953,0,26.251,0,26.967V36.34c0,.72.509,1.013,1.137.651Z" transform="translate(0 -14.165)" fill="#1c1f36"/><path d="M9.249,58.46a.692.692,0,0,0,0-1.312L1.137,52.467C.509,52.1,0,52.4,0,53.123v9.369c0,.72.509,1.018,1.137.656Z" transform="translate(0 -28.324)" fill="#1c1f36"/><path d="M22.66,23.262c0,.72.5,1.018,1.133.656L31.9,19.231a.692.692,0,0,0,0-1.312l-8.112-4.687c-.628-.353-1.133-.064-1.133.66Z" transform="translate(-12.269 -7.085)" fill="#1c1f36"/><path d="M22.66,49.412c0,.725.5,1.018,1.133.656L31.9,45.386a.7.7,0,0,0,0-1.316l-8.112-4.682c-.628-.362-1.133-.064-1.133.656Z" transform="translate(-12.269 -21.244)" fill="#1c1f36"/><path d="M45.29,36.34c0,.72.514,1.013,1.142.651l8.112-4.682a.692.692,0,0,0,0-1.312l-8.112-4.687c-.628-.358-1.142-.06-1.142.656Z" transform="translate(-24.521 -14.165)" fill="#1c1f36"/></g></g></svg>