<svg xmlns="http://www.w3.org/2000/svg" width="22.935" height="22.935" viewBox="0 0 22.935 22.935"><path d="M0,0H22.935V22.935H0Z" fill="none"/><path d="M19.2,2H3.911a1.909,1.909,0,0,0-1.9,1.911L2,21.112,5.822,17.29H19.2a1.917,1.917,0,0,0,1.911-1.911V3.911A1.917,1.917,0,0,0,19.2,2ZM15.742,12.225l-2.274-1.816v2.1a.958.958,0,0,1-.956.956H6.778a.958.958,0,0,1-.956-.956V6.778a.958.958,0,0,1,.956-.956h5.734a.958.958,0,0,1,.956.956v2.1l2.274-1.816a.953.953,0,0,1,1.548.745v3.67A.953.953,0,0,1,15.742,12.225Z" transform="translate(-0.089 -0.089)" fill="#8c97b2"/></svg>