<svg xmlns="http://www.w3.org/2000/svg" width="18" height="23.631" viewBox="0 0 18 23.631"><defs><style>.a{fill:#4086f4;}.b{fill:#4175df;}.c{fill:#80aef8;}.d{fill:#fff5f5;}.e{fill:#e3e7ea;}</style></defs><g transform="translate(0)"><path class="a" d="M79,6.231,74.154,4.846,72.769,0H63.077A2.077,2.077,0,0,0,61,2.077V21.554a2.077,2.077,0,0,0,2.077,2.077H76.923A2.077,2.077,0,0,0,79,21.554Z" transform="translate(-61)"/><path class="b" d="M264.877,6.231V21.554a2.063,2.063,0,0,1-2.049,2.077H256V0h2.732L260.1,4.846Z" transform="translate(-246.877)"/><path class="c" d="M322.146,6.146h-4.78A1.37,1.37,0,0,1,316,4.78V0a.64.64,0,0,1,.478.2l5.463,5.463A.64.64,0,0,1,322.146,6.146Z" transform="translate(-304.146)"/><g transform="translate(4.22 9.747)"><path class="d" d="M159.877,212.366h-8.195a.683.683,0,1,1,0-1.366h8.195a.683.683,0,0,1,0,1.366Z" transform="translate(-151 -211)"/></g><g transform="translate(4.22 12.518)"><path class="d" d="M159.877,272.366h-8.195a.683.683,0,1,1,0-1.366h8.195a.683.683,0,0,1,0,1.366Z" transform="translate(-151 -271)"/></g><g transform="translate(4.22 15.29)"><path class="d" d="M159.877,332.366h-8.195a.683.683,0,0,1,0-1.366h8.195a.683.683,0,0,1,0,1.366Z" transform="translate(-151 -331)"/></g><g transform="translate(4.189 18.061)"><path class="d" d="M157.146,392.366h-5.463a.683.683,0,0,1,0-1.366h5.463a.683.683,0,0,1,0,1.366Z" transform="translate(-151 -391)"/></g></g><g transform="translate(9.045 9.831)"><g transform="translate(0 8.195)"><path class="e" d="M256,392.366h1.366a.683.683,0,0,0,0-1.366H256Z" transform="translate(-256 -391)"/></g><g transform="translate(0 5.463)"><path class="e" d="M256,332.366h4.1a.683.683,0,0,0,0-1.366H256Z" transform="translate(-256 -331)"/></g><g transform="translate(0 2.732)"><path class="e" d="M256,272.366h4.1a.683.683,0,0,0,0-1.366H256Z" transform="translate(-256 -271)"/></g><path class="e" d="M256,212.366h4.1a.683.683,0,0,0,0-1.366H256Z" transform="translate(-256 -211)"/></g></svg>