<svg xmlns="http://www.w3.org/2000/svg" width="20" height="20" viewBox="0 0 20 20"><g transform="translate(1 1)"><path d="M7.54,19H4a1,1,0,0,1-1-1V5A1,1,0,0,1,4,4H20a1,1,0,0,1,1,1V18a1,1,0,0,1-1,1H16.46" transform="translate(-3 -3)" fill="none" stroke="#69e092" stroke-linecap="round" stroke-linejoin="round" stroke-width="2"/><line y2="3" transform="translate(13)" fill="none" stroke="#69e092" stroke-linecap="round" stroke-linejoin="round" stroke-width="2"/><line y2="3" transform="translate(5)" fill="none" stroke="#69e092" stroke-linecap="round" stroke-linejoin="round" stroke-width="2"/><circle cx="6" cy="6" r="6" transform="translate(3 6)" fill="none" stroke="#69e092" stroke-linecap="round" stroke-linejoin="round" stroke-width="2"/><line x2="18" transform="translate(0 6)" fill="none" stroke="#69e092" stroke-linecap="round" stroke-linejoin="round" stroke-width="2"/><path d="M10,16l1,1,3-3" transform="translate(-3 -3)" fill="none" stroke="#69e092" stroke-linecap="round" stroke-linejoin="round" stroke-width="2"/></g></svg>