<svg xmlns="http://www.w3.org/2000/svg" width="20.008" height="19.993" viewBox="0 0 20.008 19.993"><path d="M21.29,5.89l-10,10a1,1,0,0,1-1.41,0L7.05,13.06a1,1,0,0,1,0-1.41h0a1,1,0,0,1,1.41,0l2.12,2.12,9.29-9.29a1,1,0,0,1,1.41,0h0A.987.987,0,0,1,21.29,5.89ZM15.77,2.74A10,10,0,1,0,21.66,14.6a9.671,9.671,0,0,0,.21-4.22,1.006,1.006,0,0,0-1.7-.54h0a1.007,1.007,0,0,0-.27.89,7.519,7.519,0,0,1-.52,4.26,8.129,8.129,0,0,1-6.61,4.97A8,8,0,1,1,15.65,4.88a1,1,0,0,0,1.17-.18h0a1,1,0,0,0-.24-1.6C16.31,2.98,16.04,2.85,15.77,2.74Z" transform="translate(-2.002 -2.004)" fill="#8c97b2"/></svg>